<svg width="126" height="130" viewBox="0 0 126 130" fill="none" xmlns="http://www.w3.org/2000/svg">
<path d="M109 23L66 46L66 -1.87959e-06L109 23Z" fill="#DAF0FF"/>
<rect x="60" width="6" height="84" fill="#A3B3E6"/>
<path d="M126 82.5C126 88.7378 124.37 94.9145 121.204 100.677C118.038 106.44 113.398 111.677 107.548 116.088C101.698 120.498 94.7526 123.997 87.1091 126.384C79.4655 128.771 71.2733 130 63 130C54.7267 130 46.5345 128.771 38.8909 126.384C31.2474 123.997 24.3024 120.498 18.4523 116.088C12.6022 111.677 7.96163 106.44 4.79559 100.677C1.62954 94.9145 -7.23273e-07 88.7378 0 82.5L63 82.5H126Z" fill="#005F9F"/>
</svg>
