<svg width="1455" height="766" viewBox="0 0 1455 766" fill="none" xmlns="http://www.w3.org/2000/svg">
<path fill-rule="evenodd" clip-rule="evenodd" d="M1302.41 2.44286C1315.74 1.15462 1330.4 2.24325 1339.95 11.5897C1349.56 20.9883 1350 35.5723 1350 48.9879C1350 62.4029 1348.93 76.3891 1339.95 86.3839C1330.55 96.8409 1316.48 102.643 1302.41 101.943C1288.91 101.272 1278.2 92.1525 1268.45 82.8276C1258.41 73.2284 1246.37 62.8363 1247.03 48.9879C1247.67 35.3912 1261.07 26.9803 1271.52 18.2043C1280.71 10.4777 1290.44 3.60005 1302.41 2.44286Z" stroke="white" stroke-width="4"/>
<path fill-rule="evenodd" clip-rule="evenodd" d="M1421.56 496.774C1428.1 497.399 1434.83 496.407 1440.21 500.144C1446.62 504.597 1452.47 510.869 1452.96 518.603C1453.48 526.65 1448.64 534.012 1442.72 539.547C1436.98 544.914 1429.44 548.501 1421.56 547.943C1414.11 547.416 1408.24 542.221 1403.22 536.751C1398.51 531.611 1395.37 525.509 1394.64 518.603C1393.8 510.746 1392.75 501.211 1398.93 496.204C1405 491.284 1413.75 496.029 1421.56 496.774Z" stroke="white" stroke-width="4"/>
<path fill-rule="evenodd" clip-rule="evenodd" d="M463.12 54.2956C485.59 58.4851 497.867 79.9319 514.638 95.4465C532.641 112.102 559.484 122.681 563.226 146.906C567.261 173.028 555.257 202.191 533.433 217.138C513.332 230.905 486.955 220.545 463.12 215.465C445.807 211.776 430.62 204.346 417.532 192.44C403.582 179.75 392.24 165.212 387.751 146.906C381.554 121.636 371.525 92.0147 387.955 71.8269C404.826 51.0961 436.827 49.3933 463.12 54.2956Z" stroke="white" stroke-width="4"/>
<path fill-rule="evenodd" clip-rule="evenodd" d="M192.941 404.158C259.292 394.824 314.791 443.797 352.157 483.249C382.883 515.69 383.041 556.252 373.272 594.556C365.312 625.771 331.146 646.792 303.974 672.18C268.486 705.337 251.378 756.266 192.941 763.046C132.315 770.08 75.374 737.026 37.7207 703.071C4.08906 672.742 -4.09315 632.264 6.10187 594.556C14.6799 562.83 60.9438 547.168 87.0714 520.543C125.746 481.131 125.92 413.587 192.941 404.158Z" stroke="white" stroke-width="4"/>
</svg>
