<svg width="196" height="190" viewBox="0 0 196 190" fill="none" xmlns="http://www.w3.org/2000/svg">
<rect x="126.629" y="81.1445" width="4.05844" height="11.4667" fill="#35437B"/>
<rect x="132.169" y="84.6877" width="4.05844" height="11.4667" fill="#35437B"/>
<rect x="66.9761" y="85.9116" width="6.50638" height="12.433" fill="#0C5053"/>
<path d="M93.4526 71.6104H109.107L105.307 85.9115H97.1393L93.4526 71.6104Z" fill="#A3B2E3"/>
<rect x="51" y="101.566" width="11.4023" height="59.1372" fill="#A0B6F5"/>
<rect x="58.4082" y="96.1543" width="21.3229" height="64.5485" fill="#0A456D"/>
<rect x="75.2217" y="134.42" width="21.2585" height="26.2832" fill="#D3E4FF"/>
<rect x="90.6182" y="81.1445" width="21.3229" height="79.5582" fill="#007FD4"/>
<rect x="109.3" y="117.155" width="11.3379" height="43.5477" fill="#CBEAFF"/>
<path d="M120.638 88.1663L140.672 96.5533V160.703H120.638V88.1663Z" fill="#7386D5"/>
<rect x="62.3379" y="98.3445" width="17.4577" height="8.95433" fill="#1E98E9"/>
<rect x="93.4526" y="84.4944" width="6.37754" height="5.28241" fill="#A3B3E6"/>
<rect x="101.312" y="93.5129" width="6.37754" height="5.28241" fill="#A3B3E6"/>
<rect x="93.4526" y="102.79" width="6.37754" height="5.28241" fill="#A3B3E6"/>
<rect x="62.3379" y="110.52" width="17.4577" height="8.95433" fill="#1E98E9"/>
<rect x="124.567" y="102.79" width="16.1049" height="5.28241" fill="#5668B2"/>
<rect x="124.567" y="127.333" width="16.1049" height="5.28241" fill="#5668B2"/>
<rect x="120.638" y="115.029" width="16.1049" height="5.28241" fill="#5668B2"/>
<rect x="120.638" y="137.898" width="16.1049" height="5.28241" fill="#5668B2"/>
<rect x="112.327" y="129.975" width="4.25169" height="30.7282" fill="#246D9D"/>
<path d="M68.1795 57.9649C63.27 59.7033 63.0181 71.1316 65.1037 76.4438C66.1119 76.1825 68.3366 75.2183 69.1707 73.4515C70.2133 71.243 78.7757 66.3847 76.8935 60.3822C75.0113 54.3798 86.9515 45.9551 91.7003 46.0648C96.449 46.1744 96.8945 44.4918 100.757 42.8244C107.315 39.9939 102.186 33.1249 98.2116 33.8868C94.2375 34.6487 85.6709 40.9516 83.2522 41.2897C80.8335 41.6278 74.3164 55.792 68.1795 57.9649Z" fill="#D9D9D9"/>
<path d="M134.093 58.0361C129.108 56.5268 122.133 65.5828 120.665 71.0976C121.631 71.4846 123.995 72.0264 125.714 71.0976C127.862 69.9366 137.638 71.0976 139.679 65.1474C141.721 59.1972 156.331 59.4874 160.091 62.39C163.851 65.2925 165.207 64.2012 169.306 65.1474C176.266 66.7535 176.205 58.1813 172.553 56.4397C168.9 54.6982 158.265 54.6982 156.116 53.5372C153.967 52.3761 140.324 59.9228 134.093 58.0361Z" fill="#D9D9D9"/>
<path d="M106.719 50.8003C101.514 50.9813 97.836 61.8046 98.2271 67.4981C99.2671 67.5522 101.679 67.3019 103.006 65.8678C104.664 64.0752 114.292 62.0175 114.302 55.7269C114.313 49.4363 128.234 44.9935 132.73 46.5265C137.226 48.0595 138.157 46.5888 142.342 46.1606C149.447 45.4336 146.622 37.3401 142.603 36.8712C138.584 36.4023 128.518 39.8364 126.11 39.4313C123.701 39.0263 113.225 50.574 106.719 50.8003Z" fill="#005F9F"/>
</svg>
