<svg width="196" height="190" viewBox="0 0 196 190" fill="none" xmlns="http://www.w3.org/2000/svg">
<path fill-rule="evenodd" clip-rule="evenodd" d="M119.145 64.3188H99.4883V71.3067H101.315L93.3882 158H126.036L117.348 71.3067H119.145V64.3188Z" fill="#5296C3"/>
<path fill-rule="evenodd" clip-rule="evenodd" d="M88.756 64.3188H69.0998V71.3067H70.9271L63 158H95.6474L86.9602 71.3067H88.756V64.3188Z" fill="#5296C3"/>
<path d="M95.1104 38.9602C87.3426 36.6869 76.472 50.3268 74.1841 58.6331C75.6908 59.216 79.3738 60.0321 82.0524 58.6331C85.4006 56.8844 100.635 58.6331 103.816 49.671C106.997 40.7089 129.764 41.1461 135.624 45.5178C141.483 49.8896 143.596 48.2459 149.985 49.671C160.83 52.0901 160.735 39.1788 155.043 36.5557C149.351 33.9327 132.778 33.9327 129.43 32.1839C126.081 30.4352 104.82 41.8018 95.1104 38.9602Z" fill="#D9D9D9"/>
<path d="M121.04 38.8572C115.457 36.6175 107.644 50.0556 106 58.239C107.083 58.8133 109.73 59.6173 111.655 58.239C114.061 56.5162 132.545 59.9618 134.831 51.1323C137.117 42.3028 144.789 46.8253 149 51.1323C153.211 55.4394 157.5 51.1323 164.115 51.1323C169.683 51.1323 168.206 39.0725 164.115 36.4883C160.024 33.9041 148.112 33.9041 145.706 32.1812C143.299 30.4584 128.019 41.6568 121.04 38.8572Z" fill="#005F9F"/>
</svg>
