<svg width="196" height="190" viewBox="0 0 196 190" fill="none" xmlns="http://www.w3.org/2000/svg">
<rect x="100.624" y="71.0391" width="3.79934" height="37.9934" fill="#913131"/>
<path d="M102.411 25L123.314 94.0586H81.5077L102.411 25Z" fill="#5668B2"/>
<path fill-rule="evenodd" clip-rule="evenodd" d="M123.798 114.518C123.925 115.821 124.56 118.637 126.086 119.476C127.611 120.315 125.196 120.715 123.798 120.811H120.175V120.811H116.361C114.963 120.715 112.548 120.315 114.073 119.476C115.599 118.637 116.234 115.821 116.361 114.518H119.984V114.518H123.798Z" fill="#913131"/>
<ellipse cx="119.98" cy="114.396" rx="3.91109" ry="1.11745" fill="#AE701F"/>
<rect x="80.9883" y="123.758" width="3.79934" height="37.9934" transform="rotate(-105 80.9883 123.758)" fill="#913131"/>
<path fill-rule="evenodd" clip-rule="evenodd" d="M38.2139 133.368L54.5955 108.155L57.9504 120.676L72.8674 98.6316L77.3792 115.47L93.4675 85.7079L101.681 116.362L38.2139 133.368ZM38.2143 133.368L65.0077 147.013L61.6528 134.492L85.5934 146.124L81.0816 129.286L109.895 147.017L101.682 116.362L38.2143 133.368Z" fill="#62B7F0"/>
<rect x="137.946" y="87.8008" width="3.79934" height="37.9934" fill="#913131"/>
<path fill-rule="evenodd" clip-rule="evenodd" d="M157.701 74.6882C160.59 71.7547 162.307 68.0883 162.307 64.1107C162.307 54.4832 152.251 46.6785 139.846 46.6785C127.441 46.6785 117.385 54.4832 117.385 64.1107C117.385 68.052 119.07 71.6877 121.912 74.6076C116.128 77.8041 112.468 82.5292 112.468 87.8008C112.468 97.4283 124.676 105.233 139.734 105.233C154.793 105.233 167 97.4283 167 87.8008C167 82.5733 163.401 77.8833 157.701 74.6882Z" fill="#318FCE"/>
</svg>
