<svg width="120" height="120" viewBox="0 0 120 120" fill="none" xmlns="http://www.w3.org/2000/svg">
<path fill-rule="evenodd" clip-rule="evenodd" d="M32.788 41.8177C29.1919 47.1997 27.2725 53.5271 27.2725 60H39.1942C39.1942 55.8851 40.4145 51.8625 42.7006 48.4411C44.9867 45.0196 48.2361 42.3529 52.0378 40.7782C55.8395 39.2035 60.0228 38.7915 64.0587 39.5943C66.6523 40.1102 69.1102 41.1129 71.3079 42.5359L66.4387 47.4051L86.9128 49.371L84.9469 28.8968L79.8578 33.9859C75.9048 30.9683 71.2996 28.8792 66.3845 27.9016C60.036 26.6388 53.4557 27.2869 47.4756 29.7639C41.4954 32.241 36.3841 36.4357 32.788 41.8177Z" fill="#7386D5"/>
<path fill-rule="evenodd" clip-rule="evenodd" d="M87.2111 78.1823C90.8072 72.8003 92.7266 66.4728 92.7266 60L80.8049 60C80.8049 64.1149 79.5846 68.1375 77.2985 71.5589C75.0124 74.9804 71.763 77.6471 67.9613 79.2218C64.1596 80.7965 59.9763 81.2085 55.9404 80.4057C51.9451 79.611 48.2719 77.6611 45.3756 74.7991L50.2505 69.9242L29.7764 67.9583L31.7423 88.4325L36.9455 83.2292C41.5092 87.7584 47.3067 90.8437 53.6146 92.0984C59.963 93.3612 66.5434 92.7131 72.5235 90.2361C78.5037 87.759 83.615 83.5643 87.2111 78.1823Z" fill="#5296C3"/>
</svg>
