<svg width="120" height="120" viewBox="0 0 120 120" fill="none" xmlns="http://www.w3.org/2000/svg">
<path fill-rule="evenodd" clip-rule="evenodd" d="M49.091 24.5454C44.5723 24.5454 40.9092 28.2085 40.9092 32.7272V73.6363C40.9092 76.6466 43.3478 79.0873 46.3572 79.0909C43.3478 79.0944 40.9092 81.5351 40.9092 84.5454V95.4545C40.9092 98.467 43.3513 100.909 46.3637 100.909H70.9092C73.9216 100.909 76.3637 98.467 76.3637 95.4545V84.5454C76.3637 81.5351 73.9252 79.0944 70.9157 79.0909C73.9252 79.0873 76.3638 76.6466 76.3638 73.6363V32.7272C76.3638 28.2085 72.7006 24.5454 68.1819 24.5454H49.091Z" fill="#CBEAFF"/>
<rect x="52.7275" y="21.8181" width="11.8182" height="2.72727" fill="#CBEAFF"/>
<rect x="48.7871" y="16.3635" width="19.697" height="5.45455" rx="2.72727" fill="#F3F3F3"/>
<rect x="40.9092" y="38.1819" width="35.4545" height="21.8182" fill="#7386D5"/>
</svg>
