<svg width="120" height="120" viewBox="0 0 120 120" fill="none" xmlns="http://www.w3.org/2000/svg">
<path fill-rule="evenodd" clip-rule="evenodd" d="M50.0976 36.0014C60.7406 35.887 69.6561 42.8803 75 52C79.0845 58.9704 70.2488 68.9439 70 77C69.7642 84.6323 77.3772 95.1302 72.1206 100.714C66.7869 106.38 57.8685 106.465 50.0976 105.597C43.2408 104.83 37.2652 101.272 32.5386 96.2917C27.9801 91.488 25.6315 85.4318 24.759 78.8953C23.7123 71.0539 23.1541 63.023 27.1867 56.1966C32.5542 47.1102 39.4717 36.1156 50.0976 36.0014Z" fill="#98EEA7"/>
<path fill-rule="evenodd" clip-rule="evenodd" d="M76.6656 24.6418C79.4659 24.0975 82.7086 23.2712 84.8588 25.2643C87.062 27.3066 87.2694 30.9475 86.7835 34.0208C86.3658 36.6632 84.6227 38.8361 82.4903 40.2461C80.7691 41.3842 78.6758 40.9632 76.6656 40.7108C74.9825 40.4996 73.487 39.9231 72.0653 38.9373C70.08 37.5607 67.2631 36.5364 67.0176 34.0208C66.7685 31.4694 69.2182 29.6853 70.9938 27.9592C72.6512 26.348 74.4613 25.0702 76.6656 24.6418Z" fill="#98EEA7"/>
<path fill-rule="evenodd" clip-rule="evenodd" d="M29.692 21.0018C32.1276 21.0416 34.2717 22.231 36.1594 23.7885C38.3288 25.5783 40.9981 27.4995 41 30.3316C41.0019 33.1643 38.5082 35.3281 36.1681 36.8835C34.2724 38.1436 31.944 38.1225 29.692 37.8478C27.7662 37.6128 25.9763 36.8662 24.6099 35.4732C23.2493 34.0861 22.5796 32.2681 22.3195 30.3316C22.0062 27.9986 21.5587 25.4122 23.0119 23.5732C24.5584 21.6161 27.2156 20.9612 29.692 21.0018Z" fill="#98EEA7"/>
<path fill-rule="evenodd" clip-rule="evenodd" d="M86.692 44.0018C89.1276 44.0416 91.2717 45.231 93.1594 46.7885C95.3288 48.5783 97.9981 50.4995 98 53.3316C98.0019 56.1643 95.5082 58.3281 93.1681 59.8835C91.2724 61.1436 88.944 61.1225 86.692 60.8478C84.7662 60.6128 82.9763 59.8662 81.6099 58.4732C80.2493 57.0861 79.5796 55.2681 79.3195 53.3316C79.0062 50.9986 78.5587 48.4122 80.0119 46.5732C81.5584 44.6161 84.2156 43.9612 86.692 44.0018Z" fill="#98EEA7"/>
<path fill-rule="evenodd" clip-rule="evenodd" d="M66.8568 22.512C66.5302 25.0205 64.7598 26.9281 62.9538 28.7564C61.0849 30.6482 59.2017 33.0087 56.4962 33C53.7945 32.9913 52.1868 30.352 50.0813 28.715C47.5022 26.7099 43.1905 25.7071 43.0064 22.512C42.8222 19.3143 46.6293 17.4384 49.3245 15.5771C51.4627 14.1004 53.8757 13.3834 56.4962 13.1958C59.4065 12.9876 62.6772 12.5469 64.8143 14.4685C66.9878 16.4229 67.2276 19.6644 66.8568 22.512Z" fill="#98EEA7"/>
<path d="M41.517 68.9091H37.5114C37.483 68.5777 37.4072 68.277 37.2841 68.0071C37.1657 67.7372 37 67.5052 36.7869 67.3111C36.5786 67.1122 36.3253 66.9607 36.027 66.8565C35.7287 66.7476 35.3902 66.6932 35.0114 66.6932C34.3485 66.6932 33.7874 66.8542 33.3281 67.1761C32.8736 67.4981 32.5279 67.9598 32.2912 68.5611C32.0592 69.1624 31.9432 69.8845 31.9432 70.7273C31.9432 71.6174 32.0616 72.3632 32.2983 72.9645C32.5398 73.5611 32.8878 74.0109 33.3423 74.3139C33.7969 74.6122 34.3438 74.7614 34.983 74.7614C35.3475 74.7614 35.6742 74.7164 35.9631 74.6264C36.2519 74.5317 36.5028 74.3968 36.7159 74.2216C36.929 74.0464 37.1018 73.8357 37.2344 73.5895C37.3717 73.3385 37.464 73.0568 37.5114 72.7443L41.517 72.7727C41.4697 73.3883 41.2969 74.0156 40.9986 74.6548C40.7003 75.2893 40.2765 75.8764 39.7273 76.4162C39.1828 76.9512 38.508 77.3821 37.7031 77.7088C36.8982 78.0355 35.9631 78.1989 34.8977 78.1989C33.5625 78.1989 32.3646 77.9124 31.304 77.3395C30.2481 76.7666 29.4124 75.9238 28.7969 74.8111C28.1861 73.6984 27.8807 72.3371 27.8807 70.7273C27.8807 69.108 28.1932 67.7443 28.8182 66.6364C29.4432 65.5237 30.286 64.6832 31.3466 64.1151C32.4072 63.5421 33.5909 63.2557 34.8977 63.2557C35.8163 63.2557 36.6615 63.3812 37.4332 63.6321C38.205 63.883 38.8821 64.25 39.4645 64.733C40.0469 65.2112 40.5156 65.8007 40.8707 66.5014C41.2259 67.2022 41.4413 68.0047 41.517 68.9091ZM57.3995 70.7273C57.3995 72.3466 57.0846 73.7126 56.4549 74.8253C55.8252 75.9332 54.9753 76.7737 53.9052 77.3466C52.8351 77.9148 51.6419 78.1989 50.3256 78.1989C48.9999 78.1989 47.802 77.9124 46.7319 77.3395C45.6665 76.7618 44.819 75.919 44.1893 74.8111C43.5643 73.6984 43.2518 72.3371 43.2518 70.7273C43.2518 69.108 43.5643 67.7443 44.1893 66.6364C44.819 65.5237 45.6665 64.6832 46.7319 64.1151C47.802 63.5421 48.9999 63.2557 50.3256 63.2557C51.6419 63.2557 52.8351 63.5421 53.9052 64.1151C54.9753 64.6832 55.8252 65.5237 56.4549 66.6364C57.0846 67.7443 57.3995 69.108 57.3995 70.7273ZM53.337 70.7273C53.337 69.8561 53.221 69.1222 52.989 68.5256C52.7617 67.9242 52.4232 67.4697 51.9734 67.1619C51.5283 66.8494 50.979 66.6932 50.3256 66.6932C49.6722 66.6932 49.1206 66.8494 48.6708 67.1619C48.2257 67.4697 47.8872 67.9242 47.6552 68.5256C47.4279 69.1222 47.3143 69.8561 47.3143 70.7273C47.3143 71.5985 47.4279 72.3348 47.6552 72.9361C47.8872 73.5327 48.2257 73.9872 48.6708 74.2997C49.1206 74.6075 49.6722 74.7614 50.3256 74.7614C50.979 74.7614 51.5283 74.6075 51.9734 74.2997C52.4232 73.9872 52.7617 73.5327 52.989 72.9361C53.221 72.3348 53.337 71.5985 53.337 70.7273Z" fill="white"/>
<path d="M59.5795 80V78.2955L62.8352 75.6023C63.0511 75.4233 63.2358 75.2557 63.3892 75.0994C63.5455 74.9403 63.6648 74.777 63.7472 74.6094C63.8324 74.4418 63.875 74.2557 63.875 74.0511C63.875 73.8267 63.8267 73.6349 63.7301 73.4759C63.6364 73.3168 63.5057 73.1946 63.3381 73.1094C63.1705 73.0213 62.9773 72.9773 62.7585 72.9773C62.5398 72.9773 62.3466 73.0213 62.179 73.1094C62.0142 73.1974 61.8864 73.3267 61.7955 73.4972C61.7045 73.6676 61.6591 73.875 61.6591 74.1193H59.4091C59.4091 73.5057 59.5469 72.9773 59.8224 72.5341C60.098 72.0909 60.4872 71.75 60.9901 71.5114C61.4929 71.2727 62.0824 71.1534 62.7585 71.1534C63.4574 71.1534 64.0625 71.2656 64.5739 71.4901C65.0881 71.7116 65.4844 72.0241 65.7628 72.4276C66.044 72.831 66.1847 73.304 66.1847 73.8466C66.1847 74.1818 66.1151 74.5156 65.9759 74.848C65.8366 75.1776 65.5866 75.5426 65.2259 75.9432C64.8651 76.3438 64.3523 76.821 63.6875 77.375L62.8693 78.0568V78.108H66.2784V80H59.5795Z" fill="white"/>
</svg>
