<svg width="120" height="120" viewBox="0 0 120 120" fill="none" xmlns="http://www.w3.org/2000/svg">
<path d="M28.8114 48.5966C28.409 47.3087 29.3711 46 30.7204 46H91.3027C92.6452 46 93.6065 47.2964 93.2165 48.581L77.4308 100.581C77.1749 101.424 76.3978 102 75.517 102H46.9704C46.0956 102 45.3223 101.431 45.0614 100.597L28.8114 48.5966Z" fill="#56BBFF"/>
<path fill-rule="evenodd" clip-rule="evenodd" d="M57.3926 26.6704C56.0589 27.0278 55.2675 28.3986 55.6248 29.7323L56.0131 31.1812L28.9671 38.4281C27.9002 38.714 27.267 39.8107 27.5529 40.8776L27.8117 41.8435C28.0976 42.9104 29.1943 43.5436 30.2612 43.2577L90.1486 27.2109C91.2156 26.9251 91.8487 25.8284 91.5628 24.7615L91.304 23.7955C91.0181 22.7286 89.9215 22.0954 88.8545 22.3813L60.8427 29.8871L60.4545 28.4382C60.0971 27.1045 58.7263 26.3131 57.3926 26.6704Z" fill="#56BBFF"/>
<path fill-rule="evenodd" clip-rule="evenodd" d="M84.6161 31.0071C86.4455 31.081 88.1089 31.916 89.4394 33.1877C90.8145 34.502 92.0137 36.1513 91.9999 38.0645C91.9862 39.9679 90.8434 41.6864 89.3696 42.8707C88.0451 43.9351 86.3079 44.0161 84.6161 43.9979C82.9496 43.9801 81.2821 43.799 79.9625 42.7697C78.4502 41.5902 77.119 39.9925 77.0087 38.0645C76.8939 36.0559 77.9251 34.1419 79.3913 32.7817C80.7986 31.4762 82.7077 30.93 84.6161 31.0071Z" fill="#9A9A9A"/>
<rect x="41" y="59.0353" width="4" height="32" rx="2" transform="rotate(-15 41 59.0353)" fill="white"/>
<rect x="59" y="58" width="4" height="32" rx="2" fill="white"/>
<rect x="77.2822" y="58" width="4" height="32" rx="2" transform="rotate(15 77.2822 58)" fill="white"/>
</svg>
