<svg width="120" height="120" viewBox="0 0 120 120" fill="none" xmlns="http://www.w3.org/2000/svg">
<path fill-rule="evenodd" clip-rule="evenodd" d="M83.5299 39.1743C85.6597 37.0442 85.6596 33.5908 83.5296 31.4608C81.3994 29.3307 77.9458 29.3307 75.8157 31.4608C73.6855 33.5909 73.6855 37.0446 75.8157 39.1747C76.5182 39.8772 77.3646 40.348 78.26 40.5872L62.3161 56.5311L66.1731 60.388L82.1172 44.4439C82.3563 45.3395 82.8271 46.1862 83.5298 46.8888C85.6599 49.0189 89.1135 49.0189 91.2437 46.8888C93.3738 44.7587 93.3738 41.305 91.2437 39.1749C89.1137 37.0449 85.6603 37.0448 83.5301 39.1745C83.5301 39.1745 83.53 39.1744 83.5299 39.1743Z" fill="#E6E6E6"/>
<path d="M66.5853 50.8939C69.5634 50.7434 71.9605 53.1406 71.8101 56.1187C71.3925 64.3853 69.8114 79.8911 63.8492 85.8534C55.5471 94.1554 42.7731 94.8417 35.3177 87.3863C27.8622 79.9308 28.5485 67.1568 36.8506 58.8548C42.8128 52.8925 58.3187 51.3115 66.5853 50.8939Z" fill="#AE701F"/>
<circle cx="46.8884" cy="85.458" r="1.36364" transform="rotate(-45 46.8884 85.458)" fill="white"/>
<circle cx="50.7449" cy="85.458" r="1.36364" transform="rotate(-45 50.7449 85.458)" fill="white"/>
<circle cx="46.8884" cy="81.6008" r="1.36364" transform="rotate(-45 46.8884 81.6008)" fill="white"/>
</svg>
