<svg width="120" height="120" viewBox="0 0 120 120" fill="none" xmlns="http://www.w3.org/2000/svg">
<path d="M19.0908 43.6364C19.0908 36.1052 25.196 30 32.7272 30H87.2726C94.8038 30 100.909 36.1052 100.909 43.6364V79.0909H19.0908V43.6364Z" fill="#0099FF"/>
<circle cx="40.9094" cy="79.091" r="8.18182" fill="#5668B2"/>
<circle cx="79.091" cy="79.091" r="8.18182" fill="#5668B2"/>
<path d="M27.2725 43.6364C27.2725 40.624 29.7145 38.1819 32.727 38.1819H35.4543C38.4667 38.1819 40.9088 40.624 40.9088 43.6364V51.8182H27.2725V43.6364Z" fill="#DAF0FF"/>
<path d="M49.0908 43.6364C49.0908 40.624 51.5329 38.1819 54.5454 38.1819H62.7272V51.8182H49.0908V43.6364Z" fill="#DAF0FF"/>
<rect x="62.7275" y="38.1819" width="13.6364" height="13.6364" fill="#AEDEFE"/>
<path d="M76.3633 38.1819H84.5451C87.5576 38.1819 89.9996 40.624 89.9996 43.6364V51.8182H76.3633V38.1819Z" fill="#DAF0FF"/>
<circle cx="29.9997" cy="62.7273" r="2.72727" fill="#5668B2"/>
</svg>
