<svg width="586" height="585" viewBox="0 0 586 585" fill="none" xmlns="http://www.w3.org/2000/svg">
<path d="M67.8838 106.315C95.2975 73.178 129.689 46.5013 168.603 28.1898C207.517 9.87832 249.993 0.383666 293 0.383667V175.682C275.798 175.682 258.807 179.48 243.241 186.805C227.676 194.129 213.919 204.8 202.954 218.055L67.8838 106.315Z" fill="#3C8DEA"/>
<path d="M584.588 310.893C581.693 356.909 567.949 401.586 544.478 441.272C521.008 480.958 488.479 514.525 449.55 539.231L355.62 391.221C371.192 381.339 384.203 367.912 393.592 352.038C402.98 336.163 408.477 318.292 409.635 299.886L584.588 310.893Z" fill="#0099FF"/>
<path d="M28.6421 416.946C5.03623 366.781 -3.80892 310.935 3.13974 255.93C10.0884 200.926 32.544 149.034 67.8838 106.315L202.954 218.055C188.818 235.142 179.836 255.899 177.056 277.901C174.277 299.903 177.815 322.241 187.257 342.307L28.6421 416.946Z" fill="#9AACFF"/>
<path d="M93 505.527C66.1568 480.319 44.3208 450.265 28.6421 416.946L187.257 342.307C193.529 355.635 202.263 367.657 213 377.74L93 505.527Z" fill="#5C89FF"/>
<path d="M256.382 582.409C195.17 574.676 137.977 547.763 93 505.527L213 377.74C230.991 394.634 253.868 405.399 278.353 408.492L256.382 582.409Z" fill="#A0B6F5"/>
<path d="M293 0.383667C332.913 0.383665 372.403 8.56155 409.033 24.4128C445.663 40.2641 478.657 63.4526 505.979 92.5478C533.301 121.643 554.372 156.028 567.892 193.581C581.412 231.134 587.094 271.059 584.588 310.893L409.635 299.886C410.638 283.952 408.365 267.982 402.957 252.961C397.549 237.94 389.121 224.186 378.192 212.548C367.263 200.91 354.065 191.634 339.413 185.294C324.761 178.953 308.965 175.682 293 175.682V0.383667Z" fill="#8979FF"/>
<path d="M449.55 539.231C392.146 575.66 323.834 590.93 256.382 582.409L278.353 408.492C305.334 411.901 332.659 405.793 355.62 391.221L449.55 539.231Z" fill="#27C4E4"/>
<path d="M415.619 134.743H427.029V136.192H415.619V134.743ZM415.619 132.228H428.438V138.688H415.619V137.078H426.043V133.858H415.619V132.228ZM420.067 133.113H422.381V138.748C422.381 139.124 422.468 139.365 422.642 139.473C422.83 139.566 423.226 139.613 423.83 139.613C423.95 139.613 424.132 139.613 424.373 139.613C424.628 139.613 424.91 139.613 425.218 139.613C425.54 139.613 425.855 139.613 426.164 139.613C426.486 139.613 426.781 139.613 427.049 139.613C427.318 139.613 427.526 139.613 427.673 139.613C428.009 139.613 428.264 139.566 428.438 139.473C428.612 139.379 428.74 139.184 428.82 138.889C428.901 138.594 428.961 138.165 429.002 137.601C429.243 137.762 429.558 137.916 429.947 138.064C430.35 138.198 430.705 138.299 431.014 138.366C430.92 139.171 430.766 139.795 430.551 140.237C430.336 140.693 430.014 141.009 429.585 141.183C429.169 141.371 428.592 141.465 427.854 141.465C427.734 141.465 427.526 141.465 427.231 141.465C426.949 141.465 426.627 141.465 426.265 141.465C425.916 141.465 425.56 141.465 425.198 141.465C424.836 141.465 424.514 141.465 424.232 141.465C423.95 141.465 423.749 141.465 423.628 141.465C422.703 141.465 421.978 141.384 421.455 141.223C420.945 141.062 420.583 140.787 420.368 140.398C420.167 140.009 420.067 139.466 420.067 138.768V133.113ZM414.412 132.228H416.726V139.593H414.412V132.228ZM413.446 123.535H429.323V125.124H413.446V123.535ZM420.187 123.937H422.542V131.705H420.187V123.937ZM412.56 125.949H430.35V130.497H427.935V127.519H414.854V130.497H412.56V125.949ZM414.693 130.316C415.324 130.236 416.062 130.135 416.907 130.014C417.752 129.894 418.624 129.766 419.523 129.632L419.604 131C418.852 131.175 418.108 131.349 417.37 131.524C416.632 131.698 415.941 131.852 415.297 131.987L414.693 130.316ZM415.358 128.646L416.002 127.459C416.377 127.526 416.78 127.606 417.209 127.7C417.652 127.794 418.074 127.895 418.477 128.002C418.879 128.109 419.215 128.223 419.483 128.344L418.859 129.652C418.591 129.531 418.255 129.411 417.853 129.29C417.45 129.169 417.028 129.048 416.585 128.928C416.156 128.807 415.747 128.713 415.358 128.646ZM426.667 127.278L427.593 128.545C427.231 128.679 426.835 128.814 426.406 128.948C425.976 129.069 425.547 129.176 425.118 129.27C424.702 129.364 424.319 129.444 423.971 129.511L423.226 128.364C423.561 128.297 423.937 128.197 424.353 128.062C424.782 127.928 425.198 127.794 425.601 127.66C426.003 127.512 426.359 127.385 426.667 127.278ZM422.904 130.799L423.367 129.451C423.877 129.505 424.42 129.585 424.997 129.692C425.574 129.8 426.131 129.92 426.667 130.055C427.217 130.175 427.673 130.303 428.036 130.437L427.593 131.926C427.244 131.792 426.795 131.658 426.245 131.524C425.708 131.389 425.144 131.255 424.554 131.121C423.977 130.987 423.427 130.88 422.904 130.799ZM433.006 127.016H448.441V129.491H433.006V127.016ZM447.435 127.016H449.95C449.95 127.016 449.95 127.09 449.95 127.237C449.95 127.385 449.944 127.553 449.93 127.74C449.93 127.915 449.924 128.056 449.91 128.163C449.803 130.175 449.695 131.899 449.588 133.335C449.481 134.757 449.36 135.937 449.226 136.877C449.105 137.816 448.958 138.56 448.783 139.11C448.622 139.66 448.428 140.07 448.2 140.338C447.891 140.727 447.576 140.995 447.254 141.143C446.945 141.29 446.57 141.391 446.127 141.445C445.765 141.498 445.288 141.525 444.698 141.525C444.108 141.525 443.504 141.518 442.887 141.505C442.874 141.143 442.786 140.72 442.625 140.237C442.478 139.754 442.29 139.345 442.062 139.01C442.706 139.063 443.296 139.097 443.833 139.11C444.383 139.11 444.792 139.11 445.06 139.11C445.262 139.11 445.436 139.09 445.584 139.05C445.731 139.01 445.865 138.923 445.986 138.788C446.16 138.614 446.321 138.279 446.469 137.782C446.617 137.272 446.744 136.568 446.851 135.669C446.972 134.77 447.079 133.65 447.173 132.308C447.267 130.953 447.354 129.35 447.435 127.499V127.016ZM439.184 122.85H441.76V127.016C441.76 127.928 441.713 128.901 441.619 129.934C441.539 130.967 441.364 132.02 441.096 133.093C440.828 134.153 440.418 135.206 439.868 136.253C439.318 137.299 438.587 138.299 437.675 139.251C436.776 140.204 435.642 141.062 434.274 141.827C434.14 141.626 433.959 141.398 433.731 141.143C433.516 140.888 433.281 140.646 433.026 140.418C432.785 140.19 432.563 140.002 432.362 139.855C433.623 139.184 434.663 138.433 435.481 137.601C436.313 136.769 436.977 135.904 437.474 135.005C437.97 134.093 438.339 133.174 438.58 132.248C438.835 131.309 438.996 130.397 439.063 129.511C439.144 128.612 439.184 127.781 439.184 127.016V122.85Z" fill="white"/>
<path d="M427.144 168.792V167.082C428.499 165.874 429.653 164.754 430.605 163.721C431.571 162.688 432.309 161.729 432.819 160.843C433.329 159.944 433.583 159.113 433.583 158.348C433.583 157.865 433.496 157.442 433.322 157.08C433.147 156.718 432.893 156.443 432.557 156.255C432.235 156.054 431.833 155.953 431.35 155.953C430.813 155.953 430.317 156.107 429.861 156.416C429.418 156.711 429.009 157.067 428.633 157.483L426.983 155.893C427.68 155.141 428.391 154.578 429.116 154.202C429.854 153.813 430.726 153.619 431.732 153.619C432.671 153.619 433.49 153.813 434.187 154.202C434.898 154.578 435.448 155.108 435.837 155.792C436.226 156.476 436.421 157.281 436.421 158.207C436.421 159.106 436.193 160.025 435.737 160.964C435.294 161.89 434.697 162.815 433.946 163.741C433.194 164.667 432.363 165.579 431.45 166.478C431.839 166.424 432.255 166.384 432.698 166.357C433.154 166.317 433.557 166.297 433.905 166.297H437.125V168.792H427.144ZM444.508 169.074C443.81 169.074 443.132 168.926 442.475 168.631C441.831 168.336 441.261 167.887 440.764 167.283C440.268 166.666 439.872 165.888 439.577 164.948C439.295 163.996 439.155 162.862 439.155 161.548C439.155 160.166 439.309 158.972 439.617 157.966C439.939 156.959 440.369 156.141 440.905 155.51C441.442 154.866 442.052 154.39 442.737 154.082C443.434 153.773 444.165 153.619 444.93 153.619C445.842 153.619 446.627 153.786 447.285 154.122C447.955 154.444 448.512 154.84 448.955 155.309L447.385 157.08C447.13 156.785 446.795 156.53 446.379 156.315C445.963 156.101 445.541 155.993 445.111 155.993C444.508 155.993 443.957 156.168 443.461 156.517C442.978 156.865 442.589 157.442 442.294 158.247C441.999 159.052 441.851 160.152 441.851 161.548C441.851 162.835 441.965 163.868 442.193 164.647C442.435 165.411 442.75 165.968 443.139 166.317C443.528 166.666 443.964 166.84 444.447 166.84C444.823 166.84 445.158 166.739 445.453 166.538C445.762 166.324 446.01 166.015 446.198 165.613C446.386 165.197 446.48 164.687 446.48 164.083C446.48 163.493 446.386 163.01 446.198 162.634C446.024 162.259 445.775 161.977 445.453 161.789C445.145 161.601 444.776 161.507 444.347 161.507C443.944 161.507 443.521 161.635 443.079 161.89C442.636 162.131 442.227 162.56 441.851 163.178L441.71 161.185C441.979 160.81 442.294 160.488 442.656 160.219C443.032 159.951 443.414 159.75 443.803 159.616C444.206 159.481 444.568 159.414 444.89 159.414C445.722 159.414 446.46 159.582 447.103 159.918C447.761 160.253 448.271 160.763 448.633 161.447C448.995 162.131 449.176 163.01 449.176 164.083C449.176 165.103 448.962 165.988 448.532 166.739C448.116 167.477 447.553 168.054 446.842 168.47C446.131 168.873 445.353 169.074 444.508 169.074ZM454.285 163.057C453.587 163.057 452.963 162.869 452.413 162.493C451.863 162.118 451.434 161.574 451.125 160.863C450.817 160.152 450.662 159.3 450.662 158.308C450.662 157.315 450.817 156.47 451.125 155.772C451.434 155.074 451.863 154.544 452.413 154.182C452.963 153.807 453.587 153.619 454.285 153.619C455.009 153.619 455.64 153.807 456.176 154.182C456.726 154.544 457.156 155.074 457.464 155.772C457.773 156.47 457.927 157.315 457.927 158.308C457.927 159.3 457.773 160.152 457.464 160.863C457.156 161.574 456.726 162.118 456.176 162.493C455.64 162.869 455.009 163.057 454.285 163.057ZM454.285 161.387C454.714 161.387 455.076 161.152 455.371 160.682C455.68 160.199 455.834 159.408 455.834 158.308C455.834 157.221 455.68 156.45 455.371 155.993C455.076 155.524 454.714 155.289 454.285 155.289C453.855 155.289 453.486 155.524 453.178 155.993C452.883 156.45 452.735 157.221 452.735 158.308C452.735 159.408 452.883 160.199 453.178 160.682C453.486 161.152 453.855 161.387 454.285 161.387ZM454.768 169.074L462.877 153.619H464.628L456.538 169.074H454.768ZM465.131 169.074C464.42 169.074 463.79 168.886 463.24 168.51C462.703 168.135 462.274 167.591 461.952 166.88C461.643 166.169 461.489 165.317 461.489 164.325C461.489 163.318 461.643 162.467 461.952 161.769C462.274 161.071 462.703 160.541 463.24 160.179C463.79 159.803 464.42 159.616 465.131 159.616C465.829 159.616 466.446 159.803 466.983 160.179C467.533 160.541 467.962 161.071 468.271 161.769C468.593 162.467 468.754 163.318 468.754 164.325C468.754 165.317 468.593 166.169 468.271 166.88C467.962 167.591 467.533 168.135 466.983 168.51C466.446 168.886 465.829 169.074 465.131 169.074ZM465.131 167.383C465.561 167.383 465.923 167.149 466.218 166.679C466.513 166.196 466.661 165.411 466.661 164.325C466.661 163.211 466.513 162.433 466.218 161.99C465.923 161.534 465.561 161.306 465.131 161.306C464.689 161.306 464.32 161.534 464.024 161.99C463.729 162.433 463.582 163.211 463.582 164.325C463.582 165.411 463.729 166.196 464.024 166.679C464.32 167.149 464.689 167.383 465.131 167.383Z" fill="white"/>
<path d="M453.789 385L456.224 385.705C455.459 387.502 454.46 389.025 453.226 390.273C451.991 391.521 450.549 392.554 448.899 393.372C447.249 394.177 445.424 394.828 443.425 395.324C443.331 395.136 443.197 394.908 443.023 394.64C442.848 394.371 442.667 394.103 442.479 393.835C442.292 393.566 442.117 393.345 441.956 393.171C443.915 392.795 445.672 392.265 447.229 391.581C448.785 390.897 450.12 390.018 451.233 388.945C452.347 387.871 453.199 386.557 453.789 385ZM447.027 381.519L449.402 382.425C448.933 383.015 448.389 383.598 447.772 384.175C447.168 384.752 446.538 385.296 445.88 385.805C445.236 386.315 444.619 386.758 444.029 387.134C443.881 386.973 443.694 386.778 443.466 386.55C443.237 386.322 442.996 386.101 442.741 385.886C442.5 385.671 442.285 385.497 442.097 385.363C442.714 385.054 443.325 384.699 443.928 384.296C444.546 383.88 445.122 383.437 445.659 382.968C446.196 382.485 446.652 382.002 447.027 381.519ZM448.577 385.101C449.462 387.261 450.885 389.012 452.843 390.353C454.815 391.695 457.324 392.594 460.37 393.05C460.209 393.224 460.027 393.439 459.826 393.694C459.638 393.949 459.464 394.21 459.303 394.479C459.142 394.76 459.008 395.009 458.9 395.223C456.754 394.821 454.882 394.21 453.286 393.392C451.703 392.574 450.348 391.534 449.221 390.273C448.107 388.998 447.168 387.496 446.404 385.765L448.577 385.101ZM442.258 378.983H460.007V381.338H442.258V378.983ZM453.065 382.767L454.956 381.398C455.547 381.801 456.17 382.25 456.828 382.747C457.499 383.243 458.129 383.746 458.719 384.256C459.31 384.752 459.793 385.215 460.168 385.644L458.096 387.234C457.774 386.818 457.331 386.349 456.767 385.825C456.204 385.289 455.593 384.752 454.936 384.216C454.292 383.679 453.668 383.196 453.065 382.767ZM449.14 376.991L451.435 376.186C451.703 376.615 451.978 377.092 452.26 377.615C452.555 378.138 452.769 378.588 452.904 378.963L450.469 379.869C450.361 379.493 450.18 379.03 449.925 378.48C449.67 377.93 449.409 377.434 449.14 376.991ZM470.27 380.352L471.82 379.064C472.424 379.265 473.081 379.513 473.792 379.808C474.517 380.104 475.214 380.405 475.885 380.714C476.556 381.009 477.113 381.298 477.555 381.579L475.905 383.008C475.503 382.753 474.973 382.465 474.315 382.143C473.671 381.821 472.994 381.506 472.283 381.197C471.572 380.875 470.901 380.593 470.27 380.352ZM468.399 381.479H478.521V383.23H470.532V391.903H468.399V381.479ZM477.656 381.479H479.829V389.89C479.829 390.36 479.776 390.729 479.668 390.997C479.561 391.252 479.346 391.46 479.024 391.621C478.729 391.769 478.36 391.856 477.918 391.883C477.488 391.91 476.972 391.923 476.368 391.923C476.341 391.655 476.267 391.353 476.147 391.017C476.039 390.682 475.925 390.387 475.805 390.132C476.126 390.145 476.435 390.152 476.73 390.152C477.039 390.152 477.247 390.152 477.354 390.152C477.475 390.152 477.555 390.132 477.596 390.092C477.636 390.051 477.656 389.978 477.656 389.87V381.479ZM468.64 377.112H478.219V378.883H468.64V377.112ZM469.707 384.316H478.36V386.007H469.707V384.316ZM469.707 387.134H478.36V388.884H469.707V387.134ZM473.007 382.304H475.06V391.822H473.007V382.304ZM477.354 377.112H477.918L478.38 376.991L479.809 378.138C479.34 378.581 478.81 379.03 478.219 379.486C477.642 379.943 477.039 380.372 476.408 380.774C475.778 381.163 475.154 381.506 474.537 381.801C474.403 381.599 474.208 381.365 473.953 381.096C473.712 380.828 473.51 380.613 473.349 380.452C473.859 380.211 474.369 379.922 474.879 379.587C475.402 379.238 475.878 378.883 476.308 378.521C476.75 378.158 477.099 377.83 477.354 377.534V377.112ZM462.563 377.534L464.354 376.428C464.676 376.75 465.005 377.092 465.34 377.454C465.676 377.816 465.991 378.172 466.286 378.521C466.595 378.869 466.843 379.185 467.031 379.466L465.199 380.795C465.025 380.499 464.783 380.164 464.475 379.788C464.18 379.413 463.864 379.03 463.529 378.641C463.194 378.239 462.872 377.87 462.563 377.534ZM462.06 381.137H466.326V383.048H462.06V381.137ZM466.145 389.87C466.507 390.769 467.004 391.44 467.634 391.883C468.278 392.312 469.063 392.594 469.989 392.728C470.928 392.849 472.008 392.916 473.229 392.929C473.94 392.929 474.751 392.916 475.664 392.889C476.576 392.862 477.495 392.822 478.421 392.768C479.36 392.715 480.212 392.654 480.976 392.587C480.869 392.748 480.762 392.963 480.654 393.231C480.547 393.499 480.453 393.774 480.373 394.056C480.306 394.338 480.245 394.593 480.191 394.821C479.507 394.861 478.769 394.895 477.978 394.921C477.2 394.962 476.402 394.982 475.583 394.982C474.765 394.995 473.96 395.002 473.168 395.002C472.001 395.002 470.961 394.948 470.049 394.841C469.137 394.734 468.332 394.526 467.634 394.217C466.95 393.909 466.353 393.459 465.843 392.869C465.333 392.279 464.891 391.5 464.515 390.534L466.145 389.87ZM465.642 386.027H466.226L466.608 385.966L467.755 386.389C467.42 388.616 466.849 390.474 466.044 391.963C465.239 393.452 464.253 394.579 463.086 395.344C462.992 395.196 462.851 395.015 462.664 394.801C462.476 394.599 462.281 394.398 462.08 394.197C461.879 393.996 461.698 393.841 461.537 393.734C462.623 393.077 463.516 392.131 464.213 390.897C464.924 389.662 465.4 388.16 465.642 386.389V386.027ZM462.422 388.2V386.469L463.287 386.027H466.326L466.306 387.898H463.67C463.428 387.898 463.18 387.925 462.925 387.979C462.684 388.032 462.516 388.106 462.422 388.2ZM462.422 388.2C462.382 388.026 462.315 387.818 462.221 387.576C462.127 387.321 462.026 387.073 461.919 386.832C461.812 386.577 461.725 386.382 461.657 386.248C461.818 386.208 461.986 386.141 462.161 386.047C462.335 385.953 462.516 385.805 462.704 385.604C462.851 385.457 463.059 385.208 463.328 384.86C463.596 384.511 463.884 384.122 464.193 383.692C464.515 383.25 464.817 382.82 465.099 382.404C465.394 381.989 465.629 381.64 465.803 381.358V381.277L466.407 381.036L467.876 381.7C467.648 382.035 467.373 382.438 467.051 382.908C466.729 383.364 466.387 383.833 466.024 384.316C465.676 384.799 465.327 385.269 464.978 385.725C464.642 386.181 464.334 386.57 464.052 386.892C464.052 386.892 463.972 386.932 463.811 387.013C463.65 387.093 463.455 387.207 463.227 387.355C463.012 387.489 462.825 387.63 462.664 387.777C462.503 387.925 462.422 388.066 462.422 388.2Z" fill="white"/>
<path d="M455.74 422.41V419.995H458.959V410.597H456.243V408.745C456.994 408.611 457.638 408.45 458.175 408.262C458.725 408.061 459.235 407.806 459.704 407.498H461.898V419.995H464.695V422.41H455.74ZM471.534 422.691C470.742 422.691 470.038 422.597 469.421 422.41C468.804 422.222 468.254 421.973 467.771 421.665C467.288 421.356 466.858 421.021 466.483 420.659L467.851 418.767C468.133 419.049 468.435 419.304 468.757 419.532C469.092 419.76 469.454 419.941 469.843 420.075C470.246 420.209 470.675 420.276 471.131 420.276C471.641 420.276 472.09 420.169 472.48 419.954C472.882 419.74 473.197 419.431 473.425 419.029C473.653 418.613 473.767 418.116 473.767 417.54C473.767 416.681 473.533 416.017 473.063 415.547C472.607 415.078 472.003 414.843 471.252 414.843C470.823 414.843 470.454 414.903 470.145 415.024C469.837 415.131 469.461 415.326 469.018 415.608L467.67 414.742L468.072 407.498H476.041V409.993H470.628L470.346 413.153C470.642 413.018 470.93 412.918 471.212 412.851C471.493 412.784 471.802 412.75 472.137 412.75C472.969 412.75 473.734 412.918 474.432 413.253C475.129 413.575 475.686 414.085 476.102 414.783C476.518 415.48 476.726 416.372 476.726 417.459C476.726 418.559 476.477 419.505 475.981 420.297C475.498 421.075 474.861 421.672 474.069 422.088C473.291 422.49 472.446 422.691 471.534 422.691ZM482.096 416.674C481.398 416.674 480.774 416.486 480.224 416.111C479.674 415.735 479.245 415.192 478.936 414.481C478.628 413.77 478.473 412.918 478.473 411.925C478.473 410.932 478.628 410.087 478.936 409.389C479.245 408.692 479.674 408.162 480.224 407.8C480.774 407.424 481.398 407.236 482.096 407.236C482.82 407.236 483.451 407.424 483.987 407.8C484.537 408.162 484.967 408.692 485.275 409.389C485.584 410.087 485.738 410.932 485.738 411.925C485.738 412.918 485.584 413.77 485.275 414.481C484.967 415.192 484.537 415.735 483.987 416.111C483.451 416.486 482.82 416.674 482.096 416.674ZM482.096 415.004C482.525 415.004 482.887 414.769 483.182 414.3C483.491 413.817 483.645 413.025 483.645 411.925C483.645 410.838 483.491 410.067 483.182 409.611C482.887 409.141 482.525 408.906 482.096 408.906C481.666 408.906 481.297 409.141 480.989 409.611C480.694 410.067 480.546 410.838 480.546 411.925C480.546 413.025 480.694 413.817 480.989 414.3C481.297 414.769 481.666 415.004 482.096 415.004ZM482.579 422.691L490.688 407.236H492.439L484.349 422.691H482.579ZM492.942 422.691C492.231 422.691 491.601 422.503 491.051 422.128C490.514 421.752 490.085 421.209 489.763 420.498C489.454 419.787 489.3 418.935 489.3 417.942C489.3 416.936 489.454 416.084 489.763 415.386C490.085 414.689 490.514 414.159 491.051 413.797C491.601 413.421 492.231 413.233 492.942 413.233C493.64 413.233 494.257 413.421 494.794 413.797C495.344 414.159 495.773 414.689 496.082 415.386C496.404 416.084 496.565 416.936 496.565 417.942C496.565 418.935 496.404 419.787 496.082 420.498C495.773 421.209 495.344 421.752 494.794 422.128C494.257 422.503 493.64 422.691 492.942 422.691ZM492.942 421.001C493.372 421.001 493.734 420.766 494.029 420.297C494.324 419.814 494.472 419.029 494.472 417.942C494.472 416.829 494.324 416.05 494.029 415.608C493.734 415.152 493.372 414.923 492.942 414.923C492.5 414.923 492.131 415.152 491.836 415.608C491.54 416.05 491.393 416.829 491.393 417.942C491.393 419.029 491.54 419.814 491.836 420.297C492.131 420.766 492.5 421.001 492.942 421.001Z" fill="white"/>
<path d="M309.588 482.634H325.426V484.566H309.588V482.634ZM308.602 477.241H324.842V479.132H308.602V477.241ZM312.929 486.176H324.379V488.067H312.929V486.176ZM312.728 489.094H323.776V490.945H312.728V489.094ZM310.876 492.092H325.748V494.044H310.876V492.092ZM316.994 484.928H319.368V493.46H316.994V484.928ZM308.401 482.634H310.735V486.276C310.735 486.893 310.702 487.578 310.635 488.329C310.581 489.08 310.474 489.845 310.313 490.623C310.152 491.388 309.924 492.126 309.628 492.837C309.333 493.548 308.944 494.192 308.461 494.768C308.341 494.621 308.166 494.44 307.938 494.225C307.71 494.024 307.469 493.829 307.214 493.642C306.972 493.454 306.764 493.313 306.59 493.219C307.14 492.548 307.542 491.804 307.797 490.985C308.052 490.167 308.213 489.348 308.28 488.53C308.361 487.698 308.401 486.934 308.401 486.236V482.634ZM312.949 484.747L315.002 485.351C314.626 486.37 314.136 487.363 313.532 488.329C312.942 489.295 312.285 490.1 311.56 490.744C311.52 490.569 311.433 490.348 311.299 490.08C311.165 489.798 311.024 489.516 310.876 489.234C310.742 488.939 310.615 488.705 310.494 488.53C311.017 488.061 311.493 487.497 311.923 486.84C312.352 486.182 312.694 485.485 312.949 484.747ZM310.937 479.998L312.466 478.851C313.378 479.025 314.337 479.233 315.344 479.474C316.35 479.702 317.349 479.951 318.342 480.219C319.335 480.474 320.281 480.729 321.18 480.984C322.078 481.239 322.877 481.473 323.574 481.688L322.065 482.976C321.408 482.734 320.636 482.48 319.751 482.211C318.865 481.93 317.919 481.661 316.913 481.406C315.921 481.138 314.908 480.883 313.875 480.642C312.855 480.4 311.876 480.185 310.937 479.998ZM321.28 478.77L322.89 479.756C322.125 480.118 321.273 480.46 320.334 480.782C319.409 481.104 318.429 481.406 317.396 481.688C316.377 481.956 315.357 482.205 314.337 482.433C313.331 482.647 312.372 482.835 311.46 482.996C311.285 482.808 311.064 482.587 310.796 482.332C310.541 482.064 310.313 481.856 310.111 481.708C311.064 481.561 312.063 481.386 313.11 481.185C314.156 480.984 315.183 480.756 316.189 480.501C317.208 480.232 318.161 479.957 319.046 479.676C319.932 479.38 320.676 479.079 321.28 478.77ZM314.861 476.194L316.491 475.409C316.799 475.745 317.108 476.134 317.416 476.577C317.725 477.006 317.946 477.388 318.08 477.724L316.37 478.629C316.236 478.294 316.021 477.898 315.726 477.442C315.444 476.986 315.156 476.57 314.861 476.194ZM327.478 487.947H345.429V489.939H327.478V487.947ZM327.539 478.931H345.368V480.823H327.539V478.931ZM328.364 482.594H344.584V484.425H328.364V482.594ZM329.35 485.33H343.658V487.061H329.35V485.33ZM335.186 483.479H337.58V494.547H335.186V483.479ZM333.475 475.611H335.729V479.877H333.475V475.611ZM337.198 475.611H339.492V479.736H337.198V475.611ZM341.847 475.792L344.362 476.395C344.04 476.946 343.718 477.482 343.396 478.005C343.074 478.515 342.779 478.951 342.511 479.313L340.559 478.71C340.72 478.441 340.881 478.14 341.042 477.804C341.203 477.455 341.35 477.106 341.484 476.758C341.632 476.395 341.753 476.073 341.847 475.792ZM339.371 480.662L341.927 481.306C341.632 481.654 341.344 481.97 341.062 482.251C340.794 482.52 340.539 482.761 340.297 482.976L338.245 482.372C338.446 482.117 338.647 481.829 338.848 481.507C339.063 481.185 339.237 480.903 339.371 480.662ZM329.008 476.436L331.08 475.731C331.376 476.147 331.671 476.63 331.966 477.18C332.261 477.717 332.476 478.18 332.61 478.569L330.416 479.374C330.309 478.971 330.115 478.495 329.833 477.945C329.564 477.395 329.289 476.892 329.008 476.436ZM331.342 481.125L333.616 480.621C333.79 480.876 333.965 481.165 334.139 481.487C334.327 481.809 334.468 482.097 334.562 482.352L332.187 482.916C332.12 482.674 331.999 482.386 331.825 482.05C331.664 481.701 331.503 481.393 331.342 481.125ZM332.992 490.603L334.703 491.388C334.26 491.763 333.703 492.126 333.032 492.474C332.375 492.823 331.684 493.132 330.96 493.4C330.235 493.682 329.524 493.903 328.827 494.064C328.679 493.809 328.464 493.507 328.183 493.159C327.901 492.81 327.639 492.535 327.398 492.334C328.069 492.226 328.76 492.085 329.471 491.911C330.182 491.737 330.846 491.535 331.463 491.307C332.08 491.079 332.59 490.844 332.992 490.603ZM338.446 491.609L340.056 490.462C340.606 490.677 341.209 490.918 341.867 491.186C342.538 491.455 343.182 491.73 343.799 492.012C344.429 492.28 344.959 492.528 345.388 492.756L343.678 494.064C343.289 493.85 342.793 493.595 342.189 493.299C341.585 493.004 340.948 492.709 340.277 492.414C339.62 492.119 339.009 491.851 338.446 491.609Z" fill="white"/>
<path d="M319.639 521.613V519.198H322.858V509.8H320.142V507.949C320.893 507.815 321.537 507.654 322.074 507.466C322.624 507.265 323.133 507.01 323.603 506.701H325.796V519.198H328.594V521.613H319.639ZM331.509 521.613V519.198H334.728V509.8H332.012V507.949C332.763 507.815 333.407 507.654 333.943 507.466C334.494 507.265 335.003 507.01 335.473 506.701H337.666V519.198H340.464V521.613H331.509ZM345.995 515.878C345.297 515.878 344.673 515.69 344.123 515.314C343.573 514.938 343.144 514.395 342.835 513.684C342.527 512.973 342.372 512.121 342.372 511.128C342.372 510.136 342.527 509.29 342.835 508.593C343.144 507.895 343.573 507.365 344.123 507.003C344.673 506.627 345.297 506.439 345.995 506.439C346.719 506.439 347.35 506.627 347.886 507.003C348.436 507.365 348.866 507.895 349.174 508.593C349.483 509.29 349.637 510.136 349.637 511.128C349.637 512.121 349.483 512.973 349.174 513.684C348.866 514.395 348.436 514.938 347.886 515.314C347.35 515.69 346.719 515.878 345.995 515.878ZM345.995 514.207C346.424 514.207 346.786 513.972 347.081 513.503C347.39 513.02 347.544 512.228 347.544 511.128C347.544 510.042 347.39 509.27 347.081 508.814C346.786 508.345 346.424 508.11 345.995 508.11C345.565 508.11 345.196 508.345 344.888 508.814C344.593 509.27 344.445 510.042 344.445 511.128C344.445 512.228 344.593 513.02 344.888 513.503C345.196 513.972 345.565 514.207 345.995 514.207ZM346.477 521.895L354.587 506.439H356.338L348.248 521.895H346.477ZM356.841 521.895C356.13 521.895 355.5 521.707 354.95 521.331C354.413 520.955 353.984 520.412 353.662 519.701C353.353 518.99 353.199 518.138 353.199 517.145C353.199 516.139 353.353 515.287 353.662 514.59C353.984 513.892 354.413 513.362 354.95 513C355.5 512.624 356.13 512.436 356.841 512.436C357.539 512.436 358.156 512.624 358.693 513C359.243 513.362 359.672 513.892 359.981 514.59C360.303 515.287 360.464 516.139 360.464 517.145C360.464 518.138 360.303 518.99 359.981 519.701C359.672 520.412 359.243 520.955 358.693 521.331C358.156 521.707 357.539 521.895 356.841 521.895ZM356.841 520.204C357.271 520.204 357.633 519.969 357.928 519.5C358.223 519.017 358.371 518.232 358.371 517.145C358.371 516.032 358.223 515.254 357.928 514.811C357.633 514.355 357.271 514.127 356.841 514.127C356.399 514.127 356.03 514.355 355.734 514.811C355.439 515.254 355.292 516.032 355.292 517.145C355.292 518.232 355.439 519.017 355.734 519.5C356.03 519.969 356.399 520.204 356.841 520.204Z" fill="white"/>
<path d="M162.949 461.914H180.738V464.289H162.949V461.914ZM167.437 475.9H178.565V478.214H167.437V475.9ZM166.451 468.716H179.591V479.361H177.016V471.03H168.886V479.442H166.451V468.716ZM168.584 463.222L171.16 463.866C170.677 465.221 170.08 466.576 169.369 467.931C168.657 469.286 167.832 470.554 166.893 471.734C165.968 472.902 164.914 473.908 163.734 474.753C163.6 474.565 163.425 474.357 163.211 474.129C163.009 473.888 162.801 473.66 162.587 473.445C162.386 473.217 162.198 473.029 162.023 472.881C163.11 472.144 164.076 471.245 164.921 470.185C165.78 469.112 166.518 467.971 167.135 466.764C167.752 465.556 168.235 464.376 168.584 463.222ZM191.364 460.908H193.678V475.437C193.678 475.826 193.705 476.121 193.759 476.323C193.812 476.524 193.92 476.658 194.081 476.725C194.255 476.792 194.496 476.826 194.805 476.826C194.926 476.826 195.114 476.826 195.368 476.826C195.637 476.826 195.932 476.826 196.254 476.826C196.576 476.826 196.871 476.826 197.139 476.826C197.421 476.826 197.622 476.826 197.743 476.826C198.092 476.826 198.354 476.712 198.528 476.484C198.716 476.256 198.85 475.84 198.93 475.236C199.011 474.632 199.078 473.767 199.132 472.64C199.413 472.855 199.762 473.063 200.178 473.264C200.594 473.452 200.956 473.579 201.265 473.646C201.184 474.947 201.037 475.987 200.822 476.765C200.621 477.543 200.292 478.1 199.836 478.436C199.393 478.784 198.763 478.959 197.944 478.959C197.824 478.959 197.649 478.959 197.421 478.959C197.206 478.959 196.952 478.959 196.656 478.959C196.375 478.959 196.093 478.959 195.811 478.959C195.529 478.959 195.275 478.959 195.047 478.959C194.818 478.959 194.657 478.959 194.564 478.959C193.732 478.959 193.081 478.851 192.612 478.637C192.142 478.436 191.813 478.073 191.625 477.55C191.451 477.027 191.364 476.309 191.364 475.397V460.908ZM187.54 460.606L189.774 461.371C189.305 462.511 188.741 463.651 188.084 464.792C187.426 465.932 186.715 467.012 185.951 468.032C185.186 469.038 184.401 469.917 183.596 470.668C183.516 470.467 183.402 470.212 183.254 469.903C183.106 469.581 182.945 469.259 182.771 468.937C182.597 468.615 182.442 468.354 182.308 468.152C183.006 467.549 183.677 466.851 184.321 466.059C184.964 465.255 185.561 464.389 186.112 463.463C186.675 462.524 187.151 461.572 187.54 460.606ZM185.528 466.08L187.822 463.785V463.806V479.422H185.528V466.08ZM192.773 466.059H200.742V468.374H192.773V466.059ZM206.195 464.188H220.201V466.542H206.195V464.188ZM205.35 470.104H219.416V472.439H205.35V470.104ZM203.036 476.504H221.228V478.858H203.036V476.504ZM210.844 460.525H213.379V477.651H210.844V460.525ZM206.195 460.787L208.69 461.35C208.409 462.384 208.06 463.403 207.644 464.409C207.228 465.415 206.779 466.355 206.296 467.227C205.813 468.085 205.31 468.837 204.786 469.481C204.625 469.333 204.411 469.172 204.142 468.998C203.888 468.81 203.619 468.629 203.338 468.454C203.056 468.28 202.814 468.139 202.613 468.032C203.15 467.468 203.639 466.797 204.082 466.019C204.538 465.241 204.941 464.403 205.29 463.504C205.652 462.605 205.954 461.699 206.195 460.787ZM225.494 467.528H241.331V469.46H225.494V467.528ZM224.508 462.135H240.748V464.027H224.508V462.135ZM228.834 471.07H240.285V472.962H228.834V471.07ZM228.633 473.988H239.681V475.84H228.633V473.988ZM226.782 476.987H241.653V478.939H226.782V476.987ZM232.899 469.823H235.274V478.355H232.899V469.823ZM224.307 467.528H226.641V471.171C226.641 471.788 226.607 472.472 226.54 473.224C226.487 473.975 226.379 474.74 226.218 475.518C226.057 476.282 225.829 477.02 225.534 477.731C225.239 478.442 224.85 479.086 224.367 479.663C224.246 479.516 224.072 479.334 223.844 479.12C223.616 478.919 223.374 478.724 223.119 478.536C222.878 478.348 222.67 478.208 222.495 478.114C223.045 477.443 223.448 476.698 223.703 475.88C223.958 475.062 224.119 474.243 224.186 473.425C224.266 472.593 224.307 471.828 224.307 471.131V467.528ZM228.855 469.641L230.907 470.245C230.531 471.265 230.042 472.258 229.438 473.224C228.848 474.189 228.19 474.994 227.466 475.638C227.426 475.464 227.339 475.243 227.204 474.974C227.07 474.693 226.929 474.411 226.782 474.129C226.648 473.834 226.52 473.599 226.399 473.425C226.923 472.955 227.399 472.392 227.828 471.734C228.258 471.077 228.6 470.379 228.855 469.641ZM226.842 464.892L228.372 463.745C229.284 463.92 230.243 464.128 231.249 464.369C232.255 464.597 233.255 464.845 234.248 465.114C235.24 465.369 236.186 465.623 237.085 465.878C237.984 466.133 238.782 466.368 239.48 466.583L237.971 467.871C237.313 467.629 236.542 467.374 235.656 467.106C234.771 466.824 233.825 466.556 232.819 466.301C231.826 466.033 230.813 465.778 229.78 465.536C228.761 465.295 227.781 465.08 226.842 464.892ZM237.186 463.665L238.796 464.651C238.031 465.013 237.179 465.355 236.24 465.677C235.314 465.999 234.335 466.301 233.302 466.583C232.282 466.851 231.263 467.099 230.243 467.327C229.237 467.542 228.278 467.73 227.365 467.891C227.191 467.703 226.97 467.482 226.701 467.227C226.446 466.958 226.218 466.75 226.017 466.603C226.97 466.455 227.969 466.281 229.015 466.08C230.062 465.878 231.088 465.65 232.094 465.395C233.114 465.127 234.067 464.852 234.952 464.57C235.837 464.275 236.582 463.973 237.186 463.665ZM230.766 461.089L232.396 460.304C232.705 460.639 233.013 461.029 233.322 461.471C233.631 461.901 233.852 462.283 233.986 462.618L232.276 463.524C232.141 463.188 231.927 462.793 231.632 462.337C231.35 461.88 231.061 461.465 230.766 461.089Z" fill="white"/>
<path d="M177.06 506.507V504.092H180.28V494.695H177.563V492.843C178.314 492.709 178.958 492.548 179.495 492.36C180.045 492.159 180.555 491.904 181.024 491.596H183.218V504.092H186.015V506.507H177.06ZM193.216 506.789C192.21 506.789 191.325 506.501 190.56 505.924C189.809 505.333 189.218 504.461 188.789 503.308C188.373 502.14 188.165 500.698 188.165 498.981C188.165 497.277 188.373 495.862 188.789 494.735C189.218 493.595 189.809 492.743 190.56 492.179C191.325 491.616 192.21 491.334 193.216 491.334C194.236 491.334 195.121 491.622 195.873 492.199C196.624 492.763 197.207 493.608 197.623 494.735C198.053 495.862 198.267 497.277 198.267 498.981C198.267 500.698 198.053 502.14 197.623 503.308C197.207 504.461 196.624 505.333 195.873 505.924C195.121 506.501 194.236 506.789 193.216 506.789ZM193.216 504.475C193.659 504.475 194.048 504.307 194.383 503.972C194.719 503.636 194.98 503.073 195.168 502.281C195.356 501.476 195.45 500.376 195.45 498.981C195.45 497.599 195.356 496.519 195.168 495.741C194.98 494.95 194.719 494.399 194.383 494.091C194.048 493.769 193.659 493.608 193.216 493.608C192.8 493.608 192.418 493.769 192.069 494.091C191.734 494.399 191.466 494.95 191.264 495.741C191.063 496.519 190.962 497.599 190.962 498.981C190.962 500.376 191.063 501.476 191.264 502.281C191.466 503.073 191.734 503.636 192.069 503.972C192.418 504.307 192.8 504.475 193.216 504.475ZM203.416 500.772C202.718 500.772 202.094 500.584 201.544 500.209C200.994 499.833 200.565 499.29 200.256 498.579C199.948 497.867 199.794 497.016 199.794 496.023C199.794 495.03 199.948 494.185 200.256 493.487C200.565 492.79 200.994 492.26 201.544 491.897C202.094 491.522 202.718 491.334 203.416 491.334C204.14 491.334 204.771 491.522 205.308 491.897C205.858 492.26 206.287 492.79 206.595 493.487C206.904 494.185 207.058 495.03 207.058 496.023C207.058 497.016 206.904 497.867 206.595 498.579C206.287 499.29 205.858 499.833 205.308 500.209C204.771 500.584 204.14 500.772 203.416 500.772ZM203.416 499.102C203.845 499.102 204.207 498.867 204.503 498.397C204.811 497.914 204.965 497.123 204.965 496.023C204.965 494.936 204.811 494.165 204.503 493.709C204.207 493.239 203.845 493.004 203.416 493.004C202.987 493.004 202.618 493.239 202.309 493.709C202.014 494.165 201.866 494.936 201.866 496.023C201.866 497.123 202.014 497.914 202.309 498.397C202.618 498.867 202.987 499.102 203.416 499.102ZM203.899 506.789L212.009 491.334H213.76L205.67 506.789H203.899ZM214.263 506.789C213.552 506.789 212.921 506.601 212.371 506.226C211.834 505.85 211.405 505.307 211.083 504.596C210.775 503.885 210.62 503.033 210.62 502.04C210.62 501.034 210.775 500.182 211.083 499.484C211.405 498.786 211.834 498.257 212.371 497.894C212.921 497.519 213.552 497.331 214.263 497.331C214.96 497.331 215.577 497.519 216.114 497.894C216.664 498.257 217.093 498.786 217.402 499.484C217.724 500.182 217.885 501.034 217.885 502.04C217.885 503.033 217.724 503.885 217.402 504.596C217.093 505.307 216.664 505.85 216.114 506.226C215.577 506.601 214.96 506.789 214.263 506.789ZM214.263 505.099C214.692 505.099 215.054 504.864 215.349 504.394C215.644 503.911 215.792 503.127 215.792 502.04C215.792 500.926 215.644 500.148 215.349 499.705C215.054 499.249 214.692 499.021 214.263 499.021C213.82 499.021 213.451 499.249 213.156 499.705C212.861 500.148 212.713 500.926 212.713 502.04C212.713 503.127 212.861 503.911 213.156 504.394C213.451 504.864 213.82 505.099 214.263 505.099Z" fill="white"/>
<path d="M98.0924 397.446H110.448V399.237H98.0924V397.446ZM98.9578 403.04H109.563V404.73H98.9578V403.04ZM98.1729 405.737H110.207V407.568H98.1729V405.737ZM102.58 393.179H104.874V408.936H102.58V393.179ZM99.1791 394.669H109.342V402.074H99.0785V400.243H107.209V396.48H99.1791V394.669ZM92.498 394.266H97.0661V396.379H92.498V394.266ZM94.1884 400.022H97.046V402.114H94.1281L94.1884 400.022ZM96.2008 400.022H96.6234L97.046 399.961L98.3943 400.283C98.126 403.288 97.5894 405.757 96.7844 407.689C95.9929 409.621 94.933 411.083 93.6048 412.076C93.4975 411.915 93.3365 411.727 93.1219 411.512C92.9072 411.311 92.6858 411.116 92.4578 410.929C92.2297 410.741 92.0352 410.593 91.8742 410.486C93.1353 409.627 94.1213 408.373 94.8324 406.723C95.5434 405.073 95.9996 402.973 96.2008 400.424V400.022ZM94.2689 403.261C94.658 404.603 95.1678 405.69 95.7983 406.521C96.4289 407.34 97.1668 407.97 98.012 408.413C98.8572 408.842 99.7963 409.138 100.829 409.299C101.862 409.446 102.976 409.52 104.17 409.52C104.398 409.52 104.727 409.52 105.156 409.52C105.599 409.52 106.088 409.52 106.625 409.52C107.162 409.52 107.705 409.52 108.255 409.52C108.805 409.507 109.308 409.5 109.764 409.5C110.234 409.486 110.609 409.48 110.891 409.48C110.784 409.641 110.67 409.855 110.549 410.124C110.442 410.379 110.341 410.64 110.247 410.908C110.153 411.19 110.08 411.445 110.026 411.673H108.959H104.089C102.654 411.673 101.332 411.573 100.125 411.371C98.9309 411.17 97.851 410.794 96.885 410.244C95.9191 409.694 95.0672 408.91 94.3293 407.89C93.6048 406.857 92.9944 405.515 92.498 403.865L94.2689 403.261ZM93.2024 403.02C93.1487 402.872 93.0615 402.685 92.9408 402.456C92.8334 402.215 92.7194 401.98 92.5986 401.752C92.4779 401.511 92.3639 401.316 92.2565 401.169C92.4712 401.115 92.706 400.961 92.9609 400.706C93.2292 400.451 93.464 400.156 93.6652 399.82C93.8128 399.592 94.0341 399.203 94.3293 398.653C94.6379 398.09 94.9598 397.439 95.2952 396.701C95.6441 395.95 95.9459 395.185 96.2008 394.407V394.306L97.046 393.964L98.4949 394.93C97.9449 396.245 97.3412 397.506 96.6838 398.713C96.0264 399.921 95.3959 400.961 94.7921 401.833V401.873C94.7921 401.873 94.7116 401.913 94.5507 401.994C94.3897 402.061 94.2018 402.155 93.9872 402.275C93.7725 402.396 93.5847 402.524 93.4237 402.658C93.2761 402.792 93.2024 402.913 93.2024 403.02ZM112.783 398.512H119.866V400.182H112.783V398.512ZM115.278 399.015H117.472V403.181H115.278V399.015ZM112.582 402.939C113.507 402.846 114.607 402.725 115.882 402.577C117.17 402.416 118.471 402.255 119.786 402.094L119.866 403.905C118.632 404.08 117.398 404.248 116.164 404.408C114.929 404.569 113.823 404.717 112.843 404.851L112.582 402.939ZM122.422 398.874H124.414V400.686C124.414 401.222 124.334 401.766 124.173 402.316C124.012 402.852 123.703 403.355 123.247 403.825C122.791 404.294 122.134 404.704 121.275 405.052C121.168 404.918 121.02 404.764 120.832 404.59C120.645 404.402 120.443 404.227 120.229 404.066C120.027 403.892 119.853 403.758 119.705 403.664C120.484 403.382 121.067 403.08 121.456 402.758C121.845 402.436 122.1 402.094 122.221 401.732C122.355 401.356 122.422 400.987 122.422 400.625V398.874ZM125.823 398.412H128.077V402.235C128.077 402.41 128.077 402.544 128.077 402.638C128.09 402.732 128.11 402.799 128.137 402.839C128.164 402.906 128.231 402.939 128.339 402.939C128.379 402.939 128.426 402.939 128.479 402.939C128.546 402.939 128.6 402.939 128.64 402.939C128.694 402.939 128.741 402.933 128.781 402.919C128.822 402.906 128.862 402.886 128.902 402.859C128.929 402.832 128.956 402.792 128.982 402.738C129.009 402.685 129.029 402.597 129.043 402.477C129.07 402.369 129.083 402.188 129.083 401.933C129.097 401.678 129.11 401.39 129.123 401.068C129.311 401.229 129.553 401.39 129.848 401.551C130.156 401.698 130.438 401.819 130.693 401.913C130.68 402.289 130.646 402.664 130.592 403.04C130.539 403.402 130.485 403.671 130.431 403.845C130.284 404.207 130.056 404.469 129.747 404.63C129.613 404.697 129.445 404.751 129.244 404.791C129.043 404.818 128.855 404.831 128.681 404.831C128.533 404.831 128.359 404.831 128.157 404.831C127.97 404.831 127.809 404.831 127.674 404.831C127.433 404.831 127.185 404.791 126.93 404.71C126.688 404.63 126.48 404.509 126.306 404.348C126.132 404.174 126.004 403.952 125.924 403.684C125.857 403.402 125.823 402.939 125.823 402.295V398.412ZM112.421 405.596H130.733V407.487H112.421V405.596ZM120.37 404.429H122.724V412.056H120.37V404.429ZM120.128 401.652L120.973 400.303C121.483 400.504 122.046 400.746 122.664 401.028C123.281 401.309 123.871 401.584 124.435 401.853C125.011 402.121 125.488 402.363 125.863 402.577L125.018 404.147C124.656 403.919 124.186 403.657 123.609 403.362C123.046 403.067 122.456 402.772 121.839 402.477C121.235 402.168 120.665 401.893 120.128 401.652ZM120.53 398.412H126.568V399.981H120.53V398.412ZM114.996 394.246H121.315V396.057H114.996V394.246ZM123.267 394.246H130.854V396.057H123.267V394.246ZM115.097 392.978L117.23 393.642C116.814 394.487 116.284 395.319 115.64 396.138C114.996 396.943 114.346 397.62 113.688 398.17C113.581 398.023 113.427 397.848 113.226 397.647C113.038 397.432 112.836 397.224 112.622 397.023C112.421 396.808 112.239 396.634 112.078 396.5C112.682 396.071 113.252 395.547 113.789 394.93C114.339 394.3 114.775 393.649 115.097 392.978ZM123.348 392.978L125.561 393.562C125.213 394.447 124.756 395.306 124.193 396.138C123.63 396.956 123.046 397.633 122.442 398.17C122.308 398.036 122.127 397.882 121.899 397.707C121.684 397.533 121.463 397.358 121.235 397.184C121.007 396.996 120.812 396.849 120.651 396.741C121.228 396.285 121.758 395.728 122.241 395.071C122.724 394.4 123.093 393.703 123.348 392.978ZM116.264 396.661L117.794 395.514C118.102 395.796 118.431 396.117 118.78 396.48C119.129 396.842 119.397 397.164 119.585 397.446L117.975 398.734C117.8 398.452 117.545 398.116 117.21 397.727C116.888 397.325 116.573 396.969 116.264 396.661ZM125.038 396.58L126.709 395.474C127.004 395.728 127.312 396.024 127.634 396.359C127.956 396.681 128.204 396.976 128.379 397.244L126.648 398.452C126.487 398.197 126.252 397.895 125.944 397.546C125.635 397.184 125.333 396.862 125.038 396.58ZM117.572 407.608L119.544 408.353C119.129 408.876 118.625 409.366 118.035 409.822C117.445 410.278 116.801 410.68 116.103 411.029C115.406 411.378 114.688 411.66 113.95 411.874C113.843 411.673 113.695 411.445 113.507 411.19C113.333 410.949 113.145 410.714 112.944 410.486C112.743 410.258 112.555 410.057 112.38 409.882C113.065 409.748 113.729 409.574 114.373 409.359C115.03 409.131 115.634 408.869 116.184 408.574C116.747 408.279 117.21 407.957 117.572 407.608ZM123.69 408.936L125.34 407.467C125.904 407.682 126.507 407.944 127.151 408.252C127.809 408.561 128.439 408.869 129.043 409.178C129.647 409.486 130.156 409.782 130.572 410.063L128.801 411.713C128.439 411.445 127.963 411.143 127.373 410.808C126.796 410.472 126.179 410.137 125.521 409.802C124.877 409.466 124.267 409.178 123.69 408.936Z" fill="white"/>
<path d="M111.942 439.423C111.245 439.423 110.567 439.275 109.91 438.98C109.266 438.685 108.696 438.236 108.199 437.632C107.703 437.015 107.307 436.237 107.012 435.298C106.73 434.345 106.589 433.211 106.589 431.897C106.589 430.515 106.744 429.321 107.052 428.315C107.374 427.308 107.803 426.49 108.34 425.859C108.877 425.215 109.487 424.739 110.171 424.431C110.869 424.122 111.6 423.968 112.365 423.968C113.277 423.968 114.062 424.136 114.719 424.471C115.39 424.793 115.947 425.189 116.39 425.658L114.82 427.429C114.565 427.134 114.23 426.879 113.814 426.664C113.398 426.45 112.975 426.342 112.546 426.342C111.942 426.342 111.392 426.517 110.896 426.866C110.413 427.214 110.024 427.791 109.729 428.596C109.433 429.401 109.286 430.501 109.286 431.897C109.286 433.185 109.4 434.218 109.628 434.996C109.869 435.76 110.185 436.317 110.574 436.666C110.963 437.015 111.399 437.189 111.882 437.189C112.257 437.189 112.593 437.089 112.888 436.887C113.197 436.673 113.445 436.364 113.633 435.962C113.82 435.546 113.914 435.036 113.914 434.432C113.914 433.842 113.82 433.359 113.633 432.983C113.458 432.608 113.21 432.326 112.888 432.138C112.579 431.95 112.211 431.856 111.781 431.856C111.379 431.856 110.956 431.984 110.513 432.239C110.071 432.48 109.662 432.91 109.286 433.527L109.145 431.534C109.413 431.159 109.729 430.837 110.091 430.568C110.466 430.3 110.849 430.099 111.238 429.965C111.64 429.831 112.003 429.763 112.325 429.763C113.156 429.763 113.894 429.931 114.538 430.267C115.196 430.602 115.705 431.112 116.068 431.796C116.43 432.48 116.611 433.359 116.611 434.432C116.611 435.452 116.396 436.337 115.967 437.089C115.551 437.826 114.988 438.403 114.277 438.819C113.566 439.222 112.787 439.423 111.942 439.423ZM121.719 433.406C121.022 433.406 120.398 433.218 119.848 432.842C119.298 432.467 118.868 431.923 118.56 431.212C118.251 430.501 118.097 429.649 118.097 428.657C118.097 427.664 118.251 426.819 118.56 426.121C118.868 425.423 119.298 424.894 119.848 424.531C120.398 424.156 121.022 423.968 121.719 423.968C122.444 423.968 123.074 424.156 123.611 424.531C124.161 424.894 124.59 425.423 124.899 426.121C125.207 426.819 125.362 427.664 125.362 428.657C125.362 429.649 125.207 430.501 124.899 431.212C124.59 431.923 124.161 432.467 123.611 432.842C123.074 433.218 122.444 433.406 121.719 433.406ZM121.719 431.736C122.149 431.736 122.511 431.501 122.806 431.031C123.114 430.548 123.269 429.757 123.269 428.657C123.269 427.57 123.114 426.799 122.806 426.342C122.511 425.873 122.149 425.638 121.719 425.638C121.29 425.638 120.921 425.873 120.612 426.342C120.317 426.799 120.17 427.57 120.17 428.657C120.17 429.757 120.317 430.548 120.612 431.031C120.921 431.501 121.29 431.736 121.719 431.736ZM122.202 439.423L130.312 423.968H132.063L123.973 439.423H122.202ZM132.566 439.423C131.855 439.423 131.224 439.235 130.674 438.859C130.138 438.484 129.708 437.94 129.386 437.229C129.078 436.518 128.924 435.666 128.924 434.674C128.924 433.667 129.078 432.816 129.386 432.118C129.708 431.42 130.138 430.89 130.674 430.528C131.224 430.153 131.855 429.965 132.566 429.965C133.264 429.965 133.881 430.153 134.417 430.528C134.967 430.89 135.397 431.42 135.705 432.118C136.027 432.816 136.188 433.667 136.188 434.674C136.188 435.666 136.027 436.518 135.705 437.229C135.397 437.94 134.967 438.484 134.417 438.859C133.881 439.235 133.264 439.423 132.566 439.423ZM132.566 437.733C132.995 437.733 133.358 437.498 133.653 437.028C133.948 436.545 134.095 435.76 134.095 434.674C134.095 433.56 133.948 432.782 133.653 432.339C133.358 431.883 132.995 431.655 132.566 431.655C132.123 431.655 131.754 431.883 131.459 432.339C131.164 432.782 131.016 433.56 131.016 434.674C131.016 435.76 131.164 436.545 131.459 437.028C131.754 437.498 132.123 437.733 132.566 437.733Z" fill="white"/>
<path d="M52.3407 246.524V247.329H62.9057V246.524H52.3407ZM52.3407 244.35V245.135H62.9057V244.35H52.3407ZM50.1271 242.861H65.2199V248.798H50.1271V242.861ZM54.2323 241.633H56.5868V248.415H54.2323V241.633ZM58.5187 241.633H60.9134V248.415H58.5187V241.633ZM51.1735 249.421H66.0048V251.132H51.1735V249.421ZM49.9862 249.421H52.2803V252.058C52.2803 252.688 52.2535 253.372 52.1998 254.11C52.1462 254.848 52.0388 255.599 51.8779 256.364C51.7169 257.129 51.4888 257.873 51.1936 258.598C50.9119 259.309 50.5363 259.96 50.0667 260.55C49.9191 260.429 49.7179 260.288 49.463 260.127C49.2215 259.98 48.9666 259.832 48.6983 259.685C48.4434 259.537 48.222 259.423 48.0342 259.342C48.6245 258.618 49.0605 257.826 49.3423 256.968C49.624 256.096 49.7984 255.23 49.8655 254.372C49.946 253.513 49.9862 252.735 49.9862 252.037V249.421ZM51.6364 251.756H65.2401V253.245H51.6364V251.756ZM50.9723 253.949H66.5481V255.64H50.9723V253.949ZM64.3345 255.137L66.0048 256.565C65.5352 256.767 65.0589 256.961 64.576 257.149C64.093 257.323 63.6235 257.491 63.1673 257.652C62.7112 257.8 62.2819 257.927 61.8794 258.034L60.7525 256.907C61.1281 256.773 61.5306 256.606 61.9599 256.404C62.4026 256.19 62.8319 255.975 63.2478 255.76C63.6771 255.532 64.0393 255.324 64.3345 255.137ZM58.8608 254.452C59.2633 255.271 59.8268 255.968 60.5512 256.545C61.2891 257.109 62.1947 257.558 63.2679 257.894C64.3546 258.229 65.5889 258.457 66.9707 258.578C66.7561 258.792 66.5213 259.088 66.2664 259.463C66.0249 259.839 65.8438 260.174 65.723 260.469C64.207 260.268 62.8856 259.933 61.7586 259.463C60.6317 259.007 59.6725 258.403 58.8809 257.652C58.0894 256.887 57.4454 255.955 56.9491 254.855L58.8608 254.452ZM53.1457 260.691L53.0652 259.041L53.8701 258.376L58.5992 257.471C58.5724 257.753 58.559 258.081 58.559 258.457C58.559 258.819 58.5657 259.114 58.5791 259.342C57.4924 259.57 56.6137 259.758 55.9429 259.906C55.2855 260.053 54.769 260.174 54.3933 260.268C54.0177 260.362 53.7427 260.436 53.5683 260.489C53.3938 260.557 53.253 260.624 53.1457 260.691ZM53.1457 260.691C53.1188 260.503 53.0652 260.288 52.9847 260.047C52.9176 259.805 52.8304 259.564 52.7231 259.322C52.6291 259.094 52.5419 258.92 52.4614 258.799C52.6493 258.692 52.8304 258.537 53.0048 258.336C53.1926 258.122 53.2865 257.8 53.2865 257.37V254.513L55.5404 254.593V258.799C55.5404 258.799 55.4599 258.839 55.2989 258.92C55.1513 259 54.9568 259.101 54.7153 259.222C54.4738 259.356 54.2323 259.51 53.9909 259.685C53.7494 259.859 53.5481 260.027 53.3871 260.188C53.2261 260.362 53.1457 260.53 53.1457 260.691ZM77.2942 245.819H86.6116V248.093H77.2942V245.819ZM80.6147 241.613H83.0496V260.51H80.6147V241.613ZM80.5945 246.906L82.3453 247.51C82.077 248.462 81.7617 249.421 81.3995 250.387C81.0507 251.353 80.6482 252.292 80.1921 253.205C79.7493 254.104 79.2731 254.942 78.7633 255.72C78.2535 256.498 77.7101 257.169 77.1332 257.733C76.9991 257.384 76.7911 257.001 76.5094 256.585C76.2411 256.17 75.9929 255.814 75.7648 255.519C76.3015 255.023 76.8113 254.446 77.2942 253.788C77.7906 253.117 78.2468 252.406 78.6626 251.655C79.092 250.89 79.4676 250.106 79.7896 249.301C80.1116 248.496 80.3799 247.697 80.5945 246.906ZM83.1905 246.906C83.4722 247.952 83.821 249.005 84.2369 250.065C84.6528 251.112 85.1157 252.098 85.6255 253.024C86.1487 253.936 86.6853 254.714 87.2354 255.358C86.9537 255.573 86.6317 255.861 86.2694 256.223C85.9206 256.572 85.6389 256.907 85.4242 257.229C84.8876 256.465 84.3778 255.546 83.8948 254.472C83.4119 253.386 82.9758 252.232 82.5868 251.011C82.1977 249.79 81.869 248.576 81.6007 247.369L83.1905 246.906ZM68.4599 245.819H76.6704V248.093H68.4599V245.819ZM71.6596 241.613H74.014V260.51H71.6596V241.613ZM71.5187 247.308L73.0682 247.872C72.8804 248.704 72.6456 249.556 72.3639 250.428C72.0956 251.286 71.7937 252.131 71.4583 252.963C71.1229 253.795 70.754 254.566 70.3515 255.277C69.9624 255.988 69.5466 256.606 69.1038 257.129C68.9965 256.78 68.8154 256.384 68.5605 255.941C68.3056 255.485 68.0842 255.096 67.8964 254.774C68.2989 254.332 68.6812 253.822 69.0435 253.245C69.4057 252.655 69.7478 252.024 70.0698 251.353C70.3918 250.682 70.6735 250.005 70.915 249.321C71.1699 248.637 71.3711 247.966 71.5187 247.308ZM73.9939 248.395C74.1147 248.502 74.2824 248.677 74.497 248.918C74.7117 249.146 74.9464 249.408 75.2013 249.703C75.4563 249.985 75.7112 250.273 75.9661 250.568C76.221 250.864 76.449 251.125 76.6503 251.353C76.8515 251.581 76.9991 251.756 77.093 251.876L75.5837 253.969C75.4227 253.661 75.2215 253.312 74.98 252.923C74.7385 252.52 74.4769 252.118 74.1952 251.715C73.9134 251.3 73.6384 250.911 73.3701 250.548C73.1152 250.173 72.9005 249.864 72.7261 249.623L73.9939 248.395ZM88.7447 253.949H106.695V255.941H88.7447V253.949ZM88.805 244.934H106.635V246.825H88.805V244.934ZM89.6301 248.596H105.85V250.428H89.6301V248.596ZM90.6162 251.333H104.924V253.064H90.6162V251.333ZM96.4521 249.482H98.8468V260.55H96.4521V249.482ZM94.7416 241.613H96.9954V245.88H94.7416V241.613ZM98.4645 241.613H100.759V245.739H98.4645V241.613ZM103.113 241.794L105.629 242.398C105.307 242.948 104.985 243.485 104.663 244.008C104.341 244.518 104.045 244.954 103.777 245.316L101.825 244.712C101.986 244.444 102.147 244.142 102.308 243.807C102.469 243.458 102.617 243.109 102.751 242.76C102.898 242.398 103.019 242.076 103.113 241.794ZM100.638 246.664L103.194 247.308C102.898 247.657 102.61 247.972 102.328 248.254C102.06 248.523 101.805 248.764 101.564 248.979L99.5109 248.375C99.7122 248.12 99.9134 247.832 100.115 247.51C100.329 247.188 100.504 246.906 100.638 246.664ZM90.2741 242.438L92.3468 241.734C92.642 242.15 92.9371 242.633 93.2323 243.183C93.5274 243.72 93.7421 244.182 93.8762 244.572L91.6828 245.376C91.5754 244.974 91.3809 244.498 91.0992 243.948C90.8308 243.398 90.5558 242.895 90.2741 242.438ZM92.6084 247.127L94.8824 246.624C95.0568 246.879 95.2312 247.168 95.4057 247.489C95.5935 247.811 95.7343 248.1 95.8283 248.355L93.4536 248.918C93.3866 248.677 93.2658 248.388 93.0914 248.053C92.9304 247.704 92.7694 247.396 92.6084 247.127ZM94.2586 256.606L95.9691 257.39C95.5264 257.766 94.9696 258.128 94.2988 258.477C93.6415 258.826 92.9506 259.134 92.2261 259.403C91.5016 259.685 90.7906 259.906 90.093 260.067C89.9454 259.812 89.7307 259.51 89.449 259.161C89.1673 258.812 88.9057 258.537 88.6642 258.336C89.335 258.229 90.0259 258.088 90.7369 257.914C91.448 257.739 92.1121 257.538 92.7292 257.31C93.3463 257.082 93.8561 256.847 94.2586 256.606ZM99.7122 257.612L101.322 256.465C101.872 256.679 102.476 256.921 103.133 257.189C103.804 257.457 104.448 257.733 105.065 258.014C105.696 258.283 106.226 258.531 106.655 258.759L104.944 260.067C104.555 259.852 104.059 259.597 103.455 259.302C102.851 259.007 102.214 258.712 101.543 258.417C100.886 258.122 100.276 257.853 99.7122 257.612Z" fill="white"/>
<path d="M62.6684 287.615V285.201H65.8882V275.803H63.1715V273.951C63.9228 273.817 64.5667 273.656 65.1034 273.468C65.6534 273.267 66.1632 273.012 66.6328 272.704H68.8263V285.201H71.6235V287.615H62.6684ZM78.8247 287.897C77.8721 287.897 77.0202 287.729 76.2689 287.394C75.5177 287.059 74.9207 286.589 74.4779 285.985C74.0486 285.382 73.834 284.691 73.834 283.913C73.834 283.269 73.948 282.705 74.1761 282.222C74.4176 281.726 74.7328 281.297 75.1219 280.934C75.5109 280.572 75.9335 280.27 76.3897 280.029V279.928C75.8262 279.526 75.3567 279.036 74.981 278.459C74.6054 277.869 74.4176 277.185 74.4176 276.406C74.4176 275.601 74.6121 274.904 75.0011 274.314C75.3902 273.723 75.9201 273.267 76.5909 272.945C77.2751 272.623 78.0466 272.462 78.9052 272.462C79.7906 272.462 80.5553 272.63 81.1993 272.965C81.8432 273.287 82.3396 273.743 82.6884 274.334C83.0507 274.924 83.2318 275.622 83.2318 276.427C83.2318 276.91 83.1379 277.366 82.9501 277.795C82.7756 278.224 82.5409 278.613 82.2457 278.962C81.964 279.298 81.6554 279.586 81.32 279.827V279.928C81.7896 280.17 82.2122 280.471 82.5878 280.834C82.9635 281.196 83.2653 281.632 83.4934 282.142C83.7215 282.638 83.8355 283.228 83.8355 283.913C83.8355 284.664 83.6208 285.341 83.1915 285.945C82.7756 286.549 82.1921 287.025 81.4408 287.374C80.6895 287.723 79.8174 287.897 78.8247 287.897ZM79.7504 279.103C80.1126 278.714 80.3809 278.311 80.5553 277.896C80.7297 277.48 80.8169 277.05 80.8169 276.608C80.8169 276.205 80.7364 275.85 80.5754 275.541C80.4279 275.219 80.2065 274.971 79.9114 274.797C79.6162 274.622 79.2607 274.535 78.8448 274.535C78.335 274.535 77.9057 274.696 77.5569 275.018C77.2081 275.34 77.0337 275.803 77.0337 276.406C77.0337 276.863 77.1477 277.258 77.3758 277.594C77.6172 277.916 77.9459 278.197 78.3618 278.439C78.7777 278.667 79.2406 278.888 79.7504 279.103ZM78.885 285.804C79.3144 285.804 79.69 285.73 80.012 285.583C80.3474 285.422 80.609 285.194 80.7968 284.899C80.9846 284.59 81.0785 284.228 81.0785 283.812C81.0785 283.423 80.9913 283.088 80.8169 282.806C80.6559 282.511 80.4279 282.256 80.1327 282.041C79.8376 281.813 79.4888 281.605 79.0863 281.417C78.6838 281.229 78.2411 281.028 77.7581 280.814C77.3556 281.149 77.0269 281.558 76.772 282.041C76.5171 282.511 76.3897 283.027 76.3897 283.591C76.3897 284.033 76.497 284.422 76.7117 284.758C76.9397 285.08 77.2416 285.335 77.6172 285.523C77.9929 285.71 78.4155 285.804 78.885 285.804ZM89.0243 281.88C88.3267 281.88 87.7028 281.692 87.1528 281.317C86.6027 280.941 86.1734 280.398 85.8649 279.687C85.5563 278.976 85.402 278.124 85.402 277.131C85.402 276.138 85.5563 275.293 85.8649 274.595C86.1734 273.898 86.6027 273.368 87.1528 273.005C87.7028 272.63 88.3267 272.442 89.0243 272.442C89.7488 272.442 90.3793 272.63 90.9159 273.005C91.466 273.368 91.8953 273.898 92.2039 274.595C92.5124 275.293 92.6667 276.138 92.6667 277.131C92.6667 278.124 92.5124 278.976 92.2039 279.687C91.8953 280.398 91.466 280.941 90.9159 281.317C90.3793 281.692 89.7488 281.88 89.0243 281.88ZM89.0243 280.21C89.4536 280.21 89.8158 279.975 90.111 279.505C90.4196 279.023 90.5738 278.231 90.5738 277.131C90.5738 276.044 90.4196 275.273 90.111 274.817C89.8158 274.347 89.4536 274.112 89.0243 274.112C88.595 274.112 88.2261 274.347 87.9175 274.817C87.6223 275.273 87.4748 276.044 87.4748 277.131C87.4748 278.231 87.6223 279.023 87.9175 279.505C88.2261 279.975 88.595 280.21 89.0243 280.21ZM89.5073 287.897L97.6172 272.442H99.3679L91.2782 287.897H89.5073ZM99.871 287.897C99.16 287.897 98.5294 287.709 97.9794 287.334C97.4428 286.958 97.0135 286.415 96.6915 285.704C96.3829 284.993 96.2286 284.141 96.2286 283.148C96.2286 282.142 96.3829 281.29 96.6915 280.592C97.0135 279.895 97.4428 279.365 97.9794 279.002C98.5294 278.627 99.16 278.439 99.871 278.439C100.569 278.439 101.186 278.627 101.722 279.002C102.272 279.365 102.702 279.895 103.01 280.592C103.332 281.29 103.493 282.142 103.493 283.148C103.493 284.141 103.332 284.993 103.01 285.704C102.702 286.415 102.272 286.958 101.722 287.334C101.186 287.709 100.569 287.897 99.871 287.897ZM99.871 286.207C100.3 286.207 100.663 285.972 100.958 285.502C101.253 285.019 101.4 284.235 101.4 283.148C101.4 282.034 101.253 281.256 100.958 280.814C100.663 280.357 100.3 280.129 99.871 280.129C99.4283 280.129 99.0594 280.357 98.7642 280.814C98.4691 281.256 98.3215 282.034 98.3215 283.148C98.3215 284.235 98.4691 285.019 98.7642 285.502C99.0594 285.972 99.4283 286.207 99.871 286.207Z" fill="white"/>
<path d="M168.714 88.3198H186.825V90.5535H168.714V88.3198ZM169.317 78.0164H186.302V80.23H169.317V78.0164ZM173.664 81.4978H181.834V83.5102H173.664V81.4978ZM173.664 84.8585H181.834V86.8709H173.664V84.8585ZM172.135 76.0644H174.529V89.5272H172.135V76.0644ZM180.909 76.0644H183.364V89.5272H180.909V76.0644ZM178.796 92.1836L180.506 90.6944C181.284 90.9359 182.063 91.2176 182.841 91.5396C183.632 91.8482 184.383 92.1567 185.094 92.4653C185.819 92.7739 186.429 93.0556 186.926 93.3105L184.612 94.8399C184.182 94.585 183.652 94.3033 183.022 93.9947C182.391 93.6861 181.714 93.3776 180.989 93.069C180.265 92.747 179.534 92.4519 178.796 92.1836ZM174.711 90.4932L176.723 92.0628C176.119 92.4116 175.428 92.7604 174.65 93.1093C173.886 93.4715 173.101 93.8002 172.296 94.0953C171.504 94.4039 170.746 94.6655 170.022 94.8801C169.847 94.6252 169.606 94.3234 169.297 93.9746C168.989 93.6258 168.707 93.3306 168.452 93.0891C169.163 92.8879 169.908 92.6464 170.686 92.3647C171.477 92.0695 172.229 91.761 172.94 91.439C173.651 91.1036 174.241 90.7883 174.711 90.4932ZM200.006 76.1046H202.159V90.1309H200.006V76.1046ZM193.245 83.9932L205.118 79.3244L206.023 81.4173L194.17 86.1263L193.245 83.9932ZM195.7 78.278H197.994V91.1572C197.994 91.5597 198.027 91.8683 198.094 92.0829C198.162 92.2842 198.302 92.4183 198.517 92.4854C198.732 92.5391 199.06 92.5659 199.503 92.5659C199.637 92.5659 199.839 92.5659 200.107 92.5659C200.389 92.5659 200.704 92.5659 201.053 92.5659C201.415 92.5659 201.77 92.5659 202.119 92.5659C202.481 92.5659 202.803 92.5659 203.085 92.5659C203.38 92.5659 203.595 92.5659 203.729 92.5659C204.132 92.5659 204.433 92.4921 204.635 92.3445C204.849 92.197 205.004 91.9287 205.098 91.5396C205.191 91.1371 205.259 90.5535 205.299 89.7888C205.581 89.9766 205.929 90.1578 206.345 90.3322C206.761 90.5066 207.123 90.6273 207.432 90.6944C207.325 91.6872 207.157 92.4787 206.929 93.069C206.701 93.6593 206.345 94.0819 205.862 94.3368C205.393 94.6051 204.742 94.7393 203.91 94.7393C203.776 94.7393 203.555 94.7393 203.246 94.7393C202.938 94.7393 202.589 94.7393 202.2 94.7393C201.811 94.7393 201.422 94.7393 201.033 94.7393C200.643 94.7393 200.295 94.7393 199.986 94.7393C199.691 94.7393 199.476 94.7393 199.342 94.7393C198.403 94.7393 197.665 94.632 197.129 94.4173C196.605 94.2161 196.236 93.8538 196.022 93.3306C195.807 92.8208 195.7 92.0964 195.7 91.1572V78.278ZM192.701 76.0845L194.975 76.809C194.546 77.9359 194.036 79.0762 193.446 80.23C192.856 81.3704 192.212 82.457 191.514 83.4901C190.83 84.5097 190.125 85.4018 189.401 86.1665C189.32 85.9653 189.206 85.7104 189.059 85.4018C188.911 85.0799 188.75 84.7579 188.576 84.4359C188.402 84.1139 188.247 83.8523 188.113 83.6511C188.717 83.0339 189.3 82.3229 189.864 81.5179C190.441 80.713 190.971 79.8477 191.454 78.922C191.95 77.9963 192.366 77.0505 192.701 76.0845ZM190.669 81.6588L192.963 79.3647V79.3848V94.8801H190.669V81.6588ZM204.474 79.8477H204.252L205.057 79.2842L206.868 79.8477L206.788 80.23C206.761 81.196 206.707 82.229 206.627 83.3291C206.56 84.4292 206.473 85.5092 206.365 86.569C206.271 87.6289 206.144 88.5814 205.983 89.4266L204.011 88.8631C204.078 88.3131 204.138 87.6758 204.192 86.9514C204.246 86.2135 204.293 85.4354 204.333 84.617C204.373 83.7986 204.4 82.9803 204.413 82.1619C204.44 81.3435 204.46 80.5721 204.474 79.8477Z" fill="white"/>
<path d="M183.005 121.986V119.571H186.225V110.173H183.508V108.322C184.26 108.188 184.904 108.027 185.44 107.839C185.99 107.638 186.5 107.383 186.97 107.074H189.163V119.571H191.96V121.986H183.005ZM200.007 121.986V112.83C200.007 112.4 200.02 111.89 200.047 111.3C200.074 110.696 200.101 110.173 200.128 109.73H200.027C199.853 110.133 199.665 110.535 199.463 110.938C199.262 111.34 199.054 111.75 198.84 112.165L196.525 115.868H204.535V118.122H193.648V116.11L199.202 107.074H202.764V121.986H200.007ZM209.361 116.251C208.664 116.251 208.04 116.063 207.49 115.687C206.94 115.312 206.51 114.768 206.202 114.057C205.893 113.346 205.739 112.494 205.739 111.501C205.739 110.509 205.893 109.663 206.202 108.966C206.51 108.268 206.94 107.738 207.49 107.376C208.04 107 208.664 106.813 209.361 106.813C210.086 106.813 210.716 107 211.253 107.376C211.803 107.738 212.232 108.268 212.541 108.966C212.849 109.663 213.004 110.509 213.004 111.501C213.004 112.494 212.849 113.346 212.541 114.057C212.232 114.768 211.803 115.312 211.253 115.687C210.716 116.063 210.086 116.251 209.361 116.251ZM209.361 114.58C209.791 114.58 210.153 114.346 210.448 113.876C210.756 113.393 210.911 112.601 210.911 111.501C210.911 110.415 210.756 109.643 210.448 109.187C210.153 108.718 209.791 108.483 209.361 108.483C208.932 108.483 208.563 108.718 208.254 109.187C207.959 109.643 207.812 110.415 207.812 111.501C207.812 112.601 207.959 113.393 208.254 113.876C208.563 114.346 208.932 114.58 209.361 114.58ZM209.844 122.268L217.954 106.813H219.705L211.615 122.268H209.844ZM220.208 122.268C219.497 122.268 218.866 122.08 218.316 121.704C217.78 121.329 217.35 120.785 217.028 120.074C216.72 119.363 216.566 118.511 216.566 117.518C216.566 116.512 216.72 115.66 217.028 114.963C217.35 114.265 217.78 113.735 218.316 113.373C218.866 112.997 219.497 112.809 220.208 112.809C220.906 112.809 221.523 112.997 222.059 113.373C222.609 113.735 223.039 114.265 223.347 114.963C223.669 115.66 223.83 116.512 223.83 117.518C223.83 118.511 223.669 119.363 223.347 120.074C223.039 120.785 222.609 121.329 222.059 121.704C221.523 122.08 220.906 122.268 220.208 122.268ZM220.208 120.577C220.637 120.577 220.999 120.342 221.295 119.873C221.59 119.39 221.737 118.605 221.737 117.518C221.737 116.405 221.59 115.627 221.295 115.184C220.999 114.728 220.637 114.5 220.208 114.5C219.765 114.5 219.396 114.728 219.101 115.184C218.806 115.627 218.658 116.405 218.658 117.518C218.658 118.605 218.806 119.39 219.101 119.873C219.396 120.342 219.765 120.577 220.208 120.577Z" fill="white"/>
</svg>
