<svg width="451" height="453" viewBox="0 0 451 453" fill="none" xmlns="http://www.w3.org/2000/svg">
<path d="M368.619 61.7435H380.029V63.1924H368.619V61.7435ZM368.619 59.228H381.438V65.6877H368.619V64.0778H379.043V60.858H368.619V59.228ZM373.067 60.1134H375.381V65.7481C375.381 66.1237 375.468 66.3652 375.642 66.4726C375.83 66.5665 376.226 66.6134 376.83 66.6134C376.95 66.6134 377.132 66.6134 377.373 66.6134C377.628 66.6134 377.91 66.6134 378.218 66.6134C378.54 66.6134 378.855 66.6134 379.164 66.6134C379.486 66.6134 379.781 66.6134 380.049 66.6134C380.318 66.6134 380.526 66.6134 380.673 66.6134C381.009 66.6134 381.264 66.5665 381.438 66.4726C381.612 66.3786 381.74 66.1841 381.82 65.889C381.901 65.5938 381.961 65.1645 382.002 64.601C382.243 64.762 382.558 64.9163 382.947 65.0639C383.35 65.1981 383.705 65.2987 384.014 65.3657C383.92 66.1707 383.766 66.7945 383.551 67.2373C383.336 67.6934 383.014 68.0087 382.585 68.1831C382.169 68.3709 381.592 68.4648 380.854 68.4648C380.734 68.4648 380.526 68.4648 380.231 68.4648C379.949 68.4648 379.627 68.4648 379.265 68.4648C378.916 68.4648 378.56 68.4648 378.198 68.4648C377.836 68.4648 377.514 68.4648 377.232 68.4648C376.95 68.4648 376.749 68.4648 376.628 68.4648C375.703 68.4648 374.978 68.3843 374.455 68.2233C373.945 68.0623 373.583 67.7873 373.368 67.3983C373.167 67.0092 373.067 66.4659 373.067 65.7682V60.1134ZM367.412 59.228H369.726V66.5933H367.412V59.228ZM366.446 50.5345H382.323V52.1243H366.446V50.5345ZM373.187 50.937H375.542V58.7048H373.187V50.937ZM365.56 52.9494H383.35V57.4973H380.935V54.519H367.854V57.4973H365.56V52.9494ZM367.693 57.3162C368.324 57.2357 369.062 57.1351 369.907 57.0144C370.752 56.8936 371.624 56.7662 372.523 56.632L372.604 58.0004C371.852 58.1748 371.108 58.3492 370.37 58.5237C369.632 58.6981 368.941 58.8523 368.297 58.9865L367.693 57.3162ZM368.358 55.6459L369.002 54.4586C369.377 54.5257 369.78 54.6062 370.209 54.7001C370.652 54.794 371.074 54.8947 371.477 55.002C371.879 55.1093 372.215 55.2233 372.483 55.3441L371.859 56.6521C371.591 56.5314 371.255 56.4107 370.853 56.2899C370.45 56.1692 370.028 56.0484 369.585 55.9277C369.156 55.8069 368.747 55.713 368.358 55.6459ZM379.667 54.2775L380.593 55.5453C380.231 55.6795 379.835 55.8136 379.406 55.9478C378.976 56.0685 378.547 56.1759 378.118 56.2698C377.702 56.3637 377.319 56.4442 376.971 56.5113L376.226 55.3642C376.561 55.2971 376.937 55.1965 377.353 55.0624C377.782 54.9282 378.198 54.794 378.601 54.6599C379.003 54.5123 379.359 54.3849 379.667 54.2775ZM375.904 57.7992L376.367 56.4509C376.877 56.5046 377.42 56.5851 377.997 56.6924C378.574 56.7997 379.131 56.9205 379.667 57.0546C380.217 57.1754 380.673 57.3028 381.036 57.437L380.593 58.9261C380.244 58.792 379.795 58.6578 379.245 58.5237C378.708 58.3895 378.144 58.2553 377.554 58.1212C376.977 57.987 376.427 57.8797 375.904 57.7992ZM386.006 54.0159H401.441V56.4911H386.006V54.0159ZM400.435 54.0159H402.95C402.95 54.0159 402.95 54.0897 402.95 54.2373C402.95 54.3849 402.944 54.5526 402.93 54.7404C402.93 54.9148 402.924 55.0556 402.91 55.163C402.803 57.1754 402.695 58.8993 402.588 60.3348C402.481 61.7569 402.36 62.9375 402.226 63.8766C402.105 64.8157 401.958 65.5603 401.783 66.1103C401.622 66.6604 401.428 67.0696 401.2 67.3379C400.891 67.7269 400.576 67.9953 400.254 68.1428C399.945 68.2904 399.57 68.391 399.127 68.4447C398.765 68.4984 398.288 68.5252 397.698 68.5252C397.108 68.5252 396.504 68.5185 395.887 68.5051C395.874 68.1428 395.786 67.7202 395.625 67.2373C395.478 66.7543 395.29 66.3451 395.062 66.0097C395.706 66.0634 396.296 66.0969 396.833 66.1103C397.383 66.1103 397.792 66.1103 398.06 66.1103C398.262 66.1103 398.436 66.0902 398.584 66.05C398.731 66.0097 398.865 65.9225 398.986 65.7883C399.16 65.6139 399.321 65.2785 399.469 64.7822C399.617 64.2724 399.744 63.568 399.851 62.6692C399.972 61.7703 400.079 60.6501 400.173 59.3085C400.267 57.9535 400.354 56.3503 400.435 54.4989V54.0159ZM392.184 49.8503H394.76V54.0159C394.76 54.9282 394.713 55.9008 394.619 56.9339C394.539 57.9669 394.364 59.02 394.096 60.0933C393.828 61.1532 393.418 62.2063 392.868 63.2527C392.318 64.2992 391.587 65.2987 390.675 66.2512C389.776 67.2037 388.642 68.0623 387.274 68.827C387.14 68.6258 386.959 68.3977 386.731 68.1428C386.516 67.8879 386.281 67.6464 386.026 67.4184C385.785 67.1903 385.563 67.0025 385.362 66.8549C386.623 66.1841 387.663 65.4328 388.481 64.601C389.313 63.7693 389.977 62.9039 390.474 62.0051C390.97 61.0928 391.339 60.1738 391.58 59.2481C391.835 58.309 391.996 57.3967 392.063 56.5113C392.144 55.6124 392.184 54.7806 392.184 54.0159V49.8503Z" fill="white"/>
<path d="M380.144 95.7921V94.0816C381.499 92.8742 382.653 91.7539 383.605 90.7209C384.571 89.6879 385.309 88.7287 385.819 87.8432C386.329 86.9443 386.583 86.1126 386.583 85.3479C386.583 84.8649 386.496 84.4423 386.322 84.0801C386.147 83.7178 385.893 83.4428 385.557 83.255C385.235 83.0537 384.833 82.9531 384.35 82.9531C383.813 82.9531 383.317 83.1074 382.861 83.416C382.418 83.7111 382.009 84.0666 381.633 84.4825L379.983 82.8928C380.68 82.1415 381.391 81.578 382.116 81.2024C382.854 80.8133 383.726 80.6188 384.732 80.6188C385.671 80.6188 386.49 80.8133 387.187 81.2024C387.898 81.578 388.448 82.1079 388.837 82.7921C389.226 83.4763 389.421 84.2813 389.421 85.207C389.421 86.1059 389.193 87.0248 388.737 87.964C388.294 88.8896 387.697 89.8153 386.946 90.741C386.194 91.6667 385.363 92.579 384.45 93.4779C384.839 93.4242 385.255 93.384 385.698 93.3571C386.154 93.3169 386.557 93.2968 386.905 93.2968H390.125V95.7921H380.144ZM397.508 96.0738C396.81 96.0738 396.132 95.9263 395.475 95.6311C394.831 95.336 394.261 94.8865 393.764 94.2828C393.268 93.6657 392.872 92.8876 392.577 91.9485C392.295 90.9959 392.155 89.8623 392.155 88.5475C392.155 87.1657 392.309 85.9717 392.617 84.9655C392.939 83.9593 393.369 83.1409 393.905 82.5104C394.442 81.8664 395.052 81.3902 395.737 81.0816C396.434 80.773 397.165 80.6188 397.93 80.6188C398.842 80.6188 399.627 80.7865 400.285 81.1219C400.955 81.4438 401.512 81.8396 401.955 82.3092L400.385 84.0801C400.13 83.7849 399.795 83.53 399.379 83.3154C398.963 83.1007 398.541 82.9934 398.111 82.9934C397.508 82.9934 396.957 83.1678 396.461 83.5166C395.978 83.8654 395.589 84.4423 395.294 85.2472C394.999 86.0522 394.851 87.1523 394.851 88.5475C394.851 89.8355 394.965 90.8685 395.193 91.6466C395.435 92.4113 395.75 92.9681 396.139 93.3169C396.528 93.6657 396.964 93.8401 397.447 93.8401C397.823 93.8401 398.158 93.7395 398.453 93.5382C398.762 93.3236 399.01 93.015 399.198 92.6126C399.386 92.1967 399.48 91.6869 399.48 91.0831C399.48 90.4928 399.386 90.0099 399.198 89.6342C399.024 89.2586 398.775 88.9768 398.453 88.789C398.145 88.6012 397.776 88.5073 397.347 88.5073C396.944 88.5073 396.521 88.6347 396.079 88.8896C395.636 89.1311 395.227 89.5604 394.851 90.1776L394.71 88.1853C394.979 87.8097 395.294 87.4877 395.656 87.2194C396.032 86.9511 396.414 86.7498 396.803 86.6157C397.206 86.4815 397.568 86.4144 397.89 86.4144C398.722 86.4144 399.46 86.5821 400.103 86.9175C400.761 87.2529 401.271 87.7627 401.633 88.4469C401.995 89.1311 402.176 90.0099 402.176 91.0831C402.176 92.1027 401.962 92.9882 401.532 93.7395C401.116 94.4774 400.553 95.0542 399.842 95.4701C399.131 95.8726 398.353 96.0738 397.508 96.0738ZM407.285 90.0568C406.587 90.0568 405.963 89.869 405.413 89.4934C404.863 89.1177 404.434 88.5744 404.125 87.8633C403.817 87.1523 403.662 86.3004 403.662 85.3076C403.662 84.3148 403.817 83.4696 404.125 82.772C404.434 82.0744 404.863 81.5445 405.413 81.1822C405.963 80.8066 406.587 80.6188 407.285 80.6188C408.009 80.6188 408.64 80.8066 409.176 81.1822C409.726 81.5445 410.156 82.0744 410.464 82.772C410.773 83.4696 410.927 84.3148 410.927 85.3076C410.927 86.3004 410.773 87.1523 410.464 87.8633C410.156 88.5744 409.726 89.1177 409.176 89.4934C408.64 89.869 408.009 90.0568 407.285 90.0568ZM407.285 88.3866C407.714 88.3866 408.076 88.1518 408.371 87.6822C408.68 87.1992 408.834 86.4077 408.834 85.3076C408.834 84.2209 408.68 83.4495 408.371 82.9934C408.076 82.5238 407.714 82.289 407.285 82.289C406.855 82.289 406.486 82.5238 406.178 82.9934C405.883 83.4495 405.735 84.2209 405.735 85.3076C405.735 86.4077 405.883 87.1992 406.178 87.6822C406.486 88.1518 406.855 88.3866 407.285 88.3866ZM407.768 96.0738L415.877 80.6188H417.628L409.538 96.0738H407.768ZM418.131 96.0738C417.42 96.0738 416.79 95.886 416.24 95.5104C415.703 95.1347 415.274 94.5914 414.952 93.8804C414.643 93.1693 414.489 92.3174 414.489 91.3246C414.489 90.3184 414.643 89.4665 414.952 88.7689C415.274 88.0713 415.703 87.5414 416.24 87.1791C416.79 86.8035 417.42 86.6157 418.131 86.6157C418.829 86.6157 419.446 86.8035 419.983 87.1791C420.533 87.5414 420.962 88.0713 421.271 88.7689C421.593 89.4665 421.754 90.3184 421.754 91.3246C421.754 92.3174 421.593 93.1693 421.271 93.8804C420.962 94.5914 420.533 95.1347 419.983 95.5104C419.446 95.886 418.829 96.0738 418.131 96.0738ZM418.131 94.3834C418.561 94.3834 418.923 94.1487 419.218 93.6791C419.513 93.1961 419.661 92.4113 419.661 91.3246C419.661 90.2111 419.513 89.433 419.218 88.9903C418.923 88.5341 418.561 88.3061 418.131 88.3061C417.689 88.3061 417.32 88.5341 417.024 88.9903C416.729 89.433 416.582 90.2111 416.582 91.3246C416.582 92.4113 416.729 93.1961 417.024 93.6791C417.32 94.1487 417.689 94.3834 418.131 94.3834Z" fill="white"/>
<path d="M406.789 312L409.224 312.705C408.459 314.502 407.46 316.025 406.226 317.273C404.991 318.521 403.549 319.554 401.899 320.372C400.249 321.177 398.424 321.828 396.425 322.324C396.331 322.136 396.197 321.908 396.023 321.64C395.848 321.371 395.667 321.103 395.479 320.835C395.292 320.566 395.117 320.345 394.956 320.171C396.915 319.795 398.672 319.265 400.229 318.581C401.785 317.897 403.12 317.018 404.233 315.945C405.347 314.871 406.199 313.557 406.789 312ZM400.027 308.519L402.402 309.425C401.933 310.015 401.389 310.598 400.772 311.175C400.168 311.752 399.538 312.296 398.88 312.805C398.236 313.315 397.619 313.758 397.029 314.134C396.881 313.973 396.694 313.778 396.466 313.55C396.237 313.322 395.996 313.101 395.741 312.886C395.5 312.671 395.285 312.497 395.097 312.363C395.714 312.054 396.325 311.699 396.928 311.296C397.546 310.88 398.122 310.437 398.659 309.968C399.196 309.485 399.652 309.002 400.027 308.519ZM401.577 312.101C402.462 314.261 403.885 316.012 405.843 317.353C407.815 318.695 410.324 319.594 413.37 320.05C413.209 320.224 413.027 320.439 412.826 320.694C412.638 320.949 412.464 321.21 412.303 321.479C412.142 321.76 412.008 322.009 411.9 322.223C409.754 321.821 407.882 321.21 406.286 320.392C404.703 319.574 403.348 318.534 402.221 317.273C401.107 315.998 400.168 314.496 399.404 312.765L401.577 312.101ZM395.258 305.983H413.007V308.338H395.258V305.983ZM406.065 309.767L407.956 308.398C408.547 308.801 409.17 309.25 409.828 309.747C410.499 310.243 411.129 310.746 411.719 311.256C412.31 311.752 412.793 312.215 413.168 312.644L411.096 314.234C410.774 313.818 410.331 313.349 409.767 312.825C409.204 312.289 408.593 311.752 407.936 311.216C407.292 310.679 406.668 310.196 406.065 309.767ZM402.14 303.991L404.435 303.186C404.703 303.615 404.978 304.092 405.26 304.615C405.555 305.138 405.769 305.588 405.904 305.963L403.469 306.869C403.361 306.493 403.18 306.03 402.925 305.48C402.67 304.93 402.409 304.434 402.14 303.991ZM423.27 307.352L424.82 306.064C425.424 306.265 426.081 306.513 426.792 306.808C427.517 307.104 428.214 307.405 428.885 307.714C429.556 308.009 430.113 308.298 430.555 308.579L428.905 310.008C428.503 309.753 427.973 309.465 427.315 309.143C426.671 308.821 425.994 308.506 425.283 308.197C424.572 307.875 423.901 307.593 423.27 307.352ZM421.399 308.479H431.521V310.23H423.532V318.903H421.399V308.479ZM430.656 308.479H432.829V316.89C432.829 317.36 432.776 317.729 432.668 317.997C432.561 318.252 432.346 318.46 432.024 318.621C431.729 318.769 431.36 318.856 430.918 318.883C430.488 318.91 429.972 318.923 429.368 318.923C429.341 318.655 429.267 318.353 429.147 318.017C429.039 317.682 428.925 317.387 428.805 317.132C429.126 317.145 429.435 317.152 429.73 317.152C430.039 317.152 430.247 317.152 430.354 317.152C430.475 317.152 430.555 317.132 430.596 317.092C430.636 317.051 430.656 316.978 430.656 316.87V308.479ZM421.64 304.112H431.219V305.883H421.64V304.112ZM422.707 311.316H431.36V313.007H422.707V311.316ZM422.707 314.134H431.36V315.884H422.707V314.134ZM426.007 309.304H428.06V318.822H426.007V309.304ZM430.354 304.112H430.918L431.38 303.991L432.809 305.138C432.34 305.581 431.81 306.03 431.219 306.486C430.642 306.943 430.039 307.372 429.408 307.774C428.778 308.163 428.154 308.506 427.537 308.801C427.403 308.599 427.208 308.365 426.953 308.096C426.712 307.828 426.51 307.613 426.349 307.452C426.859 307.211 427.369 306.922 427.879 306.587C428.402 306.238 428.878 305.883 429.308 305.521C429.75 305.158 430.099 304.83 430.354 304.534V304.112ZM415.563 304.534L417.354 303.428C417.676 303.75 418.005 304.092 418.34 304.454C418.676 304.816 418.991 305.172 419.286 305.521C419.595 305.869 419.843 306.185 420.031 306.466L418.199 307.795C418.025 307.499 417.783 307.164 417.475 306.788C417.18 306.413 416.864 306.03 416.529 305.641C416.194 305.239 415.872 304.87 415.563 304.534ZM415.06 308.137H419.326V310.048H415.06V308.137ZM419.145 316.87C419.507 317.769 420.004 318.44 420.634 318.883C421.278 319.312 422.063 319.594 422.989 319.728C423.928 319.849 425.008 319.916 426.229 319.929C426.94 319.929 427.751 319.916 428.664 319.889C429.576 319.862 430.495 319.822 431.421 319.768C432.36 319.715 433.212 319.654 433.976 319.587C433.869 319.748 433.762 319.963 433.654 320.231C433.547 320.499 433.453 320.774 433.373 321.056C433.306 321.338 433.245 321.593 433.191 321.821C432.507 321.861 431.769 321.895 430.978 321.921C430.2 321.962 429.402 321.982 428.583 321.982C427.765 321.995 426.96 322.002 426.168 322.002C425.001 322.002 423.961 321.948 423.049 321.841C422.137 321.734 421.332 321.526 420.634 321.217C419.95 320.909 419.353 320.459 418.843 319.869C418.333 319.279 417.891 318.5 417.515 317.534L419.145 316.87ZM418.642 313.027H419.226L419.608 312.966L420.755 313.389C420.42 315.616 419.849 317.474 419.044 318.963C418.239 320.452 417.253 321.579 416.086 322.344C415.992 322.196 415.851 322.015 415.664 321.801C415.476 321.599 415.281 321.398 415.08 321.197C414.879 320.996 414.698 320.841 414.537 320.734C415.623 320.077 416.516 319.131 417.213 317.897C417.924 316.662 418.4 315.16 418.642 313.389V313.027ZM415.422 315.2V313.469L416.287 313.027H419.326L419.306 314.898H416.67C416.428 314.898 416.18 314.925 415.925 314.979C415.684 315.032 415.516 315.106 415.422 315.2ZM415.422 315.2C415.382 315.026 415.315 314.818 415.221 314.576C415.127 314.321 415.026 314.073 414.919 313.832C414.812 313.577 414.725 313.382 414.657 313.248C414.818 313.208 414.986 313.141 415.161 313.047C415.335 312.953 415.516 312.805 415.704 312.604C415.851 312.457 416.059 312.208 416.328 311.86C416.596 311.511 416.884 311.122 417.193 310.692C417.515 310.25 417.817 309.82 418.099 309.404C418.394 308.989 418.629 308.64 418.803 308.358V308.277L419.407 308.036L420.876 308.7C420.648 309.035 420.373 309.438 420.051 309.908C419.729 310.364 419.387 310.833 419.024 311.316C418.676 311.799 418.327 312.269 417.978 312.725C417.642 313.181 417.334 313.57 417.052 313.892C417.052 313.892 416.972 313.932 416.811 314.013C416.65 314.093 416.455 314.207 416.227 314.355C416.012 314.489 415.825 314.63 415.664 314.777C415.503 314.925 415.422 315.066 415.422 315.2Z" fill="white"/>
<path d="M408.74 349.41V346.995H411.959V337.597H409.243V335.745C409.994 335.611 410.638 335.45 411.175 335.262C411.725 335.061 412.235 334.806 412.704 334.498H414.898V346.995H417.695V349.41H408.74ZM424.534 349.691C423.742 349.691 423.038 349.597 422.421 349.41C421.804 349.222 421.254 348.973 420.771 348.665C420.288 348.356 419.858 348.021 419.483 347.659L420.851 345.767C421.133 346.049 421.435 346.304 421.757 346.532C422.092 346.76 422.454 346.941 422.843 347.075C423.246 347.209 423.675 347.276 424.131 347.276C424.641 347.276 425.09 347.169 425.48 346.954C425.882 346.74 426.197 346.431 426.425 346.029C426.653 345.613 426.767 345.116 426.767 344.54C426.767 343.681 426.533 343.017 426.063 342.547C425.607 342.078 425.003 341.843 424.252 341.843C423.823 341.843 423.454 341.903 423.145 342.024C422.837 342.131 422.461 342.326 422.018 342.608L420.67 341.742L421.072 334.498H429.041V336.993H423.628L423.346 340.153C423.642 340.018 423.93 339.918 424.212 339.851C424.493 339.784 424.802 339.75 425.137 339.75C425.969 339.75 426.734 339.918 427.432 340.253C428.129 340.575 428.686 341.085 429.102 341.783C429.518 342.48 429.726 343.372 429.726 344.459C429.726 345.559 429.477 346.505 428.981 347.297C428.498 348.075 427.861 348.672 427.069 349.088C426.291 349.49 425.446 349.691 424.534 349.691ZM435.096 343.674C434.398 343.674 433.774 343.486 433.224 343.111C432.674 342.735 432.245 342.192 431.936 341.481C431.628 340.77 431.473 339.918 431.473 338.925C431.473 337.932 431.628 337.087 431.936 336.389C432.245 335.692 432.674 335.162 433.224 334.8C433.774 334.424 434.398 334.236 435.096 334.236C435.82 334.236 436.451 334.424 436.987 334.8C437.537 335.162 437.967 335.692 438.275 336.389C438.584 337.087 438.738 337.932 438.738 338.925C438.738 339.918 438.584 340.77 438.275 341.481C437.967 342.192 437.537 342.735 436.987 343.111C436.451 343.486 435.82 343.674 435.096 343.674ZM435.096 342.004C435.525 342.004 435.887 341.769 436.182 341.3C436.491 340.817 436.645 340.025 436.645 338.925C436.645 337.838 436.491 337.067 436.182 336.611C435.887 336.141 435.525 335.906 435.096 335.906C434.666 335.906 434.297 336.141 433.989 336.611C433.694 337.067 433.546 337.838 433.546 338.925C433.546 340.025 433.694 340.817 433.989 341.3C434.297 341.769 434.666 342.004 435.096 342.004ZM435.579 349.691L443.688 334.236H445.439L437.349 349.691H435.579ZM445.942 349.691C445.231 349.691 444.601 349.503 444.051 349.128C443.514 348.752 443.085 348.209 442.763 347.498C442.454 346.787 442.3 345.935 442.3 344.942C442.3 343.936 442.454 343.084 442.763 342.386C443.085 341.689 443.514 341.159 444.051 340.797C444.601 340.421 445.231 340.233 445.942 340.233C446.64 340.233 447.257 340.421 447.794 340.797C448.344 341.159 448.773 341.689 449.082 342.386C449.404 343.084 449.565 343.936 449.565 344.942C449.565 345.935 449.404 346.787 449.082 347.498C448.773 348.209 448.344 348.752 447.794 349.128C447.257 349.503 446.64 349.691 445.942 349.691ZM445.942 348.001C446.372 348.001 446.734 347.766 447.029 347.297C447.324 346.814 447.472 346.029 447.472 344.942C447.472 343.829 447.324 343.05 447.029 342.608C446.734 342.152 446.372 341.923 445.942 341.923C445.5 341.923 445.131 342.152 444.836 342.608C444.54 343.05 444.393 343.829 444.393 344.942C444.393 346.029 444.54 346.814 444.836 347.297C445.131 347.766 445.5 348.001 445.942 348.001Z" fill="white"/>
<path d="M262.588 409.634H278.426V411.566H262.588V409.634ZM261.602 404.241H277.842V406.132H261.602V404.241ZM265.929 413.176H277.379V415.067H265.929V413.176ZM265.728 416.094H276.776V417.945H265.728V416.094ZM263.876 419.092H278.748V421.044H263.876V419.092ZM269.994 411.928H272.368V420.46H269.994V411.928ZM261.401 409.634H263.735V413.276C263.735 413.893 263.702 414.578 263.635 415.329C263.581 416.08 263.474 416.845 263.313 417.623C263.152 418.388 262.924 419.126 262.628 419.837C262.333 420.548 261.944 421.192 261.461 421.768C261.341 421.621 261.166 421.44 260.938 421.225C260.71 421.024 260.469 420.829 260.214 420.642C259.972 420.454 259.764 420.313 259.59 420.219C260.14 419.548 260.542 418.804 260.797 417.985C261.052 417.167 261.213 416.348 261.28 415.53C261.361 414.698 261.401 413.934 261.401 413.236V409.634ZM265.949 411.747L268.002 412.351C267.626 413.37 267.136 414.363 266.532 415.329C265.942 416.295 265.285 417.1 264.56 417.744C264.52 417.569 264.433 417.348 264.299 417.08C264.165 416.798 264.024 416.516 263.876 416.234C263.742 415.939 263.615 415.705 263.494 415.53C264.017 415.061 264.493 414.497 264.923 413.84C265.352 413.182 265.694 412.485 265.949 411.747ZM263.937 406.998L265.466 405.851C266.378 406.025 267.337 406.233 268.344 406.474C269.35 406.702 270.349 406.951 271.342 407.219C272.335 407.474 273.281 407.729 274.18 407.984C275.078 408.239 275.877 408.473 276.574 408.688L275.065 409.976C274.408 409.734 273.636 409.48 272.751 409.211C271.865 408.93 270.919 408.661 269.913 408.406C268.921 408.138 267.908 407.883 266.875 407.642C265.855 407.4 264.876 407.185 263.937 406.998ZM274.28 405.77L275.89 406.756C275.125 407.118 274.273 407.46 273.334 407.782C272.409 408.104 271.429 408.406 270.396 408.688C269.377 408.956 268.357 409.205 267.337 409.433C266.331 409.647 265.372 409.835 264.46 409.996C264.285 409.808 264.064 409.587 263.796 409.332C263.541 409.064 263.313 408.856 263.111 408.708C264.064 408.561 265.063 408.386 266.11 408.185C267.156 407.984 268.183 407.756 269.189 407.501C270.208 407.232 271.161 406.957 272.046 406.676C272.932 406.38 273.676 406.079 274.28 405.77ZM267.861 403.194L269.491 402.409C269.799 402.745 270.108 403.134 270.416 403.577C270.725 404.006 270.946 404.388 271.08 404.724L269.37 405.629C269.236 405.294 269.021 404.898 268.726 404.442C268.444 403.986 268.156 403.57 267.861 403.194ZM280.478 414.947H298.429V416.939H280.478V414.947ZM280.539 405.931H298.368V407.823H280.539V405.931ZM281.364 409.594H297.584V411.425H281.364V409.594ZM282.35 412.33H296.658V414.061H282.35V412.33ZM288.186 410.479H290.58V421.547H288.186V410.479ZM286.475 402.611H288.729V406.877H286.475V402.611ZM290.198 402.611H292.492V406.736H290.198V402.611ZM294.847 402.792L297.362 403.395C297.04 403.946 296.718 404.482 296.396 405.005C296.074 405.515 295.779 405.951 295.511 406.313L293.559 405.71C293.72 405.441 293.881 405.14 294.042 404.804C294.203 404.455 294.35 404.106 294.484 403.758C294.632 403.395 294.753 403.073 294.847 402.792ZM292.371 407.662L294.927 408.306C294.632 408.654 294.344 408.97 294.062 409.251C293.794 409.52 293.539 409.761 293.297 409.976L291.245 409.372C291.446 409.117 291.647 408.829 291.848 408.507C292.063 408.185 292.237 407.903 292.371 407.662ZM282.008 403.436L284.08 402.731C284.376 403.147 284.671 403.63 284.966 404.18C285.261 404.717 285.476 405.18 285.61 405.569L283.416 406.374C283.309 405.971 283.115 405.495 282.833 404.945C282.564 404.395 282.289 403.892 282.008 403.436ZM284.342 408.125L286.616 407.621C286.79 407.876 286.965 408.165 287.139 408.487C287.327 408.809 287.468 409.097 287.562 409.352L285.187 409.916C285.12 409.674 284.999 409.386 284.825 409.05C284.664 408.701 284.503 408.393 284.342 408.125ZM285.992 417.603L287.703 418.388C287.26 418.763 286.703 419.126 286.032 419.474C285.375 419.823 284.684 420.132 283.96 420.4C283.235 420.682 282.524 420.903 281.827 421.064C281.679 420.809 281.464 420.507 281.183 420.159C280.901 419.81 280.639 419.535 280.398 419.334C281.069 419.226 281.76 419.085 282.471 418.911C283.182 418.737 283.846 418.535 284.463 418.307C285.08 418.079 285.59 417.844 285.992 417.603ZM291.446 418.609L293.056 417.462C293.606 417.677 294.209 417.918 294.867 418.186C295.538 418.455 296.182 418.73 296.799 419.012C297.429 419.28 297.959 419.528 298.388 419.756L296.678 421.064C296.289 420.85 295.793 420.595 295.189 420.299C294.585 420.004 293.948 419.709 293.277 419.414C292.62 419.119 292.009 418.851 291.446 418.609Z" fill="white"/>
<path d="M272.639 448.613V446.198H275.858V436.8H273.142V434.949C273.893 434.815 274.537 434.654 275.074 434.466C275.624 434.265 276.133 434.01 276.603 433.701H278.796V446.198H281.594V448.613H272.639ZM284.509 448.613V446.198H287.728V436.8H285.012V434.949C285.763 434.815 286.407 434.654 286.943 434.466C287.494 434.265 288.003 434.01 288.473 433.701H290.666V446.198H293.464V448.613H284.509ZM298.995 442.878C298.297 442.878 297.673 442.69 297.123 442.314C296.573 441.938 296.144 441.395 295.835 440.684C295.527 439.973 295.372 439.121 295.372 438.128C295.372 437.136 295.527 436.29 295.835 435.593C296.144 434.895 296.573 434.365 297.123 434.003C297.673 433.627 298.297 433.439 298.995 433.439C299.719 433.439 300.35 433.627 300.886 434.003C301.436 434.365 301.866 434.895 302.174 435.593C302.483 436.29 302.637 437.136 302.637 438.128C302.637 439.121 302.483 439.973 302.174 440.684C301.866 441.395 301.436 441.938 300.886 442.314C300.35 442.69 299.719 442.878 298.995 442.878ZM298.995 441.207C299.424 441.207 299.786 440.972 300.081 440.503C300.39 440.02 300.544 439.228 300.544 438.128C300.544 437.042 300.39 436.27 300.081 435.814C299.786 435.345 299.424 435.11 298.995 435.11C298.565 435.11 298.196 435.345 297.888 435.814C297.593 436.27 297.445 437.042 297.445 438.128C297.445 439.228 297.593 440.02 297.888 440.503C298.196 440.972 298.565 441.207 298.995 441.207ZM299.477 448.895L307.587 433.439H309.338L301.248 448.895H299.477ZM309.841 448.895C309.13 448.895 308.5 448.707 307.95 448.331C307.413 447.955 306.984 447.412 306.662 446.701C306.353 445.99 306.199 445.138 306.199 444.145C306.199 443.139 306.353 442.287 306.662 441.59C306.984 440.892 307.413 440.362 307.95 440C308.5 439.624 309.13 439.436 309.841 439.436C310.539 439.436 311.156 439.624 311.693 440C312.243 440.362 312.672 440.892 312.981 441.59C313.303 442.287 313.464 443.139 313.464 444.145C313.464 445.138 313.303 445.99 312.981 446.701C312.672 447.412 312.243 447.955 311.693 448.331C311.156 448.707 310.539 448.895 309.841 448.895ZM309.841 447.204C310.271 447.204 310.633 446.969 310.928 446.5C311.223 446.017 311.371 445.232 311.371 444.145C311.371 443.032 311.223 442.254 310.928 441.811C310.633 441.355 310.271 441.127 309.841 441.127C309.399 441.127 309.03 441.355 308.734 441.811C308.439 442.254 308.292 443.032 308.292 444.145C308.292 445.232 308.439 446.017 308.734 446.5C309.03 446.969 309.399 447.204 309.841 447.204Z" fill="white"/>
<path d="M115.949 388.914H133.738V391.289H115.949V388.914ZM120.437 402.9H131.565V405.214H120.437V402.9ZM119.451 395.716H132.591V406.361H130.016V398.03H121.886V406.442H119.451V395.716ZM121.584 390.222L124.16 390.866C123.677 392.221 123.08 393.576 122.369 394.931C121.657 396.286 120.832 397.554 119.893 398.734C118.968 399.902 117.914 400.908 116.734 401.753C116.6 401.565 116.425 401.357 116.211 401.129C116.009 400.888 115.801 400.66 115.587 400.445C115.386 400.217 115.198 400.029 115.023 399.881C116.11 399.144 117.076 398.245 117.921 397.185C118.78 396.112 119.518 394.971 120.135 393.764C120.752 392.556 121.235 391.376 121.584 390.222ZM144.364 387.908H146.678V402.437C146.678 402.826 146.705 403.121 146.759 403.323C146.812 403.524 146.92 403.658 147.081 403.725C147.255 403.792 147.496 403.826 147.805 403.826C147.926 403.826 148.114 403.826 148.368 403.826C148.637 403.826 148.932 403.826 149.254 403.826C149.576 403.826 149.871 403.826 150.139 403.826C150.421 403.826 150.622 403.826 150.743 403.826C151.092 403.826 151.354 403.712 151.528 403.484C151.716 403.256 151.85 402.84 151.93 402.236C152.011 401.632 152.078 400.767 152.132 399.64C152.413 399.855 152.762 400.063 153.178 400.264C153.594 400.452 153.956 400.579 154.265 400.646C154.184 401.947 154.037 402.987 153.822 403.765C153.621 404.543 153.292 405.1 152.836 405.436C152.393 405.784 151.763 405.959 150.944 405.959C150.824 405.959 150.649 405.959 150.421 405.959C150.206 405.959 149.952 405.959 149.656 405.959C149.375 405.959 149.093 405.959 148.811 405.959C148.529 405.959 148.275 405.959 148.047 405.959C147.818 405.959 147.657 405.959 147.564 405.959C146.732 405.959 146.081 405.851 145.612 405.637C145.142 405.436 144.813 405.073 144.625 404.55C144.451 404.027 144.364 403.309 144.364 402.397V387.908ZM140.54 387.606L142.774 388.371C142.305 389.511 141.741 390.651 141.084 391.792C140.426 392.932 139.715 394.012 138.951 395.032C138.186 396.038 137.401 396.917 136.596 397.668C136.516 397.467 136.402 397.212 136.254 396.903C136.106 396.581 135.945 396.259 135.771 395.937C135.597 395.615 135.442 395.354 135.308 395.152C136.006 394.549 136.677 393.851 137.321 393.059C137.964 392.255 138.561 391.389 139.112 390.463C139.675 389.524 140.151 388.572 140.54 387.606ZM138.528 393.08L140.822 390.785V390.806V406.422H138.528V393.08ZM145.773 393.059H153.742V395.374H145.773V393.059ZM159.195 391.188H173.201V393.542H159.195V391.188ZM158.35 397.104H172.416V399.439H158.35V397.104ZM156.036 403.504H174.228V405.858H156.036V403.504ZM163.844 387.525H166.379V404.651H163.844V387.525ZM159.195 387.787L161.69 388.35C161.409 389.384 161.06 390.403 160.644 391.409C160.228 392.415 159.779 393.355 159.296 394.227C158.813 395.085 158.31 395.837 157.786 396.481C157.625 396.333 157.411 396.172 157.142 395.998C156.888 395.81 156.619 395.629 156.338 395.454C156.056 395.28 155.814 395.139 155.613 395.032C156.15 394.468 156.639 393.797 157.082 393.019C157.538 392.241 157.941 391.403 158.29 390.504C158.652 389.605 158.954 388.699 159.195 387.787ZM178.494 394.528H194.331V396.46H178.494V394.528ZM177.508 389.135H193.748V391.027H177.508V389.135ZM181.834 398.07H193.285V399.962H181.834V398.07ZM181.633 400.988H192.681V402.84H181.633V400.988ZM179.782 403.987H194.653V405.939H179.782V403.987ZM185.899 396.823H188.274V405.355H185.899V396.823ZM177.307 394.528H179.641V398.171C179.641 398.788 179.607 399.472 179.54 400.224C179.487 400.975 179.379 401.74 179.218 402.518C179.057 403.282 178.829 404.02 178.534 404.731C178.239 405.442 177.85 406.086 177.367 406.663C177.246 406.516 177.072 406.334 176.844 406.12C176.616 405.919 176.374 405.724 176.119 405.536C175.878 405.348 175.67 405.208 175.495 405.114C176.045 404.443 176.448 403.698 176.703 402.88C176.958 402.062 177.119 401.243 177.186 400.425C177.266 399.593 177.307 398.828 177.307 398.131V394.528ZM181.855 396.641L183.907 397.245C183.531 398.265 183.042 399.258 182.438 400.224C181.848 401.189 181.19 401.994 180.466 402.638C180.426 402.464 180.339 402.243 180.204 401.974C180.07 401.693 179.929 401.411 179.782 401.129C179.648 400.834 179.52 400.599 179.399 400.425C179.923 399.955 180.399 399.392 180.828 398.734C181.258 398.077 181.6 397.379 181.855 396.641ZM179.842 391.892L181.372 390.745C182.284 390.92 183.243 391.128 184.249 391.369C185.255 391.597 186.255 391.845 187.248 392.114C188.24 392.369 189.186 392.623 190.085 392.878C190.984 393.133 191.782 393.368 192.48 393.583L190.971 394.871C190.313 394.629 189.542 394.374 188.656 394.106C187.771 393.824 186.825 393.556 185.819 393.301C184.826 393.033 183.813 392.778 182.78 392.536C181.761 392.295 180.781 392.08 179.842 391.892ZM190.186 390.665L191.796 391.651C191.031 392.013 190.179 392.355 189.24 392.677C188.314 392.999 187.335 393.301 186.302 393.583C185.282 393.851 184.263 394.099 183.243 394.327C182.237 394.542 181.278 394.73 180.365 394.891C180.191 394.703 179.97 394.482 179.701 394.227C179.446 393.958 179.218 393.75 179.017 393.603C179.97 393.455 180.969 393.281 182.015 393.08C183.062 392.878 184.088 392.65 185.094 392.395C186.114 392.127 187.067 391.852 187.952 391.57C188.837 391.275 189.582 390.973 190.186 390.665ZM183.766 388.089L185.396 387.304C185.705 387.639 186.013 388.029 186.322 388.471C186.631 388.901 186.852 389.283 186.986 389.618L185.276 390.524C185.141 390.188 184.927 389.793 184.632 389.337C184.35 388.88 184.061 388.465 183.766 388.089Z" fill="white"/>
<path d="M130.06 433.507V431.092H133.28V421.695H130.563V419.843C131.314 419.709 131.958 419.548 132.495 419.36C133.045 419.159 133.555 418.904 134.024 418.596H136.218V431.092H139.015V433.507H130.06ZM146.216 433.789C145.21 433.789 144.325 433.501 143.56 432.924C142.809 432.333 142.218 431.461 141.789 430.308C141.373 429.14 141.165 427.698 141.165 425.981C141.165 424.277 141.373 422.862 141.789 421.735C142.218 420.595 142.809 419.743 143.56 419.179C144.325 418.616 145.21 418.334 146.216 418.334C147.236 418.334 148.121 418.622 148.873 419.199C149.624 419.763 150.207 420.608 150.623 421.735C151.053 422.862 151.267 424.277 151.267 425.981C151.267 427.698 151.053 429.14 150.623 430.308C150.207 431.461 149.624 432.333 148.873 432.924C148.121 433.501 147.236 433.789 146.216 433.789ZM146.216 431.475C146.659 431.475 147.048 431.307 147.383 430.972C147.719 430.636 147.98 430.073 148.168 429.281C148.356 428.476 148.45 427.376 148.45 425.981C148.45 424.599 148.356 423.519 148.168 422.741C147.98 421.95 147.719 421.399 147.383 421.091C147.048 420.769 146.659 420.608 146.216 420.608C145.8 420.608 145.418 420.769 145.069 421.091C144.734 421.399 144.466 421.95 144.264 422.741C144.063 423.519 143.962 424.599 143.962 425.981C143.962 427.376 144.063 428.476 144.264 429.281C144.466 430.073 144.734 430.636 145.069 430.972C145.418 431.307 145.8 431.475 146.216 431.475ZM156.416 427.772C155.718 427.772 155.094 427.584 154.544 427.209C153.994 426.833 153.565 426.29 153.256 425.579C152.948 424.867 152.794 424.016 152.794 423.023C152.794 422.03 152.948 421.185 153.256 420.487C153.565 419.79 153.994 419.26 154.544 418.897C155.094 418.522 155.718 418.334 156.416 418.334C157.14 418.334 157.771 418.522 158.308 418.897C158.858 419.26 159.287 419.79 159.595 420.487C159.904 421.185 160.058 422.03 160.058 423.023C160.058 424.016 159.904 424.867 159.595 425.579C159.287 426.29 158.858 426.833 158.308 427.209C157.771 427.584 157.14 427.772 156.416 427.772ZM156.416 426.102C156.845 426.102 157.207 425.867 157.503 425.397C157.811 424.914 157.965 424.123 157.965 423.023C157.965 421.936 157.811 421.165 157.503 420.709C157.207 420.239 156.845 420.004 156.416 420.004C155.987 420.004 155.618 420.239 155.309 420.709C155.014 421.165 154.866 421.936 154.866 423.023C154.866 424.123 155.014 424.914 155.309 425.397C155.618 425.867 155.987 426.102 156.416 426.102ZM156.899 433.789L165.009 418.334H166.76L158.67 433.789H156.899ZM167.263 433.789C166.552 433.789 165.921 433.601 165.371 433.226C164.834 432.85 164.405 432.307 164.083 431.596C163.775 430.885 163.62 430.033 163.62 429.04C163.62 428.034 163.775 427.182 164.083 426.484C164.405 425.786 164.834 425.257 165.371 424.894C165.921 424.519 166.552 424.331 167.263 424.331C167.96 424.331 168.577 424.519 169.114 424.894C169.664 425.257 170.093 425.786 170.402 426.484C170.724 427.182 170.885 428.034 170.885 429.04C170.885 430.033 170.724 430.885 170.402 431.596C170.093 432.307 169.664 432.85 169.114 433.226C168.577 433.601 167.96 433.789 167.263 433.789ZM167.263 432.099C167.692 432.099 168.054 431.864 168.349 431.394C168.644 430.911 168.792 430.127 168.792 429.04C168.792 427.926 168.644 427.148 168.349 426.705C168.054 426.249 167.692 426.021 167.263 426.021C166.82 426.021 166.451 426.249 166.156 426.705C165.861 427.148 165.713 427.926 165.713 429.04C165.713 430.127 165.861 430.911 166.156 431.394C166.451 431.864 166.82 432.099 167.263 432.099Z" fill="white"/>
<path d="M51.0924 324.446H63.4485V326.237H51.0924V324.446ZM51.9578 330.04H62.563V331.73H51.9578V330.04ZM51.1729 332.737H63.207V334.568H51.1729V332.737ZM55.5801 320.179H57.8742V335.936H55.5801V320.179ZM52.1791 321.669H62.3417V329.074H52.0785V327.243H60.2085V323.48H52.1791V321.669ZM45.498 321.266H50.0661V323.379H45.498V321.266ZM47.1884 327.022H50.046V329.114H47.1281L47.1884 327.022ZM49.2008 327.022H49.6234L50.046 326.961L51.3943 327.283C51.126 330.288 50.5894 332.757 49.7844 334.689C48.9929 336.621 47.933 338.083 46.6048 339.076C46.4975 338.915 46.3365 338.727 46.1219 338.512C45.9072 338.311 45.6858 338.116 45.4578 337.929C45.2297 337.741 45.0352 337.593 44.8742 337.486C46.1353 336.627 47.1213 335.373 47.8324 333.723C48.5434 332.073 48.9996 329.973 49.2008 327.424V327.022ZM47.2689 330.261C47.658 331.603 48.1678 332.69 48.7983 333.521C49.4289 334.34 50.1668 334.97 51.012 335.413C51.8572 335.842 52.7963 336.138 53.8293 336.299C54.8623 336.446 55.9758 336.52 57.1698 336.52C57.3979 336.52 57.7266 336.52 58.1559 336.52C58.5986 336.52 59.0883 336.52 59.6249 336.52C60.1616 336.52 60.7049 336.52 61.255 336.52C61.805 336.507 62.3081 336.5 62.7643 336.5C63.2338 336.486 63.6095 336.48 63.8912 336.48C63.7839 336.641 63.6698 336.855 63.5491 337.124C63.4418 337.379 63.3411 337.64 63.2472 337.908C63.1533 338.19 63.0795 338.445 63.0259 338.673H61.9593H57.0893C55.6538 338.673 54.3324 338.573 53.125 338.371C51.9309 338.17 50.851 337.794 49.885 337.244C48.9191 336.694 48.0672 335.91 47.3293 334.89C46.6048 333.857 45.9944 332.515 45.498 330.865L47.2689 330.261ZM46.2024 330.02C46.1487 329.872 46.0615 329.685 45.9408 329.456C45.8334 329.215 45.7194 328.98 45.5986 328.752C45.4779 328.511 45.3639 328.316 45.2565 328.169C45.4712 328.115 45.706 327.961 45.9609 327.706C46.2292 327.451 46.464 327.156 46.6652 326.82C46.8128 326.592 47.0341 326.203 47.3293 325.653C47.6379 325.09 47.9598 324.439 48.2952 323.701C48.6441 322.95 48.9459 322.185 49.2008 321.407V321.306L50.046 320.964L51.4949 321.93C50.9449 323.245 50.3412 324.506 49.6838 325.713C49.0264 326.921 48.3959 327.961 47.7921 328.833V328.873C47.7921 328.873 47.7116 328.913 47.5507 328.994C47.3897 329.061 47.2018 329.155 46.9872 329.275C46.7725 329.396 46.5847 329.524 46.4237 329.658C46.2761 329.792 46.2024 329.913 46.2024 330.02ZM65.7828 325.512H72.8664V327.182H65.7828V325.512ZM68.2782 326.015H70.4717V330.181H68.2782V326.015ZM65.5816 329.939C66.5073 329.846 67.6074 329.725 68.8819 329.577C70.1698 329.416 71.4712 329.255 72.7859 329.094L72.8664 330.905C71.6322 331.08 70.3979 331.248 69.1636 331.408C67.9294 331.569 66.8226 331.717 65.8432 331.851L65.5816 329.939ZM75.4221 325.874H77.4144V327.686C77.4144 328.222 77.3339 328.766 77.1729 329.316C77.0119 329.852 76.7034 330.355 76.2472 330.825C75.7911 331.294 75.1337 331.704 74.2751 332.052C74.1678 331.918 74.0202 331.764 73.8324 331.59C73.6445 331.402 73.4433 331.227 73.2286 331.066C73.0274 330.892 72.853 330.758 72.7054 330.664C73.4835 330.382 74.0671 330.08 74.4562 329.758C74.8453 329.436 75.1002 329.094 75.2209 328.732C75.3551 328.356 75.4221 327.987 75.4221 327.625V325.874ZM78.8231 325.412H81.0769V329.235C81.0769 329.41 81.0769 329.544 81.0769 329.638C81.0903 329.732 81.1105 329.799 81.1373 329.839C81.1641 329.906 81.2312 329.939 81.3385 329.939C81.3788 329.939 81.4257 329.939 81.4794 329.939C81.5465 329.939 81.6001 329.939 81.6404 329.939C81.6941 329.939 81.741 329.933 81.7813 329.919C81.8215 329.906 81.8618 329.886 81.902 329.859C81.9288 329.832 81.9557 329.792 81.9825 329.738C82.0093 329.685 82.0295 329.597 82.0429 329.477C82.0697 329.369 82.0831 329.188 82.0831 328.933C82.0965 328.678 82.1099 328.39 82.1234 328.068C82.3112 328.229 82.5527 328.39 82.8478 328.551C83.1564 328.698 83.4381 328.819 83.693 328.913C83.6796 329.289 83.6461 329.664 83.5924 330.04C83.5387 330.402 83.4851 330.671 83.4314 330.845C83.2838 331.207 83.0558 331.469 82.7472 331.63C82.613 331.697 82.4453 331.751 82.2441 331.791C82.0429 331.818 81.855 331.831 81.6806 331.831C81.5331 331.831 81.3587 331.831 81.1574 331.831C80.9696 331.831 80.8086 331.831 80.6745 331.831C80.433 331.831 80.1848 331.791 79.9299 331.71C79.6884 331.63 79.4804 331.509 79.306 331.348C79.1316 331.174 79.0042 330.952 78.9237 330.684C78.8566 330.402 78.8231 329.939 78.8231 329.295V325.412ZM65.4206 332.596H83.7333V334.487H65.4206V332.596ZM73.3695 331.429H75.724V339.056H73.3695V331.429ZM73.128 328.652L73.9732 327.303C74.483 327.504 75.0465 327.746 75.6636 328.028C76.2808 328.309 76.871 328.584 77.4345 328.853C78.0114 329.121 78.4877 329.363 78.8633 329.577L78.0181 331.147C77.6559 330.919 77.1863 330.657 76.6094 330.362C76.046 330.067 75.4557 329.772 74.8385 329.477C74.2348 329.168 73.6647 328.893 73.128 328.652ZM73.5305 325.412H79.5676V326.981H73.5305V325.412ZM67.9964 321.246H74.3153V323.057H67.9964V321.246ZM76.2673 321.246H83.854V323.057H76.2673V321.246ZM68.0971 319.978L70.2302 320.642C69.8143 321.487 69.2844 322.319 68.6404 323.138C67.9964 323.943 67.3458 324.62 66.6884 325.17C66.5811 325.023 66.4268 324.848 66.2256 324.647C66.0377 324.432 65.8365 324.224 65.6218 324.023C65.4206 323.808 65.2395 323.634 65.0785 323.5C65.6822 323.071 66.2524 322.547 66.789 321.93C67.3391 321.3 67.7751 320.649 68.0971 319.978ZM76.3478 319.978L78.5615 320.562C78.2126 321.447 77.7565 322.306 77.193 323.138C76.6296 323.956 76.046 324.633 75.4423 325.17C75.3081 325.036 75.127 324.882 74.8989 324.707C74.6843 324.533 74.4629 324.358 74.2348 324.184C74.0068 323.996 73.8122 323.849 73.6512 323.741C74.2281 323.285 74.7581 322.728 75.241 322.071C75.724 321.4 76.0929 320.703 76.3478 319.978ZM69.2642 323.661L70.7937 322.514C71.1022 322.796 71.4309 323.117 71.7797 323.48C72.1285 323.842 72.3969 324.164 72.5847 324.446L70.9748 325.734C70.8004 325.452 70.5455 325.116 70.2101 324.727C69.8881 324.325 69.5728 323.969 69.2642 323.661ZM78.0382 323.58L79.7085 322.474C80.0037 322.728 80.3122 323.024 80.6342 323.359C80.9562 323.681 81.2044 323.976 81.3788 324.244L79.6481 325.452C79.4871 325.197 79.2524 324.895 78.9438 324.546C78.6352 324.184 78.3334 323.862 78.0382 323.58ZM70.5723 334.608L72.5444 335.353C72.1285 335.876 71.6254 336.366 71.0351 336.822C70.4448 337.278 69.8009 337.68 69.1033 338.029C68.4056 338.378 67.6879 338.66 66.95 338.874C66.8427 338.673 66.6951 338.445 66.5073 338.19C66.3329 337.949 66.1451 337.714 65.9438 337.486C65.7426 337.258 65.5548 337.057 65.3804 336.882C66.0646 336.748 66.7286 336.574 67.3726 336.359C68.03 336.131 68.6337 335.869 69.1838 335.574C69.7472 335.279 70.2101 334.957 70.5723 334.608ZM76.6899 335.936L78.3401 334.467C78.9036 334.682 79.5073 334.944 80.1512 335.252C80.8086 335.561 81.4392 335.869 82.0429 336.178C82.6466 336.486 83.1564 336.782 83.5723 337.063L81.8014 338.713C81.4392 338.445 80.9629 338.143 80.3726 337.808C79.7957 337.472 79.1786 337.137 78.5212 336.802C77.8772 336.466 77.2668 336.178 76.6899 335.936Z" fill="white"/>
<path d="M64.9422 366.423C64.2446 366.423 63.5671 366.275 62.9097 365.98C62.2657 365.685 61.6956 365.236 61.1992 364.632C60.7028 364.015 60.307 363.237 60.0119 362.298C59.7301 361.345 59.5893 360.211 59.5893 358.897C59.5893 357.515 59.7435 356.321 60.0521 355.315C60.3741 354.308 60.8034 353.49 61.34 352.859C61.8767 352.215 62.4871 351.739 63.1713 351.431C63.8689 351.122 64.6001 350.968 65.3648 350.968C66.2771 350.968 67.0619 351.136 67.7193 351.471C68.3901 351.793 68.9468 352.189 69.3896 352.658L67.8199 354.429C67.565 354.134 67.2296 353.879 66.8137 353.664C66.3978 353.45 65.9752 353.342 65.5459 353.342C64.9422 353.342 64.3922 353.517 63.8958 353.866C63.4128 354.214 63.0237 354.791 62.7286 355.596C62.4334 356.401 62.2859 357.501 62.2859 358.897C62.2859 360.185 62.3999 361.218 62.628 361.996C62.8694 362.76 63.1847 363.317 63.5738 363.666C63.9628 364.015 64.3989 364.189 64.8818 364.189C65.2575 364.189 65.5929 364.089 65.888 363.887C66.1966 363.673 66.4448 363.364 66.6326 362.962C66.8204 362.546 66.9143 362.036 66.9143 361.432C66.9143 360.842 66.8204 360.359 66.6326 359.983C66.4582 359.608 66.21 359.326 65.888 359.138C65.5795 358.95 65.2105 358.856 64.7812 358.856C64.3787 358.856 63.9561 358.984 63.5134 359.239C63.0707 359.48 62.6615 359.91 62.2859 360.527L62.145 358.534C62.4133 358.159 62.7286 357.837 63.0908 357.568C63.4665 357.3 63.8488 357.099 64.2379 356.965C64.6403 356.831 65.0026 356.763 65.3246 356.763C66.1563 356.763 66.8942 356.931 67.5382 357.267C68.1956 357.602 68.7054 358.112 69.0676 358.796C69.4298 359.48 69.6109 360.359 69.6109 361.432C69.6109 362.452 69.3963 363.337 68.967 364.089C68.5511 364.826 67.9876 365.403 67.2766 365.819C66.5655 366.222 65.7874 366.423 64.9422 366.423ZM74.7192 360.406C74.0216 360.406 73.3978 360.218 72.8477 359.842C72.2977 359.467 71.8684 358.923 71.5598 358.212C71.2512 357.501 71.0969 356.649 71.0969 355.657C71.0969 354.664 71.2512 353.819 71.5598 353.121C71.8684 352.423 72.2977 351.894 72.8477 351.531C73.3978 351.156 74.0216 350.968 74.7192 350.968C75.4437 350.968 76.0742 351.156 76.6109 351.531C77.1609 351.894 77.5902 352.423 77.8988 353.121C78.2074 353.819 78.3616 354.664 78.3616 355.657C78.3616 356.649 78.2074 357.501 77.8988 358.212C77.5902 358.923 77.1609 359.467 76.6109 359.842C76.0742 360.218 75.4437 360.406 74.7192 360.406ZM74.7192 358.736C75.1485 358.736 75.5108 358.501 75.8059 358.031C76.1145 357.548 76.2688 356.757 76.2688 355.657C76.2688 354.57 76.1145 353.799 75.8059 353.342C75.5108 352.873 75.1485 352.638 74.7192 352.638C74.2899 352.638 73.921 352.873 73.6124 353.342C73.3173 353.799 73.1697 354.57 73.1697 355.657C73.1697 356.757 73.3173 357.548 73.6124 358.031C73.921 358.501 74.2899 358.736 74.7192 358.736ZM75.2022 366.423L83.3121 350.968H85.0629L76.9731 366.423H75.2022ZM85.566 366.423C84.8549 366.423 84.2244 366.235 83.6743 365.859C83.1377 365.484 82.7084 364.94 82.3864 364.229C82.0778 363.518 81.9236 362.666 81.9236 361.674C81.9236 360.667 82.0778 359.816 82.3864 359.118C82.7084 358.42 83.1377 357.89 83.6743 357.528C84.2244 357.153 84.8549 356.965 85.566 356.965C86.2636 356.965 86.8807 357.153 87.4174 357.528C87.9674 357.89 88.3967 358.42 88.7053 359.118C89.0273 359.816 89.1883 360.667 89.1883 361.674C89.1883 362.666 89.0273 363.518 88.7053 364.229C88.3967 364.94 87.9674 365.484 87.4174 365.859C86.8807 366.235 86.2636 366.423 85.566 366.423ZM85.566 364.733C85.9953 364.733 86.3575 364.498 86.6527 364.028C86.9478 363.545 87.0954 362.76 87.0954 361.674C87.0954 360.56 86.9478 359.782 86.6527 359.339C86.3575 358.883 85.9953 358.655 85.566 358.655C85.1232 358.655 84.7543 358.883 84.4592 359.339C84.164 359.782 84.0164 360.56 84.0164 361.674C84.0164 362.76 84.164 363.545 84.4592 364.028C84.7543 364.498 85.1232 364.733 85.566 364.733Z" fill="white"/>
<path d="M5.3407 173.524V174.329H15.9057V173.524H5.3407ZM5.3407 171.35V172.135H15.9057V171.35H5.3407ZM3.12708 169.861H18.2199V175.798H3.12708V169.861ZM7.23234 168.633H9.58682V175.415H7.23234V168.633ZM11.5187 168.633H13.9134V175.415H11.5187V168.633ZM4.17352 176.421H19.0048V178.132H4.17352V176.421ZM2.98621 176.421H5.28033V179.058C5.28033 179.688 5.2535 180.372 5.19983 181.11C5.14617 181.848 5.03884 182.599 4.87785 183.364C4.71686 184.129 4.48879 184.873 4.19364 185.598C3.91191 186.309 3.53626 186.96 3.06671 187.55C2.91913 187.429 2.7179 187.288 2.46299 187.127C2.22151 186.98 1.96661 186.832 1.69829 186.685C1.44339 186.537 1.22203 186.423 1.0342 186.342C1.6245 185.618 2.06052 184.826 2.34225 183.968C2.62398 183.096 2.79839 182.23 2.86547 181.372C2.94597 180.513 2.98621 179.735 2.98621 179.037V176.421ZM4.63637 178.756H18.2401V180.245H4.63637V178.756ZM3.97228 180.949H19.5481V182.64H3.97228V180.949ZM17.3345 182.137L19.0048 183.565C18.5352 183.767 18.0589 183.961 17.576 184.149C17.093 184.323 16.6235 184.491 16.1673 184.652C15.7112 184.8 15.2819 184.927 14.8794 185.034L13.7525 183.907C14.1281 183.773 14.5306 183.606 14.9599 183.404C15.4026 183.19 15.8319 182.975 16.2478 182.76C16.6771 182.532 17.0393 182.324 17.3345 182.137ZM11.8608 181.452C12.2633 182.271 12.8268 182.968 13.5512 183.545C14.2891 184.109 15.1947 184.558 16.2679 184.894C17.3546 185.229 18.5889 185.457 19.9707 185.578C19.7561 185.792 19.5213 186.088 19.2664 186.463C19.0249 186.839 18.8438 187.174 18.723 187.469C17.207 187.268 15.8856 186.933 14.7586 186.463C13.6317 186.007 12.6725 185.403 11.8809 184.652C11.0894 183.887 10.4454 182.955 9.94905 181.855L11.8608 181.452ZM6.14565 187.691L6.06516 186.041L6.87011 185.376L11.5992 184.471C11.5724 184.753 11.559 185.081 11.559 185.457C11.559 185.819 11.5657 186.114 11.5791 186.342C10.4924 186.57 9.61366 186.758 8.94286 186.906C8.28548 187.053 7.76897 187.174 7.39333 187.268C7.01768 187.362 6.74266 187.436 6.56825 187.489C6.39385 187.557 6.25298 187.624 6.14565 187.691ZM6.14565 187.691C6.11882 187.503 6.06516 187.288 5.98466 187.047C5.91758 186.805 5.83038 186.564 5.72305 186.322C5.62914 186.094 5.54194 185.92 5.46144 185.799C5.64926 185.692 5.83038 185.537 6.00478 185.336C6.19261 185.122 6.28652 184.8 6.28652 184.37V181.513L8.54039 181.593V185.799C8.54039 185.799 8.45989 185.839 8.2989 185.92C8.15132 186 7.95679 186.101 7.71531 186.222C7.47382 186.356 7.23234 186.51 6.99085 186.685C6.74937 186.859 6.54813 187.027 6.38714 187.188C6.22615 187.362 6.14565 187.53 6.14565 187.691ZM30.2942 172.819H39.6116V175.093H30.2942V172.819ZM33.6147 168.613H36.0496V187.51H33.6147V168.613ZM33.5945 173.906L35.3453 174.51C35.077 175.462 34.7617 176.421 34.3995 177.387C34.0507 178.353 33.6482 179.292 33.1921 180.205C32.7493 181.104 32.2731 181.942 31.7633 182.72C31.2535 183.498 30.7101 184.169 30.1332 184.733C29.9991 184.384 29.7911 184.001 29.5094 183.585C29.2411 183.17 28.9929 182.814 28.7648 182.519C29.3015 182.023 29.8113 181.446 30.2942 180.788C30.7906 180.117 31.2468 179.406 31.6626 178.655C32.092 177.89 32.4676 177.106 32.7896 176.301C33.1116 175.496 33.3799 174.697 33.5945 173.906ZM36.1905 173.906C36.4722 174.952 36.821 176.005 37.2369 177.065C37.6528 178.112 38.1157 179.098 38.6255 180.024C39.1487 180.936 39.6853 181.714 40.2354 182.358C39.9537 182.573 39.6317 182.861 39.2694 183.223C38.9206 183.572 38.6389 183.907 38.4242 184.229C37.8876 183.465 37.3778 182.546 36.8948 181.472C36.4119 180.386 35.9758 179.232 35.5868 178.011C35.1977 176.79 34.869 175.576 34.6007 174.369L36.1905 173.906ZM21.4599 172.819H29.6704V175.093H21.4599V172.819ZM24.6596 168.613H27.014V187.51H24.6596V168.613ZM24.5187 174.308L26.0682 174.872C25.8804 175.704 25.6456 176.556 25.3639 177.428C25.0956 178.286 24.7937 179.131 24.4583 179.963C24.1229 180.795 23.754 181.566 23.3515 182.277C22.9624 182.988 22.5466 183.606 22.1038 184.129C21.9965 183.78 21.8154 183.384 21.5605 182.941C21.3056 182.485 21.0842 182.096 20.8964 181.774C21.2989 181.332 21.6812 180.822 22.0435 180.245C22.4057 179.655 22.7478 179.024 23.0698 178.353C23.3918 177.682 23.6735 177.005 23.915 176.321C24.1699 175.637 24.3711 174.966 24.5187 174.308ZM26.9939 175.395C27.1147 175.502 27.2824 175.677 27.497 175.918C27.7117 176.146 27.9464 176.408 28.2013 176.703C28.4563 176.985 28.7112 177.273 28.9661 177.568C29.221 177.864 29.449 178.125 29.6503 178.353C29.8515 178.581 29.9991 178.756 30.093 178.876L28.5837 180.969C28.4227 180.661 28.2215 180.312 27.98 179.923C27.7385 179.52 27.4769 179.118 27.1952 178.715C26.9134 178.3 26.6384 177.911 26.3701 177.548C26.1152 177.173 25.9005 176.864 25.7261 176.623L26.9939 175.395ZM41.7447 180.949H59.6951V182.941H41.7447V180.949ZM41.805 171.934H59.6347V173.825H41.805V171.934ZM42.6301 175.596H58.8499V177.428H42.6301V175.596ZM43.6162 178.333H57.9242V180.064H43.6162V178.333ZM49.4521 176.482H51.8468V187.55H49.4521V176.482ZM47.7416 168.613H49.9954V172.88H47.7416V168.613ZM51.4645 168.613H53.7586V172.739H51.4645V168.613ZM56.1131 168.794L58.6286 169.398C58.3066 169.948 57.9846 170.485 57.6626 171.008C57.3406 171.518 57.0455 171.954 56.7772 172.316L54.8252 171.712C54.9861 171.444 55.1471 171.142 55.3081 170.807C55.4691 170.458 55.6167 170.109 55.7508 169.76C55.8984 169.398 56.0192 169.076 56.1131 168.794ZM53.6378 173.664L56.1936 174.308C55.8984 174.657 55.61 174.972 55.3282 175.254C55.0599 175.523 54.805 175.764 54.5635 175.979L52.5109 175.375C52.7122 175.12 52.9134 174.832 53.1146 174.51C53.3293 174.188 53.5037 173.906 53.6378 173.664ZM43.2741 169.438L45.3468 168.734C45.642 169.15 45.9371 169.633 46.2323 170.183C46.5274 170.72 46.7421 171.182 46.8762 171.572L44.6828 172.376C44.5754 171.974 44.3809 171.498 44.0992 170.948C43.8308 170.398 43.5558 169.895 43.2741 169.438ZM45.6084 174.127L47.8824 173.624C48.0568 173.879 48.2312 174.168 48.4057 174.489C48.5935 174.811 48.7343 175.1 48.8283 175.355L46.4536 175.918C46.3866 175.677 46.2658 175.388 46.0914 175.053C45.9304 174.704 45.7694 174.396 45.6084 174.127ZM47.2586 183.606L48.9691 184.39C48.5264 184.766 47.9696 185.128 47.2988 185.477C46.6415 185.826 45.9506 186.134 45.2261 186.403C44.5016 186.685 43.7906 186.906 43.093 187.067C42.9454 186.812 42.7307 186.51 42.449 186.161C42.1673 185.812 41.9057 185.537 41.6642 185.336C42.335 185.229 43.0259 185.088 43.7369 184.914C44.448 184.739 45.1121 184.538 45.7292 184.31C46.3463 184.082 46.8561 183.847 47.2586 183.606ZM52.7122 184.612L54.3221 183.465C54.8721 183.679 55.4758 183.921 56.1332 184.189C56.804 184.457 57.448 184.733 58.0651 185.014C58.6956 185.283 59.2256 185.531 59.6549 185.759L57.9443 187.067C57.5553 186.852 57.0589 186.597 56.4552 186.302C55.8515 186.007 55.2142 185.712 54.5434 185.417C53.886 185.122 53.2756 184.853 52.7122 184.612Z" fill="white"/>
<path d="M15.6684 214.615V212.201H18.8882V202.803H16.1715V200.951C16.9228 200.817 17.5667 200.656 18.1034 200.468C18.6534 200.267 19.1632 200.012 19.6328 199.704H21.8263V212.201H24.6235V214.615H15.6684ZM31.8247 214.897C30.8721 214.897 30.0202 214.729 29.2689 214.394C28.5177 214.059 27.9207 213.589 27.4779 212.985C27.0486 212.382 26.834 211.691 26.834 210.913C26.834 210.269 26.948 209.705 27.1761 209.222C27.4176 208.726 27.7328 208.297 28.1219 207.934C28.5109 207.572 28.9335 207.27 29.3897 207.029V206.928C28.8262 206.526 28.3567 206.036 27.981 205.459C27.6054 204.869 27.4176 204.185 27.4176 203.406C27.4176 202.601 27.6121 201.904 28.0011 201.314C28.3902 200.723 28.9201 200.267 29.5909 199.945C30.2751 199.623 31.0466 199.462 31.9052 199.462C32.7906 199.462 33.5553 199.63 34.1993 199.965C34.8432 200.287 35.3396 200.743 35.6884 201.334C36.0507 201.924 36.2318 202.622 36.2318 203.427C36.2318 203.91 36.1379 204.366 35.9501 204.795C35.7756 205.224 35.5409 205.613 35.2457 205.962C34.964 206.298 34.6554 206.586 34.32 206.827V206.928C34.7896 207.17 35.2122 207.471 35.5878 207.834C35.9635 208.196 36.2653 208.632 36.4934 209.142C36.7215 209.638 36.8355 210.228 36.8355 210.913C36.8355 211.664 36.6208 212.341 36.1915 212.945C35.7756 213.549 35.1921 214.025 34.4408 214.374C33.6895 214.723 32.8174 214.897 31.8247 214.897ZM32.7504 206.103C33.1126 205.714 33.3809 205.311 33.5553 204.896C33.7297 204.48 33.8169 204.05 33.8169 203.608C33.8169 203.205 33.7364 202.85 33.5754 202.541C33.4279 202.219 33.2065 201.971 32.9114 201.797C32.6162 201.622 32.2607 201.535 31.8448 201.535C31.335 201.535 30.9057 201.696 30.5569 202.018C30.2081 202.34 30.0337 202.803 30.0337 203.406C30.0337 203.863 30.1477 204.258 30.3758 204.594C30.6172 204.916 30.9459 205.197 31.3618 205.439C31.7777 205.667 32.2406 205.888 32.7504 206.103ZM31.885 212.804C32.3144 212.804 32.69 212.73 33.012 212.583C33.3474 212.422 33.609 212.194 33.7968 211.899C33.9846 211.59 34.0785 211.228 34.0785 210.812C34.0785 210.423 33.9913 210.088 33.8169 209.806C33.6559 209.511 33.4279 209.256 33.1327 209.041C32.8376 208.813 32.4888 208.605 32.0863 208.417C31.6838 208.229 31.2411 208.028 30.7581 207.814C30.3556 208.149 30.0269 208.558 29.772 209.041C29.5171 209.511 29.3897 210.027 29.3897 210.591C29.3897 211.033 29.497 211.422 29.7117 211.758C29.9397 212.08 30.2416 212.335 30.6172 212.523C30.9929 212.71 31.4155 212.804 31.885 212.804ZM42.0243 208.88C41.3267 208.88 40.7028 208.692 40.1528 208.317C39.6027 207.941 39.1734 207.398 38.8649 206.687C38.5563 205.976 38.402 205.124 38.402 204.131C38.402 203.138 38.5563 202.293 38.8649 201.595C39.1734 200.898 39.6027 200.368 40.1528 200.005C40.7028 199.63 41.3267 199.442 42.0243 199.442C42.7488 199.442 43.3793 199.63 43.9159 200.005C44.466 200.368 44.8953 200.898 45.2039 201.595C45.5124 202.293 45.6667 203.138 45.6667 204.131C45.6667 205.124 45.5124 205.976 45.2039 206.687C44.8953 207.398 44.466 207.941 43.9159 208.317C43.3793 208.692 42.7488 208.88 42.0243 208.88ZM42.0243 207.21C42.4536 207.21 42.8158 206.975 43.111 206.505C43.4196 206.023 43.5738 205.231 43.5738 204.131C43.5738 203.044 43.4196 202.273 43.111 201.817C42.8158 201.347 42.4536 201.112 42.0243 201.112C41.595 201.112 41.2261 201.347 40.9175 201.817C40.6223 202.273 40.4748 203.044 40.4748 204.131C40.4748 205.231 40.6223 206.023 40.9175 206.505C41.2261 206.975 41.595 207.21 42.0243 207.21ZM42.5073 214.897L50.6172 199.442H52.3679L44.2782 214.897H42.5073ZM52.871 214.897C52.16 214.897 51.5294 214.709 50.9794 214.334C50.4428 213.958 50.0135 213.415 49.6915 212.704C49.3829 211.993 49.2286 211.141 49.2286 210.148C49.2286 209.142 49.3829 208.29 49.6915 207.592C50.0135 206.895 50.4428 206.365 50.9794 206.002C51.5294 205.627 52.16 205.439 52.871 205.439C53.5687 205.439 54.1858 205.627 54.7224 206.002C55.2725 206.365 55.7018 206.895 56.0103 207.592C56.3323 208.29 56.4933 209.142 56.4933 210.148C56.4933 211.141 56.3323 211.993 56.0103 212.704C55.7018 213.415 55.2725 213.958 54.7224 214.334C54.1858 214.709 53.5687 214.897 52.871 214.897ZM52.871 213.207C53.3003 213.207 53.6626 212.972 53.9577 212.502C54.2529 212.019 54.4004 211.235 54.4004 210.148C54.4004 209.034 54.2529 208.256 53.9577 207.814C53.6626 207.357 53.3003 207.129 52.871 207.129C52.4283 207.129 52.0594 207.357 51.7642 207.814C51.4691 208.256 51.3215 209.034 51.3215 210.148C51.3215 211.235 51.4691 212.019 51.7642 212.502C52.0594 212.972 52.4283 213.207 52.871 213.207Z" fill="white"/>
<path d="M121.714 15.3198H139.825V17.5535H121.714V15.3198ZM122.317 5.01639H139.302V7.23001H122.317V5.01639ZM126.664 8.49781H134.834V10.5102H126.664V8.49781ZM126.664 11.8585H134.834V13.8709H126.664V11.8585ZM125.135 3.06438H127.529V16.5272H125.135V3.06438ZM133.909 3.06438H136.364V16.5272H133.909V3.06438ZM131.796 19.1836L133.506 17.6944C134.284 17.9359 135.063 18.2176 135.841 18.5396C136.632 18.8482 137.383 19.1567 138.094 19.4653C138.819 19.7739 139.429 20.0556 139.926 20.3105L137.612 21.8399C137.182 21.585 136.652 21.3033 136.022 20.9947C135.391 20.6861 134.714 20.3776 133.989 20.069C133.265 19.747 132.534 19.4519 131.796 19.1836ZM127.711 17.4932L129.723 19.0628C129.119 19.4116 128.428 19.7604 127.65 20.1093C126.886 20.4715 126.101 20.8002 125.296 21.0953C124.504 21.4039 123.746 21.6655 123.022 21.8801C122.847 21.6252 122.606 21.3234 122.297 20.9746C121.989 20.6258 121.707 20.3306 121.452 20.0891C122.163 19.8879 122.908 19.6464 123.686 19.3647C124.477 19.0695 125.229 18.761 125.94 18.439C126.651 18.1036 127.241 17.7883 127.711 17.4932ZM153.006 3.10463H155.159V17.1309H153.006V3.10463ZM146.245 10.9932L158.118 6.32444L159.023 8.41732L147.17 13.1263L146.245 10.9932ZM148.7 5.278H150.994V18.1572C150.994 18.5597 151.027 18.8683 151.094 19.0829C151.162 19.2842 151.302 19.4183 151.517 19.4854C151.732 19.5391 152.06 19.5659 152.503 19.5659C152.637 19.5659 152.839 19.5659 153.107 19.5659C153.389 19.5659 153.704 19.5659 154.053 19.5659C154.415 19.5659 154.77 19.5659 155.119 19.5659C155.481 19.5659 155.803 19.5659 156.085 19.5659C156.38 19.5659 156.595 19.5659 156.729 19.5659C157.132 19.5659 157.433 19.4921 157.635 19.3445C157.849 19.197 158.004 18.9287 158.098 18.5396C158.191 18.1371 158.259 17.5535 158.299 16.7888C158.581 16.9766 158.929 17.1578 159.345 17.3322C159.761 17.5066 160.123 17.6273 160.432 17.6944C160.325 18.6872 160.157 19.4787 159.929 20.069C159.701 20.6593 159.345 21.0819 158.862 21.3368C158.393 21.6051 157.742 21.7393 156.91 21.7393C156.776 21.7393 156.555 21.7393 156.246 21.7393C155.938 21.7393 155.589 21.7393 155.2 21.7393C154.811 21.7393 154.422 21.7393 154.033 21.7393C153.643 21.7393 153.295 21.7393 152.986 21.7393C152.691 21.7393 152.476 21.7393 152.342 21.7393C151.403 21.7393 150.665 21.632 150.129 21.4173C149.605 21.2161 149.236 20.8538 149.022 20.3306C148.807 19.8208 148.7 19.0964 148.7 18.1572V5.278ZM145.701 3.08451L147.975 3.80896C147.546 4.9359 147.036 6.07625 146.446 7.23001C145.856 8.37036 145.212 9.45705 144.514 10.4901C143.83 11.5097 143.125 12.4018 142.401 13.1665C142.32 12.9653 142.206 12.7104 142.059 12.4018C141.911 12.0799 141.75 11.7579 141.576 11.4359C141.402 11.1139 141.247 10.8523 141.113 10.6511C141.717 10.0339 142.3 9.32289 142.864 8.51794C143.441 7.71298 143.971 6.84766 144.454 5.92196C144.95 4.99627 145.366 4.05045 145.701 3.08451ZM143.669 8.6588L145.963 6.36469V6.38481V21.8801H143.669V8.6588ZM157.474 6.84766H157.252L158.057 6.28419L159.868 6.84766L159.788 7.23001C159.761 8.19596 159.707 9.22898 159.627 10.3291C159.56 11.4292 159.473 12.5092 159.365 13.569C159.271 14.6289 159.144 15.5814 158.983 16.4266L157.011 15.8631C157.078 15.3131 157.138 14.6758 157.192 13.9514C157.246 13.2135 157.293 12.4354 157.333 11.617C157.373 10.7986 157.4 9.98027 157.413 9.1619C157.44 8.34353 157.46 7.57212 157.474 6.84766Z" fill="white"/>
<path d="M136.005 48.9859V46.571H139.225V37.1732H136.508V35.3218C137.26 35.1877 137.904 35.0267 138.44 34.8389C138.99 34.6376 139.5 34.3827 139.97 34.0742H142.163V46.571H144.96V48.9859H136.005ZM153.007 48.9859V39.8296C153.007 39.4003 153.02 38.8905 153.047 38.3002C153.074 37.6964 153.101 37.1732 153.128 36.7305H153.027C152.853 37.133 152.665 37.5355 152.463 37.9379C152.262 38.3404 152.054 38.7496 151.84 39.1655L149.525 42.8683H157.535V45.1221H146.648V43.1097L152.202 34.0742H155.764V48.9859H153.007ZM162.361 43.2506C161.664 43.2506 161.04 43.0628 160.49 42.6871C159.94 42.3115 159.51 41.7682 159.202 41.0571C158.893 40.3461 158.739 39.4942 158.739 38.5014C158.739 37.5086 158.893 36.6634 159.202 35.9658C159.51 35.2682 159.94 34.7382 160.49 34.376C161.04 34.0004 161.664 33.8125 162.361 33.8125C163.086 33.8125 163.716 34.0004 164.253 34.376C164.803 34.7382 165.232 35.2682 165.541 35.9658C165.849 36.6634 166.004 37.5086 166.004 38.5014C166.004 39.4942 165.849 40.3461 165.541 41.0571C165.232 41.7682 164.803 42.3115 164.253 42.6871C163.716 43.0628 163.086 43.2506 162.361 43.2506ZM162.361 41.5803C162.791 41.5803 163.153 41.3456 163.448 40.876C163.756 40.393 163.911 39.6015 163.911 38.5014C163.911 37.4147 163.756 36.6433 163.448 36.1872C163.153 35.7176 162.791 35.4828 162.361 35.4828C161.932 35.4828 161.563 35.7176 161.254 36.1872C160.959 36.6433 160.812 37.4147 160.812 38.5014C160.812 39.6015 160.959 40.393 161.254 40.876C161.563 41.3456 161.932 41.5803 162.361 41.5803ZM162.844 49.2676L170.954 33.8125H172.705L164.615 49.2676H162.844ZM173.208 49.2676C172.497 49.2676 171.866 49.0798 171.316 48.7042C170.78 48.3285 170.35 47.7852 170.028 47.0741C169.72 46.3631 169.566 45.5112 169.566 44.5184C169.566 43.5122 169.72 42.6603 170.028 41.9627C170.35 41.2651 170.78 40.7351 171.316 40.3729C171.866 39.9973 172.497 39.8094 173.208 39.8094C173.906 39.8094 174.523 39.9973 175.059 40.3729C175.609 40.7351 176.039 41.2651 176.347 41.9627C176.669 42.6603 176.83 43.5122 176.83 44.5184C176.83 45.5112 176.669 46.3631 176.347 47.0741C176.039 47.7852 175.609 48.3285 175.059 48.7042C174.523 49.0798 173.906 49.2676 173.208 49.2676ZM173.208 47.5772C173.637 47.5772 173.999 47.3425 174.295 46.8729C174.59 46.3899 174.737 45.6051 174.737 44.5184C174.737 43.4049 174.59 42.6268 174.295 42.1841C173.999 41.7279 173.637 41.4998 173.208 41.4998C172.765 41.4998 172.396 41.7279 172.101 42.1841C171.806 42.6268 171.658 43.4049 171.658 44.5184C171.658 45.6051 171.806 46.3899 172.101 46.8729C172.396 47.3425 172.765 47.5772 173.208 47.5772Z" fill="white"/>
</svg>
