<svg width="484" height="501" viewBox="0 0 484 501" fill="none" xmlns="http://www.w3.org/2000/svg">
<path fill-rule="evenodd" clip-rule="evenodd" d="M152.083 47.0175C169.592 46.7571 186.853 49.3261 201.018 59.6192C218.007 71.9636 234.969 87.6304 236.767 108.552C238.664 130.617 228.89 154.772 210.222 166.689C193.199 177.556 172.17 164.705 152.083 162.612C135.654 160.9 117.101 166.87 104.915 155.718C92.4794 144.338 93.0684 125.409 93.0091 108.552C92.9495 91.6116 92.8497 73.2746 104.582 61.0534C116.468 48.6721 134.921 47.2728 152.083 47.0175Z" stroke="white" stroke-width="4"/>
<path fill-rule="evenodd" clip-rule="evenodd" d="M33.4411 496.226C26.902 495.601 20.1672 496.593 14.7912 492.856C8.38406 488.403 2.53027 482.131 2.0374 474.397C1.52455 466.35 6.35589 458.988 12.28 453.453C18.0248 448.086 25.5611 444.499 33.4411 445.057C40.8872 445.584 46.7589 450.779 51.7778 456.249C56.4948 461.389 59.6325 467.491 60.3638 474.397C61.1958 482.254 62.2456 491.789 56.0711 496.796C50.0029 501.716 41.2492 496.971 33.4411 496.226Z" stroke="white" stroke-width="4"/>
<path fill-rule="evenodd" clip-rule="evenodd" d="M281.629 3.39892C353.084 -7.87514 412.852 51.2732 453.092 98.9211C486.181 138.102 486.352 187.091 475.832 233.353C467.259 271.053 430.465 296.442 401.203 327.103C362.985 367.15 344.561 428.659 281.629 436.848C216.339 445.343 155.018 405.422 114.468 364.412C78.2498 327.783 69.4382 278.894 80.4174 233.353C89.6553 195.035 139.478 176.12 167.615 143.963C209.265 96.3638 209.452 14.7869 281.629 3.39892Z" stroke="white" stroke-width="4"/>
</svg>
