<svg width="396" height="596" viewBox="0 0 396 596" fill="none" xmlns="http://www.w3.org/2000/svg">
<path fill-rule="evenodd" clip-rule="evenodd" d="M194.415 467.443C207.743 466.155 222.396 467.243 231.952 476.59C241.56 485.988 242 500.572 242 513.988C242 527.403 240.931 541.389 231.949 551.384C222.553 561.841 208.485 567.643 194.415 566.943C180.914 566.272 170.203 557.153 160.449 547.828C150.409 538.228 138.368 527.836 139.026 513.988C139.671 500.391 153.073 491.98 163.517 483.204C172.712 475.478 182.442 468.6 194.415 467.443Z" stroke="white" stroke-width="4"/>
<path fill-rule="evenodd" clip-rule="evenodd" d="M166.559 542.774C173.098 543.399 179.833 542.407 185.209 546.144C191.616 550.597 197.47 556.869 197.963 564.603C198.475 572.65 193.644 580.012 187.72 585.547C181.975 590.914 174.439 594.501 166.559 593.943C159.113 593.416 153.241 588.221 148.222 582.751C143.505 577.611 140.367 571.509 139.636 564.603C138.804 556.746 137.754 547.211 143.929 542.204C149.997 537.284 158.751 542.029 166.559 542.774Z" stroke="white" stroke-width="4"/>
<path fill-rule="evenodd" clip-rule="evenodd" d="M180.243 6.87139C227.855 15.7619 253.87 61.2741 289.405 94.1976C327.554 129.542 384.432 151.991 392.36 203.398C400.909 258.833 375.475 320.72 329.231 352.439C286.639 381.652 230.748 359.667 180.243 348.889C143.56 341.06 111.379 325.292 83.6472 300.028C54.0863 273.097 30.054 242.246 20.5416 203.398C7.41117 149.774 -13.8385 86.9149 20.9744 44.0745C56.7235 0.0818062 124.53 -3.53156 180.243 6.87139Z" stroke="white" stroke-width="4"/>
</svg>
