<svg width="518" height="559" viewBox="0 0 518 559" fill="none" xmlns="http://www.w3.org/2000/svg">
<path fill-rule="evenodd" clip-rule="evenodd" d="M186.083 47.0175C203.592 46.7571 220.853 49.3261 235.018 59.6192C252.007 71.9636 268.969 87.6304 270.767 108.552C272.664 130.617 262.89 154.772 244.222 166.689C227.199 177.556 206.17 164.705 186.083 162.612C169.654 160.9 151.101 166.87 138.915 155.718C126.479 144.338 127.068 125.409 127.009 108.552C126.949 91.6116 126.85 73.2746 138.582 61.0534C150.468 48.6721 168.921 47.2728 186.083 47.0175Z" stroke="white" stroke-width="4"/>
<path fill-rule="evenodd" clip-rule="evenodd" d="M33.4411 546.226C26.902 545.601 20.1672 546.593 14.7912 542.856C8.38406 538.403 2.53027 532.131 2.0374 524.397C1.52455 516.35 6.35589 508.988 12.28 503.453C18.0248 498.086 25.5611 494.499 33.4411 495.057C40.8872 495.584 46.7589 500.779 51.7778 506.249C56.4948 511.389 59.6325 517.491 60.3638 524.397C61.1958 532.254 62.2456 541.789 56.0711 546.796C50.0029 551.716 41.2492 546.971 33.4411 546.226Z" stroke="white" stroke-width="4"/>
<path fill-rule="evenodd" clip-rule="evenodd" d="M315.629 3.78074C387.084 -10.5704 446.852 64.7216 487.092 125.374C520.181 175.249 520.352 237.609 509.832 296.498C501.259 344.487 464.465 376.805 435.203 415.836C396.985 466.812 378.561 545.11 315.629 555.533C250.339 566.347 189.018 515.531 148.468 463.328C112.25 416.701 103.438 354.469 114.417 296.498C123.655 247.722 173.478 223.643 201.615 182.71C243.265 122.119 243.452 18.2769 315.629 3.78074Z" stroke="white" stroke-width="4"/>
</svg>
