<svg width="281" height="676" viewBox="0 0 281 676" fill="none" xmlns="http://www.w3.org/2000/svg">
<path fill-rule="evenodd" clip-rule="evenodd" d="M223.585 601.557C210.257 602.845 195.604 601.757 186.048 592.41C176.44 583.012 176 568.428 176 555.012C176 541.597 177.069 527.611 186.051 517.616C195.447 507.159 209.515 501.357 223.585 502.057C237.086 502.728 247.797 511.847 257.551 521.172C267.591 530.772 279.632 541.164 278.974 555.012C278.329 568.609 264.927 577.02 254.483 585.796C245.288 593.522 235.558 600.4 223.585 601.557Z" stroke="white" stroke-width="4"/>
<path fill-rule="evenodd" clip-rule="evenodd" d="M212.982 589.083C213.243 606.592 210.674 623.853 200.381 638.018C188.036 655.007 172.37 671.969 151.448 673.767C129.383 675.664 105.228 665.89 93.3109 647.222C82.4441 630.199 95.2953 609.17 97.388 589.083C99.0996 572.654 93.1304 554.101 104.282 541.915C115.662 529.479 134.591 530.068 151.448 530.009C168.388 529.949 186.725 529.85 198.947 541.582C211.328 553.468 212.727 571.921 212.982 589.083Z" stroke="white" stroke-width="4"/>
<path fill-rule="evenodd" clip-rule="evenodd" d="M57.4147 2.44286C70.7428 1.15462 85.3961 2.24325 94.9515 11.5897C104.56 20.9883 105 35.5723 105 48.9879C105 62.4029 103.931 76.3891 94.9495 86.3839C85.5529 96.8409 71.4847 102.643 57.4147 101.943C43.9137 101.272 33.2028 92.1525 23.4493 82.8276C13.409 73.2284 1.36842 62.8363 2.02578 48.9879C2.6712 35.3912 16.0734 26.9803 26.5169 18.2043C35.7116 10.4777 45.4423 3.60005 57.4147 2.44286Z" stroke="white" stroke-width="4"/>
<path fill-rule="evenodd" clip-rule="evenodd" d="M176.559 346.774C183.098 347.399 189.833 346.407 195.209 350.144C201.616 354.597 207.47 360.869 207.963 368.603C208.475 376.65 203.644 384.012 197.72 389.547C191.975 394.914 184.439 398.501 176.559 397.943C169.113 397.416 163.241 392.221 158.222 386.751C153.505 381.611 150.367 375.509 149.636 368.603C148.804 360.746 147.754 351.211 153.929 346.204C159.997 341.284 168.751 346.029 176.559 346.774Z" stroke="white" stroke-width="4"/>
</svg>
