<svg width="566" height="716" viewBox="0 0 566 716" fill="none" xmlns="http://www.w3.org/2000/svg">
<path fill-rule="evenodd" clip-rule="evenodd" d="M463.12 4.29556C485.59 8.48507 497.867 29.9319 514.638 45.4465C532.641 62.1021 559.484 72.6809 563.226 96.9055C567.261 123.028 555.257 152.191 533.433 167.138C513.332 180.905 486.955 170.545 463.12 165.465C445.807 161.776 430.62 154.346 417.532 142.44C403.582 129.75 392.24 115.212 387.751 96.9055C381.554 71.6361 371.525 42.0147 387.955 21.8269C404.826 1.09608 436.827 -0.606651 463.12 4.29556Z" stroke="white" stroke-width="4"/>
<path fill-rule="evenodd" clip-rule="evenodd" d="M192.941 354.158C259.292 344.824 314.791 393.797 352.157 433.249C382.883 465.69 383.041 506.252 373.272 544.556C365.312 575.771 331.146 596.792 303.974 622.18C268.486 655.337 251.378 706.266 192.941 713.046C132.315 720.08 75.374 687.026 37.7207 653.071C4.08906 622.742 -4.09315 582.264 6.10187 544.556C14.6799 512.83 60.9438 497.168 87.0714 470.543C125.746 431.131 125.92 363.587 192.941 354.158Z" stroke="white" stroke-width="4"/>
</svg>
