<svg width="308" height="568" viewBox="0 0 308 568" fill="none" xmlns="http://www.w3.org/2000/svg">
<path fill-rule="evenodd" clip-rule="evenodd" d="M173.492 343.016C203.007 348.521 219.134 376.701 241.162 397.087C264.81 418.971 300.069 432.871 304.983 464.701C310.283 499.025 294.517 537.344 265.85 556.984C239.447 575.072 204.801 561.46 173.492 554.786C150.753 549.939 130.804 540.175 113.613 524.532C95.2882 507.857 80.3906 488.755 74.4939 464.701C66.3544 431.499 53.1818 392.577 74.7622 366.052C96.923 338.812 138.956 336.575 173.492 343.016Z" stroke="white" stroke-width="4"/>
<circle cx="14.5" cy="14.5" r="14.5" transform="matrix(1 0 0 -1 185 94)" fill="white"/>
<circle cx="200" cy="44" r="9" fill="white"/>
<circle cx="216.5" cy="7.5" r="7.5" fill="white"/>
<path fill-rule="evenodd" clip-rule="evenodd" d="M57.4147 90.4429C70.7428 89.1546 85.3961 90.2432 94.9515 99.5897C104.56 108.988 105 123.572 105 136.988C105 150.403 103.931 164.389 94.9495 174.384C85.5529 184.841 71.4847 190.643 57.4147 189.943C43.9137 189.272 33.2028 180.153 23.4493 170.828C13.409 161.228 1.36842 150.836 2.02578 136.988C2.6712 123.391 16.0734 114.98 26.5169 106.204C35.7116 98.4777 45.4423 91.6001 57.4147 90.4429Z" stroke="white" stroke-width="4"/>
</svg>
