<svg width="381" height="853" viewBox="0 0 381 853" fill="none" xmlns="http://www.w3.org/2000/svg">
<circle cx="8" cy="8" r="8" transform="matrix(1 0 0 -1 214 62)" fill="white"/>
<circle cx="15" cy="15" r="15" transform="matrix(1 0 0 -1 206 30)" fill="white"/>
<circle cx="14.5" cy="14.5" r="14.5" transform="matrix(1 0 0 -1 89 722)" fill="white"/>
<circle cx="118" cy="665" r="9" fill="white"/>
<circle cx="110.5" cy="629.5" r="7.5" fill="white"/>
<path fill-rule="evenodd" clip-rule="evenodd" d="M192.941 108.158C259.292 98.8236 314.791 147.797 352.157 187.249C382.883 219.69 383.041 260.252 373.272 298.556C365.312 329.771 331.146 350.792 303.974 376.18C268.486 409.337 251.378 460.266 192.941 467.046C132.315 474.08 75.374 441.026 37.7207 407.071C4.08906 376.742 -4.09315 336.264 6.10187 298.556C14.6799 266.83 60.9438 251.168 87.0714 224.543C125.746 185.131 125.92 117.587 192.941 108.158Z" stroke="white" stroke-width="4"/>
<path fill-rule="evenodd" clip-rule="evenodd" d="M319.559 20.7745C326.098 21.3985 332.833 20.407 338.209 24.1438C344.616 28.5972 350.47 34.8689 350.963 42.6025C351.475 50.6496 346.644 58.0119 340.72 63.5467C334.975 68.9141 327.439 72.5007 319.559 71.943C312.113 71.416 306.241 66.2208 301.222 60.7512C296.505 55.6106 293.367 49.5089 292.636 42.6025C291.804 34.7457 290.754 25.2105 296.929 20.2044C302.997 15.2845 311.751 20.0294 319.559 20.7745Z" stroke="white" stroke-width="4"/>
<path fill-rule="evenodd" clip-rule="evenodd" d="M86.1196 681.296C108.59 685.485 120.867 706.932 137.638 722.447C155.641 739.102 182.484 749.681 186.226 773.906C190.261 800.028 178.257 829.191 156.433 844.138C136.332 857.905 109.955 847.545 86.1196 842.465C68.8075 838.776 53.6202 831.346 40.5325 819.44C26.5816 806.75 15.2397 792.212 10.7505 773.906C4.55374 748.636 -5.47478 719.015 10.9547 698.827C27.8262 678.096 59.8268 676.393 86.1196 681.296Z" stroke="white" stroke-width="4"/>
</svg>
