<svg width="1732" height="972" viewBox="0 0 1732 972" fill="none" xmlns="http://www.w3.org/2000/svg">
<path d="M189.27 110.646L0 171.323V464H1732V0L1632.01 42.8308L1546.3 0H1467.74L1328.46 110.646H1232.04L1053.48 132.062L903.497 210.585L817.79 171.323L749.938 210.585L671.373 171.323L389.254 210.585L189.27 110.646Z" fill="white"/>
<path d="M170.521 212.369L188.377 140.984L254.443 185.6L356.22 224.861H318.724H231.231L170.521 212.369Z" fill="#DAF0FF"/>
<path d="M615.128 212.369L668.695 185.6L727.618 224.861H681.194L615.128 212.369Z" fill="#DAF0FF"/>
<path d="M1057.95 158.831L1002.6 212.369L1177.58 224.861L1315.07 158.831L1291.86 140.984L1145.44 158.831H1057.95Z" fill="#DAF0FF"/>
<path d="M1613.26 66.0306L1548.98 12.4922V66.0306L1593.62 89.2306L1613.26 66.0306Z" fill="#DAF0FF"/>
<rect width="1732" height="700" transform="translate(0 272)" fill="white"/>
</svg>
